<svg xmlns="http://www.w3.org/2000/svg" width="1440" height="778" viewBox="0 0 1440 778">
    <defs>
        <linearGradient id="a" x1="0%" y1="0%" y2="98.529%">
            <stop offset="0%" stop-color="#250E8A"/>
            <stop offset="100%" stop-color="#00F9F7"/>
        </linearGradient>
        <linearGradient id="b" x1="100%" x2="0%" y1="50%" y2="50%">
            <stop offset="0%" stop-color="#FFF" stop-opacity="0"/>
            <stop offset="100%" stop-color="#06CCE2"/>
            <stop offset="100%" stop-color="#FFF"/>
        </linearGradient>
    </defs>
    <g fill="none" fill-rule="evenodd">
        <path fill="url(#a)" d="M119 354h1440v755.92c-185.89-59.505-328.706-86.505-428.445-80.997-297.43 16.422-330.423 86.32-592.32 97.019-160.459 6.554-300.204-17.342-419.235-71.69V354z" transform="translate(-119 -354)"/>
        <g transform="translate(-119 -354)">
            <rect width="982.437" height="200" x="767" y="538" fill="#FFF" opacity=".1" rx="100" transform="rotate(-30 1258.219 638)"/>
            <rect width="120" height="15" x="1017.391" y="528.636" fill="url(#b)" opacity=".5" rx="7.5" transform="rotate(-30 1077.39 536.136)"/>
            <rect width="100" height="20.358" x="818.391" y="687.636" fill="url(#b)" opacity=".5" rx="10.179" transform="rotate(-30 868.39 697.815)"/>
            <rect width="100" height="20.358" x="1208.391" y="959.636" fill="url(#b)" rx="10.179" transform="rotate(-30 1258.39 969.815)"/>
            <rect width="982.437" height="200" x="-15.811" y="232.212" fill="#FFF" opacity=".05" rx="100" transform="rotate(-30 475.408 332.212)"/>
            <rect width="982.437" height="200" x="1269.189" y="615.212" fill="#FFF" opacity=".1" rx="100" transform="rotate(-30 1760.408 715.212)"/>
            <rect width="982.437" height="200" x="984.189" y="596.212" fill="#FFF" opacity=".05" rx="100" transform="rotate(-30 1475.408 696.212)"/>
        </g>
        <g fill="#FFF">
            <path d="M0 608c90.691 1.14 147.852 33.438 291.79 73.684 95.96 26.83 251.592 36.186 466.899 28.066C469.144 800.172 216.247 796.99 0 700.207" opacity=".1"/>
            <path d="M100.463 737.703c177.495-39.93 326.298-64.166 446.41-72.707 120.11-8.54 264.443-4.649 432.996 11.676-47.952 1.289-168.775 24.311-362.468 69.066s-366.005 42.077-516.938-8.035z" opacity=".1"/>
            <path d="M1045.79 671.398c84.91-27.52 233.3-41.968 393.364-14.16v98.418c-167.983-51.846-299.105-79.932-393.364-84.258z" opacity=".2"/>
        </g>
        <path fill="#FFCA00" d="M1128.849 530.703H753.228c-2.335 0-4.228-1.982-4.228-4.424 0-2.443 1.893-4.423 4.228-4.423h375.62c2.335 0 4.229 1.98 4.229 4.423 0 2.442-1.894 4.424-4.228 4.424M1341.736 530.703h-186.294c-2.332 0-4.224-1.982-4.224-4.424 0-2.443 1.892-4.423 4.224-4.423h186.294c2.333 0 4.223 1.98 4.223 4.423 0 2.442-1.89 4.424-4.223 4.424"/>
        <path fill="#FFF" d="M1173.67 137h-28.338c-19.514 0-35.332 15.75-35.332 35.056 0 15.35 10.003 28.48 23.91 33.179V215l8.895-7.886c.835.057 1.675.198 2.527.198h28.338c19.51 0 35.33-15.85 35.33-35.156 0-19.306-15.82-35.156-35.33-35.156"/>
        <path fill="#FFCA00" d="M1104 274.506L1114.784 256l14.216 6.324v44.551c0 3.484-1.825 6.725-4.831 8.572-6.845 4.209-20.169-.633-20.169-8.572v-32.369z"/>
        <path fill="#FFF" d="M1041.29 514l-4.29 9h27c-.827-3.363-4.007-5.531-7.343-5.008l-3.238.509c-2.256 0-3.787-2.36-2.92-4.501h-9.208zM1073.292 514l-4.292 9h27c-.827-3.363-4.006-5.531-7.344-5.008l-3.236.509c-2.255 0-3.786-2.36-2.92-4.501h-9.208z"/>
        <path fill="#FBEFE1" d="M1139.098 262.893c2.581-6.628-.45-16.626-8.174-22.09a20.719 20.719 0 0 0-24.677.556l-1.189.924a20.665 20.665 0 0 0-7.95 15.065l-.446 19.108-7.662 4.148 6.483 22.396 6.481-8.244 10.354-12.795 8.484 2.525c5.287 1.869 11.102-.858 13.05-6.113l.03-.083 1.624-4.379 3.592-11.018z"/>
        <path fill="#FFCA00" d="M1141.143 256.446l.824-.278c.657-12.152-8.508-22.694-20.891-24.027-14-1.506-26.227 9.263-26.075 23.021.05 4.57 1.307 16.838 1.307 16.838l13.157-15.997 1.451.485a47.554 47.554 0 0 0 30.227-.042"/>
        <path fill="#FA7564" d="M1041.984 515l-3.45-29.622c-1.404-10.924-1.038-31.793 1.083-42.6l2.445-12.47-4.59-30.895a43.57 43.57 0 0 1 3.487-24.547l4.113-11.866h46.762l-.404 2.269c-1.825 10.256-1.563 23.662.77 33.814l7.07 26.737c.93 3.509.972 7.192.125 10.722L1083.076 515h-9.182l-.69-28.905c-.617-18.945 7.01-53.52 7.01-53.52l-14.25-35.368L1051.168 515h-9.183z"/>
        <path fill="#FD8778" d="M1069.766 363h21.836l-.415 2.269c-1.876 10.256-1.607 23.662.792 33.814l7.27 26.737c.956 3.509 1 7.192.129 10.722L1082.597 515h-9.443l-.71-28.907c-.634-18.943 7.21-53.519 7.21-53.519L1065 397.207l4.766-34.207z"/>
        <path fill="#1E389D" d="M1136.351 297.677l-15.09 31.73-3.51-31.593-11.685-8.62-4.624 5.93-12.942-13.904h-18.992V281c-17.668 20.729-26.109 47.288-25.437 74.594l-.071 7.042h32.934L1101.166 383l8.976-7.992-15.507-23.208 6.807-18.048 6.73-8.589 9.923 28.13 16.336-3.434L1148 300.608l-11.649-2.931z"/>
        <path fill="#FBEFE1" d="M1148.364 300a14.4 14.4 0 0 0 4.18-5.636l1.303-3.133c.532-2.217-.352-4.542-2.193-5.761l-5.63-3.736 2.359-8.093c.346-1.19-.39-2.427-1.562-2.617-.824-.134-1.635.297-2.02 1.072l-4.64 9.308-.458.762a18.92 18.92 0 0 0-2.066 4.916 19.394 19.394 0 0 0-.558 6.681l.304 3.33 10.98 2.907z"/>
        <path fill="#000" d="M1299.377 508.849h-29.926v-57.246h28.218l9.002-81.864c1.842-12.584-4.168-25.08-15.184-31.484-9.773-5.681-22.193-5.681-31.939.049l-16.063 9.222v80.759L1221 451.603h37.518v57.246h-29.894c-4.095 0-7.414 3.206-7.414 7.29 0 4.083 3.319 7.627 7.414 7.627 3.951 0 7.172-4.013 7.392-6.74h20.591c.22 2.727 3.442 6.974 7.393 6.974 3.953 0 7.173-4.247 7.392-6.973h20.593c.22 2.726 3.44 6.685 7.392 6.685 4.095 0 7.414-3.347 7.414-7.43 0-4.084-3.32-7.433-7.414-7.433"/>
        <path fill="#FFF" d="M1214.71 514l4.29 9h-27c.827-3.363 4.006-5.531 7.343-5.008l3.238.509c2.255 0 3.785-2.36 2.92-4.501h9.208z"/>
        <path fill="#FFF" d="M1189.708 514l4.292 9h-27c.829-3.363 4.006-5.531 7.344-5.008l3.236.509c2.255 0 3.786-2.36 2.92-4.501h9.208z"/>
        <path fill="#1E389D" d="M1193.113 516l15.232-65.242 29.37-14.751h17.824L1270 414l-36.32 4-38.397 14.709c-4.014 1.537-6.912 5.057-7.626 9.263L1176 516h17.113z"/>
        <path fill="#212293" d="M1244.547 418.304l-30.671 15.972c-3.646 1.9-6.079 5.49-6.469 9.552L1201 516h16l14.035-70.993 39.106-9c10.415 0 18.859-8.36 18.859-18.672V414l-44.453 4.304z"/>
        <path fill="#FA7564" d="M1243.126 339.344h30.155c7.862 0 15.114 4.258 18.992 11.15L1312 379.984V426h-14v-40.306l-10-10.748v42.993H1234l4.565-54.81-21.656 20.299c-4.718 4.852-12.766 3.634-15.86-2.4l-19.05-37.13 9.503-5.898 16.83 27.541 19.256-19.653a21.75 21.75 0 0 1 15.537-6.544"/>
        <path fill="#FBEFE1" d="M1235.272 301.904c-.116-7.23 6.132-15.697 15.173-18.186 8.719-2.4 17.94 1.35 22.697 9.229l.784 1.3c3.1 5.132 3.9 11.388 2.197 17.169l-5.97 18.104-.414 10.733-10.262 3.747-6.949-3.747.395-11.563-7.918-.023c-5.548-.08-10.002-4.73-10.002-10.429v-.09l-.003-7.675.272-8.57z"/>
        <path fill="#000" d="M1262 330v-18h-27l.001 5.363v.086c0 5.39 4.481 9.791 10.062 9.867l7.965.022-.097 2.662H1262z"/>
        <path fill="#000" d="M1264.245 297.988s-25.169.39-31.245-12.52c0 0 15.07-10.358 31.137-6.677 13.69 3.41 21.345 17.973 16.307 31.113-1.674 4.365-4.555 11.69-7.77 17.096v-16.112l-8.223-1.541-1.309 3.544h-3.86l4.963-14.903z"/>
        <path fill="#FBEFE1" d="M1298 447c-1.106 0-2-.981-2-2.191v-9.605l4-3.204v12.809c0 1.21-.896 2.191-2 2.191M1302.063 448c-1.062 0-1.926-.91-1.937-2.04L1300 432h3.874l.126 13.92c.01 1.145-.859 2.08-1.937 2.08M1308 447c-1.105 0-2-.981-2-2.191V432h4v12.809c0 1.21-.895 2.191-2 2.191"/>
        <path fill="#FBEFE1" d="M1311.645 441h-1.29c-.75 0-1.355-.67-1.355-1.496V432h4v7.504c0 .827-.606 1.496-1.355 1.496"/>
        <path fill="#FBEFE1" d="M1313 433.308v-4.28l-1.603-3.75-11.068-.278-.177.17c-2.646 2.528-3.835 6.063-3.835 9.799L1296 435l17-1.692z"/>
        <path fill="#FFF" d="M1342 408h-261v12.29h12.296L1083.66 535h4.658l25.094-114.71h10.749l-8.527 102.42h4.053l22.145-102.42h98.303L1265.23 535h4.66l-9.634-114.71h48.371l22.146 102.42h4.053l-8.527-102.42H1342z"/>
        <path fill="#000" d="M865.37 508.852h-29.925V451.62H873l-22.507-23.313v-80.74l-16.08-9.25c-9.754-5.728-22.021-5.758-31.804-.078-11.028 6.403-17.126 18.955-15.283 31.535l8.929 81.846H824.5v57.232h-29.956c-4.099 0-7.422 3.205-7.422 7.288s3.323 7.626 7.422 7.626c3.956 0 7.179-4.012 7.4-6.737h20.612c.22 2.725 3.445 6.971 7.4 6.971 3.956 0 7.18-4.246 7.4-6.971h20.614c.219 2.725 3.443 6.683 7.4 6.683 4.098 0 7.421-3.346 7.421-7.429 0-4.082-3.323-7.43-7.421-7.43M879.292 514L875 523h27c-.827-3.363-4.007-5.531-7.344-5.008l-3.236.509c-2.257 0-3.787-2.36-2.92-4.501h-9.208z"/>
        <path fill="#000" d="M904.292 514L900 523h27c-.827-3.363-4.007-5.531-7.344-5.008l-3.236.509c-2.257 0-3.787-2.36-2.92-4.501h-9.208z"/>
        <path fill="#1E389D" d="M900.888 516l-15.233-65.242-29.37-14.751H838.46L824 414l36.32 4 38.398 14.709c4.013 1.537 6.911 5.057 7.626 9.263L918 516h-17.112z"/>
        <path fill="#212293" d="M848.454 418.304l30.67 15.972c3.647 1.9 6.08 5.49 6.469 9.552L892 516h-16l-14.034-70.993-39.108-9c-10.415 0-18.858-8.36-18.858-18.672V414l44.454 4.304z"/>
        <path fill="#FA7564" d="M850.108 339.328h-30.534c-7.96 0-15.305 4.208-19.23 11.018l-22.701 33.596c-3.345 4.951-1.389 11.67 4.115 14.127l31.608 14.112 6.05-13.639-20.816-8.962c-2.072-.893-2.76-3.452-1.404-5.235l7.474-9.833V417h54.677l-4.622-54.165 21.927 20.059c4.777 4.796 12.926 3.592 16.06-2.372L912 343.829 902.378 338l-17.041 27.218-19.498-19.423c-4.154-4.138-9.819-6.467-15.731-6.467"/>
        <path fill="#FBEFE1" d="M856.727 301.904c.115-7.23-6.13-15.697-15.173-18.186-8.72-2.4-17.939 1.35-22.696 9.229l-.785 1.3c-3.099 5.132-3.899 11.388-2.196 17.169l5.97 18.104.412 10.733L832.521 344l6.95-3.747-.394-11.563 7.918-.023c5.546-.08 10.002-4.73 10.002-10.429v-.09l.003-7.675-.273-8.57z"/>
        <path fill="#000" d="M861 281.711s-15.838-7.351-31.57-3.688c-2.86.724-5.433 1.978-7.692 3.592l-3.241-3.694v6.483c-6.01 6.267-8.294 15.742-4.96 24.582 1.64 4.344 4.96 11.635 7.68 17.014v-16.034l7.978-1.535.166-11.303s15 .812 24.345-5.727l3.078 6.326s-2.074-12.053 4.216-16.016"/>
        <path fill="#FBEFE1" d="M825 393c0-1.104-.981-2-2.191-2h-9.605L810 395h12.809c1.21 0 2.191-.896 2.191-2M826 398.063c0-1.062-.91-1.926-2.04-1.937L810 396v3.874l13.921.126c1.144.01 2.079-.859 2.079-1.937M825 403c0-1.105-.981-2-2.191-2H810v4h12.809c1.21 0 2.191-.895 2.191-2"/>
        <path fill="#FF63BE" d="M834 410.645v-1.29c0-.75-.67-1.355-1.495-1.355H825v4h7.505c.825 0 1.495-.606 1.495-1.355"/>
        <path fill="#FBEFE1" d="M812.307 408h-4.28l-3.75-1.603L804 395.33l.17-.177c2.528-2.646 6.062-3.835 9.799-3.835L814 391l-1.693 17z"/>
        <path fill="#FFF" d="M1012 408H751v12.29h15.702l-8.527 102.42h4.053l22.144-102.42h48.374L823.111 535h4.66l25.093-114.71h98.304l22.144 102.42h4.053l-8.527-102.42h10.749L1004.68 535h4.66l-9.636-114.71H1012zM885.571 393h104.318a7.562 7.562 0 0 0 7.42-6.05l12.54-61.917c.944-4.67-2.639-9.033-7.421-9.033H898.11a7.563 7.563 0 0 0-7.42 6.05l-12.538 61.918c-.946 4.67 2.637 9.032 7.419 9.032"/>
        <path fill="#B3D2EC" d="M961.834 361h-31.821l13.02 33.94c1.392 3.624-1.252 7.53-5.096 7.53H918V408h45.304c8.287 0 13.94-8.483 10.83-16.254L961.835 361z"/>
        <path fill="#FFCA00" d="M1228.155 179h-33.31c-21.454 0-38.845 16.912-38.845 38.16v-.111c0 21.25 17.391 38.363 38.845 38.363h33.31c.73 0 1.455-.07 2.175-.11l9.722 8.698v-10.526c15.632-4.977 26.948-19.492 26.948-36.628v.314c0-21.248-17.393-38.16-38.845-38.16"/>
        <path fill="#FFF" d="M1206.429 393h-104.318a7.563 7.563 0 0 1-7.42-6.05l-12.54-61.917c-.944-4.67 2.639-9.033 7.42-9.033h104.32a7.562 7.562 0 0 1 7.419 6.05l12.538 61.918c.946 4.67-2.637 9.032-7.419 9.032"/>
        <path fill="#B3D2EC" d="M1131.016 361h31.459l-12.873 33.94c-1.375 3.624 1.239 7.53 5.039 7.53H1173V408h-43.438c-8.192 0-13.78-8.483-10.707-16.254l12.16-30.746z"/>
    </g>
</svg>
