<svg xmlns="http://www.w3.org/2000/svg" xmlns:xlink="http://www.w3.org/1999/xlink" width="656" height="529" viewBox="0 0 656 529">
    <defs>
        <path id="a" d="M.001.437h509.957v238.204H.001z"/>
        <linearGradient id="c" x1="100%" x2="0%" y1="50%" y2="50%">
            <stop offset="0%" stop-color="#FFF" stop-opacity="0"/>
            <stop offset="100%" stop-color="#06CCE2"/>
            <stop offset="100%" stop-color="#FFF"/>
        </linearGradient>
        <linearGradient id="d" x1="100%" x2="0%" y1="50%" y2="50%">
            <stop offset="0%" stop-color="#FFF" stop-opacity="0"/>
            <stop offset="100%" stop-color="#FA7564"/>
            <stop offset="100%" stop-color="#FFF"/>
        </linearGradient>
        <linearGradient id="e" x1="100%" x2="0%" y1="50%" y2="50%">
            <stop offset="0%" stop-color="#FFF" stop-opacity="0"/>
            <stop offset="100%" stop-color="#FFF"/>
            <stop offset="100%" stop-color="#FFF"/>
        </linearGradient>
    </defs>
    <g fill="none" fill-rule="evenodd">
        <g transform="translate(97 289.903)">
            <mask id="b" fill="#fff">
                <use xlink:href="#a"/>
            </mask>
            <path fill="#FA7564" d="M47.422 136.972C31.059 153.884-.02 150.87.002 177.009c.017 23.182 25.932 34.023 44.38 40.789 60.676 22.248 109.977 29.747 169.052 7.203C254.238 209.44 469.787 83.29 499.642 63.374c41.132-27.446-50.518-53.444-102.814-62.16-76.535-12.76-349.406 135.758-349.406 135.758" mask="url(#b)"/>
        </g>
        <path fill="#02ECF1" d="M92.104 154.53c-27.262 35.446-16.786 67.156-12.035 106.088 2.875 23.548 5.51 65.63 31.022 80.914 23.753 14.237 63.34 13.522 85.703 3.076 64.856-30.307 171.624-96.966 224.73-140.895 46.314-38.304 39.178-87.046 29.686-136.331C446.83 44.644 421.863 3.835 390.02.378 354.96-3.432 122.827 114.595 92.104 154.53"/>
        <path fill="#E0EBEF" d="M94 299.002v.94l15.068 8.484L183 350v-10.941L94 289z"/>
        <g>
            <path fill="#FFF" d="M182.657 339.804l106.428-61.405s9.406-6.02 23.106-13.351c9.629-5.14 17.135-9.865 29.254-6.725 6.088 1.61 18.962 9.09 18.962 9.09 18.768 10.788 100.382 56.093 100.382 56.093l1.633-.948 85.318-49.594s-143.41-78.725-158.037-87.081c-26.718-15.227-45.92-23.435-77.195-18.466-17.16 2.95-52.462 24.968-52.462 24.968l-33.24 19.146-132.708 76.61v.948l88.559 50.715zM185.585 428.222l.582-80.356-3.51 2.02-73.565-42.116v76.318z"/>
            <path fill="#E0EBEF" d="M457.109 331.572c2.285 1.244 3.576 1.95 3.576 1.95l1.74-.977v-9.989l-1.638.952S379.173 278.2 360.405 267.41c0 0-12.87-7.476-18.962-9.086-12.119-3.14-19.621 1.582-29.254 6.721-13.699 7.331-23.106 13.351-23.106 13.351l-106.427 61.405v11.085l3.513-2.023 7.946-4.603 94.968-54.783s9.407-5.991 23.106-13.323c9.633-5.142 17.135-9.89 29.254-6.72 6.092 1.578 18.962 9.057 18.962 9.057 2.83 1.632 7.048 3.997 12.215 6.873a4486.85 4486.85 0 0 0 7.968 4.406c21.48 11.863 52.095 28.524 68.546 37.462 3.294 1.777 5.996 3.264 7.975 4.34"/>
            <path fill="#E9F1F4" d="M186.167 348.865l-.582 80.356 7.964-4.553.564-80.406z"/>
            <path fill="#78909B" d="M381.1 361.36l-.17-24.77-.194-26.748-.152-20.072a6101.08 6101.08 0 0 1-7.964-4.406l.557 80.505 7.996 4.553-.074-9.061z"/>
            <path fill="#E0EBEF" d="M380.586 289.772l.152 20.072 68.543 39.14-.145-21.75c-16.45-8.938-47.07-25.599-68.55-37.462"/>
            <path fill="#E9F1F4" d="M449.28 348.985l-68.544-39.14.194 26.744 68.543 39.144z"/>
            <path fill="#E0EBEF" d="M389.266 365.77l60.353 32.64-.148-22.676-68.54-39.144.17 24.77z"/>
            <path fill="#36464F" d="M381.1 361.36l.073 9.062s3.118-1.78 8.092-4.652l-8.166-4.41z"/>
            <path fill="#E9F1F4" d="M457.67 411.856l-.561-80.283c-1.979-1.075-4.68-2.562-7.975-4.339l.145 21.75.194 26.748.148 22.681.078 8.885 7.97 4.558z"/>
            <path fill="#FFF" d="M457.109 331.572l.56 80.283 76.515-44.138v-75.948l-71.76 40.776-1.739.976s-1.29-.705-3.576-1.949"/>
            <path fill="#E9F1F4" d="M547.74 284.073v-11.11l-85.315 49.595v9.985l71.756-40.772z"/>
            <path fill="#1E5F30" d="M461.156 210.503c.8.617 1.478 1.286 1.784 1.98a28.716 28.716 0 0 0-1.784-1.98M479.132 225.594c-.088.018-.176.032-.268.057-.292.052-.624.066-.955.12a6.92 6.92 0 0 1 1.223-.177M470.766 224.515c.077.233.155.462.243.684-.025.074-.042.155-.067.233a13.782 13.782 0 0 0-.176-.917M470.752 224.472a21.578 21.578 0 0 1-.723-2.749c.307.98.55 1.914.723 2.75M470.174 235.471c.031.286.074.571.116.86a6.239 6.239 0 0 0-.215-.85c.032 0 .063-.01.099-.01"/>
            <path fill="#1E5F30" d="M470.174 235.471c-.036 0-.067.01-.1.01a6.595 6.595 0 0 0-.472-1.163c.13-.014.25-.035.381-.045.07.394.124.8.19 1.198"/>
            <path fill="#795549" d="M470.8 243.644h-.01c0 .779-.565 1.727-.332 2.34.318.959 2.004 1.287 2.575.243.212-.514-.042-1.032-.198-1.558-.074-1.399-.197-2.809-.317-4.194 4.829-.056 9.453 1.52 11.791 4.332.268.345.515.673.699 1.015-1.01 2.143-3.38 4.06-6.797 5.202-6.642 2.22-14.744.74-18.098-3.31a6.026 6.026 0 0 1-.702-1.025c1.009-2.136 3.372-4.036 6.797-5.188a19.49 19.49 0 0 1 4.536-.924c.077 1.019.102 2.055.056 3.067"/>
            <path fill="#D64527" d="M470.29 236.35c.202 1.407.375 2.817.456 4.226-1.542.13-3.076.437-4.536.924-3.429 1.156-5.792 3.056-6.8 5.191-2.205-3.838.54-8.286 6.627-10.32a19.46 19.46 0 0 1 4.035-.888 6.2 6.2 0 0 1 .219.846v.021zM484.13 239.672c1.616 1.96 1.838 4.148.879 6.15-.187-.342-.43-.67-.699-1.015-2.338-2.812-6.962-4.388-11.79-4.331-.146-1.727-.3-3.444-.389-5.129 4.9-.095 9.619 1.477 12 4.325"/>
            <path fill="#F48967" d="M484.13 239.672c-2.38-2.848-7.1-4.42-11.999-4.325-.021-.401-.046-.814-.053-1.216 5.792-.144 11.382 1.703 14.176 5.058 1.495 1.805 1.971 3.785 1.555 5.7-.684 3.066-3.693 5.949-8.465 7.542-7.753 2.594-17.216.86-21.138-3.86-.868-1.043-1.383-2.146-1.608-3.253-.723-3.919 2.49-7.98 8.525-9.988 1.45-.487 2.959-.814 4.48-1.012.197.37.348.772.472 1.167a19.665 19.665 0 0 0-4.039.884c-6.084 2.038-8.832 6.482-6.627 10.32.187.35.427.695.702 1.026 3.357 4.05 11.456 5.53 18.097 3.31 3.422-1.146 5.792-3.06 6.8-5.203.96-2.002.738-4.19-.878-6.15"/>
            <path fill="#F27048" d="M483.786 263.86c-.494 2.284-2.727 4.41-6.286 5.597-5.738 1.921-12.764.642-15.681-2.872a5.154 5.154 0 0 1-.97-1.65l-4.25-19.617c.222 1.106.74 2.21 1.608 3.256 3.919 4.716 13.386 6.454 21.135 3.856 4.775-1.593 7.78-4.476 8.468-7.542h.01l-4.034 18.972z"/>
            <path fill="#378E43" d="M466.209 213.375a15.078 15.078 0 0 0-1.538-1.924l.042-.046c-1.785-2.298-4.962-4.05-7.354-5.72-2.652-1.914-6.924-3.99-10.602-3.99-.664 0-1.305.077-1.923.218 0 0 2.642.638 2.882.716 1.287.483 2.74.803 4.017 1.374 2.258.956 4.018 2.806 6.032 4.244.772.543 2.194 1.332 3.379 2.245 0 0 0 .01.01.01a27.96 27.96 0 0 1 1.785 1.985 26.145 26.145 0 0 1 3.763 6.133c-2.55-3.003-5.117-4.586-9.1-5.072-5.135-.635-10.599-.966-14.616-4.649-2.73-2.576-5.47-8.198-.97-10.44 3.534-1.77 9.001-.162 12.539.642 4.17 1.117 8.352 2.57 10.278 6.739 1.104 2.33 1.252 5.005 1.376 7.535M442.821 236.185c-2.568-2.562-1.287-7.225 1.118-9.636 4.07-3.88 14.775-4.31 18.641.522-1.2-.279-2.49-.423-3.855-.476v.046c-2.247.077-4.17 0-6.342.8-3.08 1.022-7.869 2.506-9.396 5.699 1.52-1.748 6.504-3.535 8.673-4.015 1.527-.32 3.047-.726 4.582-.965 1.044-.145 2.084.049 3.079-.124.01.01.01 0 .018 0 1.315.106 2.677.44 3.985.966-2.804-.218-6.06 1.642-8.13 3.017-3.217 2.242-8.19 8.346-12.373 4.166M495.036 226.882c1.943 4.97-2.078 9.47-7.217 7.697-3.217-1.12-4.99-5.135-7.883-6.256-1.111-.32-3.072-.79-4.194-.331a11.84 11.84 0 0 1 2.102-.959l-.014-.02c2.31-.706 5.153-.614 7.467-.293 1.661.218 3.326.687 4.875 1.49.857.483 2.3 1.343 2.885 2.2-.208-.536-.586-1.065-.96-1.495-2.356-2.738-6.486-3.32-9.85-3.584-1.08-.099-2.128.067-3.115.264-.381.018-.794.078-1.22.176h-.032c-.134.022-.268.043-.392.089-.014 0-.035.01-.05.01-.398.099-.796.219-1.177.36 3.442-6.422 15.935-6.454 18.775.652M483.273 211.305c-1.288.638-3.337 2.157-4.459 2.728a16.437 16.437 0 0 0-3.28 2.774c.36-.955 1.08-1.551 1.506-2.288.804-1.77.804-3.697 1.457-5.466 1.926-4.974 6.26-7.064 11.244-8.35 3.693-.804 7.386-.959 10.769.97 3.851 2.24 6.899 5.135 3.044 9.149-1.923 2.09-5.457 3.049-8.028 4.014-3.217 1.121-6.748 2.411-9.964 3.046-3.855.61-7.178-.173-10.183 2.234.843-1.188 1.894-2.319 3.178-3.376.014-.01.039-.021.05-.046 1.209-.867 2.285-1.942 3.583-2.661 1.926-1.043 3.777-2.242 5.858-3.06 3.863-1.437 8.522-2.967 11.975-5.367-2.014 0-3.894.895-5.82 1.3-1.852.32-3.336 1.22-5.11 1.872a36.76 36.76 0 0 0-5.82 2.527M471.503 211.097a31.688 31.688 0 0 1 1.203-6.531l-.103-.035c1.214-3.518 1.545-7.116 1.387-10.965-.166 2.41-1.119 5.135-1.68 7.458-.327 1.24-1.026 2.583-1.276 3.87v.02c-.674 2.105-1.16 4.512-1.386 6.997-1.454-2.287-2.6-3.87-3.04-6.71-.653-4.177-.329-9.788 2.56-13.33 2.578-3.046 8.038-2.563 10.285.969 3.855 5.85-6.532 12.625-7.95 18.257"/>
            <path fill="#1E5F30" d="M469.601 234.318c-1.202-2.432-3.611-4.268-6.25-5.315h-.024c-1.309-.525-2.674-.86-3.99-.966-.007 0-.007.01-.017 0-.991.173-2.035-.021-3.08.12-1.534.24-3.05.648-4.581.966-2.17.482-7.153 2.266-8.673 4.018 1.53-3.194 6.317-4.681 9.396-5.7 2.173-.803 4.095-.722 6.342-.803v-.043c1.365.053 2.656.198 3.855.476 2.84.638 5.213 1.988 7.022 4.68.117.836.25 1.675.381 2.521-.13.01-.25.035-.38.046M492.097 228.914c.374.43.752.959.96 1.498-.586-.86-2.028-1.717-2.885-2.203-1.549-.804-3.214-1.272-4.875-1.49-2.314-.322-5.156-.41-7.467.292l.014.024c-.652.222-1.379.536-2.102.959-.01 0-.025.01-.032.01-1.474.836-2.938 2.034-3.657 3.472.014-.624.05-1.254.102-1.871-.01-.007 0-.018 0-.018.646-1.54 2.332-2.696 4.106-3.355.38-.141.78-.265 1.178-.363.014 0 .035-.01.05-.01.133-.036.27-.068.39-.089h.032c.328-.053.66-.067.953-.12.091-.024.18-.039.268-.056.987-.198 2.035-.363 3.114-.265 3.365.265 7.495.846 9.851 3.585M472.836 244.668c.155.529.409 1.043.197 1.561-.571 1.044-2.257.712-2.574-.243-.233-.617.331-1.561.331-2.344h.01a25.465 25.465 0 0 0-.056-3.066 16.73 16.73 0 0 1 1.774-.099c.12 1.385.244 2.795.318 4.191"/>
            <path fill="#1E5F30" d="M472.13 235.349c.088 1.684.243 3.4.388 5.128a16.73 16.73 0 0 0-1.774.099c-.078-1.41-.254-2.82-.452-4.226v-.021c-.042-.286-.088-.575-.12-.857a19.2 19.2 0 0 1 1.958-.123"/>
            <path fill="#1E5F30" d="M469.984 234.273a24.5 24.5 0 0 1 2.095-.141c.007.402.032.81.05 1.216-.646.014-1.31.046-1.955.123-.067-.398-.12-.803-.19-1.198"/>
            <path fill="#1E5F30" d="M500.023 205.607c-3.453 2.4-8.112 3.926-11.975 5.368-2.08.814-3.932 2.016-5.858 3.059-1.298.715-2.374 1.794-3.584 2.661-.01.021-.035.032-.05.046-1.283 1.054-2.334 2.185-3.177 3.376-2.067 2.88-2.949 6.094-3.224 9.47 0 0-.01.011 0 .018a29.938 29.938 0 0 0-.102 1.872c-.021.87-.01 1.762.024 2.654-.694.021-1.396.063-2.095.141-.13-.846-.264-1.685-.38-2.52a80.646 80.646 0 0 1-.434-3.43c-.378-3.51-1.164-6.742-2.466-9.703a26.145 26.145 0 0 0-3.763-6.132c-.307-.698-.984-1.368-1.785-1.985-.007 0-.007-.01-.007-.01-1.189-.913-2.61-1.703-3.38-2.245-2.017-1.438-3.777-3.289-6.03-4.244-1.28-.571-2.734-.892-4.021-1.375-.237-.077-2.879-.715-2.879-.715a8.56 8.56 0 0 1 1.92-.219c3.678 0 7.95 2.076 10.602 3.99 2.391 1.674 5.57 3.423 7.354 5.724l-.039.042c.536.56 1.051 1.22 1.534 1.925 1.676 2.453 2.984 5.586 3.82 8.335v.015c.19.969.43 1.878.723 2.749 0 .02 0 .031.014.042.07.32.134.627.177.916.024-.077.046-.158.067-.232a29.1 29.1 0 0 1 1.188-3.19c.858-1.917 1.937-3.676 3.337-5.206a16.54 16.54 0 0 1 3.28-2.77c1.122-.571 3.171-2.09 4.459-2.728 1.77-.97 3.894-1.89 5.82-2.53 1.774-.65 3.258-1.548 5.11-1.869 1.926-.409 3.806-1.3 5.82-1.3"/>
            <path fill="#1E5F30" d="M472.705 204.566a31.688 31.688 0 0 0-1.203 6.53c-.317 3.63-.074 7.381.695 10.913a29.085 29.085 0 0 0-1.185 3.19c-.092-.22-.166-.452-.247-.684-.014-.007-.014-.022-.014-.043a28.961 28.961 0 0 0-.723-2.749v-.01c-.603-3.06-.702-6.5-.381-9.802.226-2.485.712-4.892 1.386-6.997v-.02c.254-1.287.949-2.63 1.277-3.87.56-2.323 1.513-5.048 1.679-7.459.159 3.85-.173 7.448-1.383 10.965l.099.036z"/>
            <path fill="#250F8A" d="M236.76 248.998c.013 2.048.747 4.41 1.343 6.22l-31.222-15.94c1.065-1.53 1.947-3.212 2.846-4.893l27.046 14.18c-.014.151-.014.285-.014.433"/>
            <path fill="#644BD9" d="M237.159 248.764l46.198-25.976c.628 1.082 1.894 4.01 2.65 5.558l-47.903 26.875c-.596-1.815-1.33-4.177-1.344-6.224l.399-.233z"/>
            <path fill="#5740C0" d="M262.103 210.937c6.797 3.708 21.431 11.75 21.431 11.75l-.18.1-46.194 25.976-.388-.198-27.046-14.18c.074-.116.13-.232.204-.348v-.018c2.847-1.445 19.156-9.784 32.14-16.407-1.697 4.49-4.417 8.34-8.663 11.614l10.38 5.526.148-.098 12.493-7.525-.074-.099c3.252-4.811 4.935-10.352 5.75-16.093"/>
            <path fill="#250F8A" d="M242.07 217.61c1.849-4.824 2.501-10.365 2.58-16.607l5.117-2.88c.846 11.9 1.245 25.962-5.834 36.529l-.148.099-10.377-5.527c4.247-3.274 6.966-7.12 8.663-11.613"/>
            <path fill="#644BD9" d="M262.103 210.937c-.814 5.741-2.497 11.282-5.749 16.093l.074.099-12.493 7.525c7.076-10.567 6.677-24.634 5.83-36.529l12.557-7.06c.43 6.327.699 13.232-.219 19.872"/>
            <path fill="#250F8A" d="M199.504 154.423l85.332-48.96 11.59-3.443-90.482 51.554h-.014l-6.426.948z"/>
            <path fill="#250F8A" d="M199.504 154.521l6.426-.948-1.481.85-.399 69.412-4.828-7.454z"/>
            <path fill="#5740C0" d="M290.448 171.464l.247-60.742-79.77 45.463-.345 60.196 79.868-44.917zm-84.503-17.89l90.482-51.554-.286 70.026-33.822 19.022-12.553 7.056-5.114 2.88-40.6 22.832.398-69.413 1.481-.85h.014z"/>
            <path fill="#FFF" d="M290.696 110.72l-.247 60.743-79.868 44.917.346-60.196z"/>
            <path fill="#C1BED4" d="M276.625 271.603l-2.938 1.695-1.947-1.364 2.935-1.695zM269.075 273.467l1.95 1.364-2.881 1.663-1.947-1.364z"/>
            <path fill="#CAD0E9" d="M327.517 252.312l-59.174 34.083-.22-.13-.33-2.563.116.081 59.608-34.248z"/>
            <path fill="#9096BA" d="M287.844 268.457l3.249-1.864 3.1-1.78 2.864-1.664 2.663-1.53 2.963-1.72 3.082-1.776 2.9-1.664 2.645-1.533 2.317-1.328 3.08-1.78 2.864-1.664 2.666-1.537 2.13-1.226 3.15 2.146-59.608 34.245-.117-.081-2.846-2.016 2.73-1.58 3.097-1.783 2.885-1.663 2.649-1.526 2.93-1.7 3.084-1.765 2.881-1.681z"/>
            <path fill="#9096BA" d="M321.717 245.558l2.652 1.832-2.134 1.227-2.613-1.843z"/>
            <path fill="#C1BED4" d="M319.623 246.773l2.613 1.843-2.666 1.537-2.614-1.844z"/>
            <path fill="#9096BA" d="M321.717 245.558l-2.095 1.216-1.947-1.364 2.077-1.199z"/>
            <path fill="#9096BA" d="M319.754 244.212l-2.081 1.198-2.614-1.832 2.05-1.181z"/>
            <path fill="#99AFD4" d="M319.623 246.773l-2.667 1.536-1.95-1.353 2.666-1.547z"/>
            <path fill="#99AFD4" d="M316.957 248.308l2.613 1.843-2.864 1.667-2.627-1.847z"/>
            <path fill="#C1BED4" d="M317.673 245.41l-2.666 1.543-2.614-1.843 2.666-1.533z"/>
            <path fill="#9096BA" d="M317.108 242.396l-2.049 1.18-2.05-1.43 2.036-1.163z"/>
            <path fill="#C1BED4" d="M316.957 248.308l-2.878 1.663-1.933-1.367 2.86-1.65zM314.077 249.97l2.628 1.847-3.08 1.78-2.63-1.85z"/>
            <path fill="#99AFD4" d="M315.059 243.579l-2.667 1.53-2.028-1.432 2.645-1.53z"/>
            <path fill="#9096BA" d="M312.393 239.15l2.652 1.833-2.035 1.163-2.613-1.83z"/>
            <path fill="#99AFD4" d="M312.393 245.109l2.614 1.846-2.861 1.65-2.635-1.833zM314.077 249.97l-3.083 1.777-1.947-1.347 3.097-1.794z"/>
            <path fill="#9096BA" d="M313.626 253.598l-2.314 1.329-2.631-1.843 2.314-1.336z"/>
            <path fill="#C1BED4" d="M313.01 242.147l-2.646 1.53-2.635-1.83 2.667-1.533z"/>
            <path fill="#9096BA" d="M312.393 239.15l-1.996 1.167-2.032-1.413 1.979-1.15z"/>
            <path fill="#C1BED4" d="M312.393 245.109l-2.882 1.663-2.031-1.43 2.885-1.664zM312.145 248.606l-3.097 1.794-2.617-1.847 3.079-1.78z"/>
            <path fill="#D8D6CC" d="M311.311 254.927l-2.645 1.533-2.635-1.85 2.649-1.527z"/>
            <path fill="#9096BA" d="M310.994 251.746l-2.313 1.336-1.93-1.346 2.296-1.336z"/>
            <path fill="#99AFD4" d="M310.395 240.316l-2.667 1.533-2.01-1.417 2.649-1.526z"/>
            <path fill="#99AFD4" d="M310.364 243.677l-2.882 1.667-2.63-1.833 2.877-1.664z"/>
            <path fill="#9096BA" d="M310.343 237.753l-1.978 1.153-2.618-1.854 1.955-1.114z"/>
            <path fill="#99AFD4" d="M309.51 246.773l-3.08 1.78-2.049-1.432 3.1-1.78z"/>
            <path fill="#9096BA" d="M306.43 248.552l2.617 1.847-2.296 1.336-2.634-1.85z"/>
            <path fill="#C1BED4" d="M308.68 253.082l-2.65 1.53-1.946-1.347 2.666-1.53z"/>
            <path fill="#D8D6CC" d="M308.666 256.46l-2.9 1.664-2.613-1.85 2.878-1.664z"/>
            <path fill="#C1BED4" d="M305.749 237.052l2.617 1.85-2.65 1.53-2.63-1.846zM307.729 241.847l-2.878 1.664-2.018-1.413 2.886-1.664z"/>
            <path fill="#9096BA" d="M307.702 235.94l-1.955 1.113-2.232-1.547 1.93-1.114z"/>
            <path fill="#C1BED4" d="M307.481 245.343l-3.1 1.78-2.614-1.83 3.083-1.783zM306.75 251.734l-2.666 1.53-2.614-1.85 2.646-1.53z"/>
            <path fill="#9096BA" d="M306.43 248.552l-2.313 1.332-2.029-1.43 2.293-1.333z"/>
            <path fill="#C1BED4" d="M306.03 254.61l-2.877 1.664-1.95-1.347 2.88-1.663z"/>
            <path fill="#D8D6CC" d="M303.151 256.274l2.614 1.847-3.083 1.78-2.631-1.83z"/>
            <path fill="#9096BA" d="M305.749 237.052l-2.663 1.534-2.219-1.548 2.649-1.53z"/>
            <path fill="#99AFD4" d="M305.717 240.433l-2.881 1.663-2.635-1.847 2.885-1.663z"/>
            <path fill="#9096BA" d="M305.445 234.392l-1.93 1.114-2.613-1.847 1.88-1.082z"/>
            <path fill="#99AFD4" d="M302.834 242.097l2.014 1.413-3.082 1.784-2.032-1.417z"/>
            <path fill="#9096BA" d="M304.381 247.122l-2.293 1.332-2.634-1.832 2.313-1.33z"/>
            <path fill="#C1BED4" d="M304.116 249.884l-2.646 1.53-2.031-1.431 2.649-1.53z"/>
            <path fill="#99AFD4" d="M301.47 251.414l2.614 1.85-2.882 1.664-2.613-1.847z"/>
            <path fill="#C1BED4" d="M300.902 233.66l2.614 1.847-2.65 1.53-2.63-1.847z"/>
            <path fill="#99AFD4" d="M303.151 256.274l-3.1 1.798-1.933-1.364 3.083-1.78z"/>
            <path fill="#9096BA" d="M303.086 238.586l-2.885 1.664-2.215-1.548 2.881-1.663z"/>
            <path fill="#C1BED4" d="M302.834 242.097l-3.1 1.78-2.61-1.844 3.076-1.783z"/>
            <path fill="#9096BA" d="M292.274 238.653l-2.293 1.315-2.652 1.53-1.15-.783 15.456-8.935 1.146.797-1.88 1.082-2.666 1.53-2.875 1.663zM302.683 259.9l-2.963 1.72-2.617-1.85 2.949-1.7z"/>
            <path fill="#C1BED4" d="M302.087 248.454l-2.649 1.53-2.628-1.83 2.642-1.533z"/>
            <path fill="#9096BA" d="M301.767 245.293l-2.314 1.328-2.014-1.413 2.296-1.329z"/>
            <path fill="#C1BED4" d="M301.47 251.414l-2.881 1.667-2.046-1.43 2.896-1.668zM298.587 253.082l2.614 1.843-3.083 1.784-2.627-1.847z"/>
            <path fill="#9096BA" d="M300.868 237.037l-2.882 1.664-2.628-1.847 2.878-1.664zM300.2 240.25l-3.076 1.783-2.233-1.554 3.093-1.776z"/>
            <path fill="#C1BED4" d="M298.119 256.708l1.933 1.364-2.949 1.699-1.95-1.35z"/>
            <path fill="#9096BA" d="M297.124 242.033l2.61 1.843-2.293 1.333-2.635-1.85z"/>
            <path fill="#D8D6CC" d="M297.103 259.77l2.617 1.85-2.663 1.53-2.614-1.833z"/>
            <path fill="#C1BED4" d="M297.44 245.208l2.01 1.414-2.641 1.533-2.017-1.417z"/>
            <path fill="#99AFD4" d="M299.438 249.984l-2.896 1.667-2.613-1.829 2.881-1.667z"/>
            <path fill="#99AFD4" d="M298.587 253.082l-3.096 1.78-2.036-1.435 3.087-1.776z"/>
            <path fill="#99AFD4" d="M298.119 256.708l-2.966 1.713-2.628-1.847 2.966-1.713z"/>
            <path fill="#C1BED4" d="M297.985 238.701l-3.094 1.78-2.617-1.83 3.086-1.797zM294.805 243.36l2.635 1.847-2.649 1.53-2.628-1.844z"/>
            <path fill="#9096BA" d="M297.124 242.033l-2.318 1.325-2.211-1.543 2.296-1.333z"/>
            <path fill="#99AFD4" d="M297.103 259.77l-2.66 1.547-1.95-1.364 2.66-1.534z"/>
            <path fill="#D8D6CC" d="M297.058 263.15l-2.864 1.663-2.631-1.847 2.881-1.65z"/>
            <path fill="#C1BED4" d="M294.792 246.738l2.017 1.417-2.882 1.667-2.035-1.417z"/>
            <path fill="#C1BED4" d="M296.541 251.65l-3.086 1.776-2.631-1.826 3.104-1.78zM295.49 254.861l-2.965 1.713-2.032-1.427 2.963-1.72zM292.525 256.575l2.628 1.844-2.66 1.533-2.613-1.847z"/>
            <path fill="#D8D6CC" d="M292.274 238.653l2.617 1.83-2.296 1.332-2.614-1.847z"/>
            <path fill="#9096BA" d="M294.805 243.36l-2.642 1.533-2.218-1.547 2.649-1.53z"/>
            <path fill="#99AFD4" d="M294.792 246.738l-2.9 1.667-2.613-1.85 2.885-1.66z"/>
            <path fill="#C1BED4" d="M294.444 261.317l-2.878 1.65-1.933-1.365 2.86-1.65z"/>
            <path fill="#D8D6CC" d="M291.564 262.967l2.628 1.847-3.1 1.78-2.614-1.85z"/>
            <path fill="#C1BED4" d="M293.927 249.82l-3.104 1.78-2.007-1.413 3.076-1.783z"/>
            <path fill="#99AFD4" d="M293.455 253.428l-2.963 1.716-2.627-1.83 2.959-1.716z"/>
            <path fill="#9096BA" d="M289.98 239.966l2.613 1.847-2.648 1.53-2.618-1.847z"/>
            <path fill="#99AFD4" d="M292.525 256.575l-2.645 1.53-2.05-1.413 2.663-1.548zM289.88 258.105l2.613 1.847-2.86 1.65-2.635-1.833z"/>
            <path fill="#9096BA" d="M292.163 244.893l-2.885 1.664-2.215-1.544 2.882-1.667z"/>
            <path fill="#C1BED4" d="M289.277 246.556l2.613 1.847-3.075 1.783-2.617-1.847z"/>
            <path fill="#99AFD4" d="M291.564 262.967l-3.086 1.777-1.95-1.347 3.103-1.797z"/>
            <path fill="#D8D6CC" d="M288.478 264.743l2.614 1.85-3.249 1.865-2.614-1.833z"/>
            <path fill="#C1BED4" d="M288.815 250.185l2.007 1.414-2.959 1.716-2.014-1.417z"/>
            <path fill="#C1BED4" d="M290.493 255.145l-2.663 1.544-2.614-1.843 2.65-1.534zM287.327 241.496l2.618 1.847-2.882 1.67-2.628-1.853zM289.88 258.105l-2.882 1.664-2.032-1.431 2.864-1.646z"/>
            <path fill="#C1BED4" d="M289.632 261.6l-3.104 1.795-2.61-1.844 3.079-1.783z"/>
            <path fill="#9096BA" d="M289.277 246.556l-3.08 1.783-2.236-1.55 3.1-1.777z"/>
            <path fill="#99AFD4" d="M286.198 248.339l2.617 1.847-2.967 1.713-2.63-1.85z"/>
            <path fill="#C1BED4" d="M288.478 264.743l-3.249 1.882-1.947-1.364 3.245-1.864z"/>
            <path fill="#99AFD4" d="M285.85 251.9l2.014 1.413-2.649 1.533-2.032-1.417z"/>
            <path fill="#D8D6CC" d="M287.844 268.457l-2.642 1.53-2.617-1.83 2.646-1.533z"/>
            <path fill="#99AFD4" d="M285.216 254.846l2.614 1.843-2.86 1.65-2.632-1.83z"/>
            <path fill="#9096BA" d="M284.434 243.16l-3.086 1.798-2.98 1.713-1.112-.797 8.924-5.156 1.146.779z"/>
            <path fill="#D8D6CC" d="M287.062 245.012l-3.1 1.776-2.614-1.829 3.086-1.797z"/>
            <path fill="#99AFD4" d="M286.997 259.77l-3.08 1.78-2.049-1.432 3.1-1.78zM283.917 261.55l2.61 1.844-3.245 1.868-2.613-1.83z"/>
            <path fill="#9096BA" d="M286.198 248.339l-2.98 1.71-2.22-1.544 2.963-1.717z"/>
            <path fill="#C1BED4" d="M285.85 251.9l-2.667 1.529-2.617-1.847 2.653-1.533z"/>
            <path fill="#99AFD4" d="M285.23 266.626l-2.646 1.53-1.947-1.365 2.646-1.53z"/>
            <path fill="#C1BED4" d="M285.216 254.846l-2.878 1.663-2.021-1.43 2.867-1.65z"/>
            <path fill="#D8D6CC" d="M285.202 269.987l-2.881 1.681-2.618-1.847 2.882-1.667z"/>
            <path fill="#C1BED4" d="M284.968 258.34l-3.1 1.78-2.632-1.83 3.1-1.783z"/>
            <path fill="#9096BA" d="M281.348 244.959l2.613 1.829-2.962 1.717-2.632-1.833z"/>
            <path fill="#C1BED4" d="M283.917 261.55l-3.248 1.883-2.05-1.435 3.25-1.878zM283.284 265.263l-2.646 1.53-2.613-1.83 2.645-1.53z"/>
            <path fill="#9096BA" d="M283.218 250.05l-2.652 1.533-2.212-1.548 2.646-1.53z"/>
            <path fill="#99AFD4" d="M280.566 251.581l2.617 1.847-2.864 1.65-2.635-1.833z"/>
            <path fill="#C1BED4" d="M282.584 268.156l-2.878 1.667-1.95-1.368 2.881-1.663z"/>
            <path fill="#99AFD4" d="M280.318 255.078l2.017 1.431-3.1 1.784-2.01-1.42z"/>
            <path fill="#D8D6CC" d="M279.705 269.822l2.614 1.847-3.083 1.762-2.61-1.83z"/>
            <path fill="#99AFD4" d="M281.868 260.119l-3.248 1.882-2.614-1.847 3.23-1.864z"/>
            <path fill="#C1BED4" d="M281 248.504l-2.645 1.533-2.632-1.833 2.646-1.533z"/>
            <path fill="#99AFD4" d="M280.67 263.434l-2.646 1.53-2.05-1.432L278.62 262z"/>
            <path fill="#99AFD4" d="M280.638 266.793l-2.881 1.663-2.632-1.829 2.9-1.667z"/>
            <path fill="#9096BA" d="M280.566 251.581l-2.882 1.664-2.211-1.548 2.881-1.66z"/>
            <path fill="#C1BED4" d="M280.318 255.078l-3.093 1.794-2.635-1.843 3.093-1.784z"/>
            <path fill="#99AFD4" d="M279.705 269.822l-3.08 1.78-1.95-1.36 3.08-1.784z"/>
            <path fill="#C1BED4" d="M277.225 256.873l2.01 1.417-3.23 1.865-2.032-1.414z"/>
            <path fill="#D8D6CC" d="M279.236 273.432l-2.927 1.7-2.62-1.834 2.937-1.695z"/>
            <path fill="#C1BED4" d="M276.005 260.153L278.62 262l-2.645 1.53-2.618-1.847z"/>
            <path fill="#9096BA" d="M277.256 245.873l1.11.8-2.645 1.533-1.132-.8z"/>
            <path fill="#D8D6CC" d="M278.355 250.036l-2.882 1.663-2.617-1.847 2.867-1.65z"/>
            <path fill="#C1BED4" d="M278.024 264.962l-2.9 1.663-2.031-1.43 2.882-1.664z"/>
            <path fill="#C1BED4" d="M277.755 268.457l-3.08 1.783-2.613-1.836 3.062-1.78z"/>
            <path fill="#9096BA" d="M275.472 251.698l2.211 1.547-3.093 1.784-2.215-1.547z"/>
            <path fill="#99AFD4" d="M277.225 256.873l-3.252 1.868-2.614-1.833 3.231-1.878z"/>
            <path fill="#D8D6CC" d="M276.309 275.13l-2.653 1.53-2.631-1.829 2.663-1.533z"/>
            <path fill="#99AFD4" d="M276.005 260.153l-2.649 1.53-2.035-1.413 2.653-1.53zM273.357 261.683l2.617 1.847-2.882 1.667-2.631-1.85z"/>
            <path fill="#9096BA" d="M272.857 249.852l-3.096 1.797-3.231 1.865-2.667 1.53-2.878 1.663-3.083 1.783-2.927 1.696-2.667 1.53-2.864 1.663-3.1 1.783-2.61 1.512-1.115-.782 31.97-18.486 1.132.8z"/>
            <path fill="#9096BA" d="M272.857 249.852l2.614 1.846-3.097 1.784-2.613-1.833z"/>
            <path fill="#99AFD4" d="M273.092 265.196l2.031 1.43-3.061 1.78-2.05-1.434z"/>
            <path fill="#99AFD4" d="M274.676 270.24l-2.935 1.692-2.627-1.844 2.948-1.685z"/>
            <path fill="#9096BA" d="M274.59 255.028l-3.231 1.882-2.215-1.55 3.23-1.88z"/>
            <path fill="#C1BED4" d="M273.973 258.74l-2.652 1.53-2.614-1.83 2.653-1.533z"/>
            <path fill="#99AFD4" d="M273.687 273.3l-2.663 1.533-1.95-1.368 2.666-1.533z"/>
            <path fill="#D8D6CC" d="M273.656 276.66l-2.881 1.663-2.628-1.826 2.878-1.667z"/>
            <path fill="#C1BED4" d="M273.357 261.683l-2.896 1.664-2.018-1.41 2.879-1.667zM273.092 265.196l-3.08 1.776-2.617-1.843 3.065-1.78zM272.375 253.481l-3.23 1.879-2.614-1.847 3.23-1.865zM272.062 268.405l-2.95 1.685-2.034-1.431 2.934-1.685zM271.741 271.933l-2.666 1.534-2.61-1.83 2.649-1.547z"/>
            <path fill="#9096BA" d="M269.144 255.36l2.215 1.548-2.652 1.533-2.212-1.547z"/>
            <path fill="#99AFD4" d="M271.32 260.268l-2.874 1.668-2.63-1.833 2.891-1.664z"/>
            <path fill="#D8D6CC" d="M270.773 278.323l-3.097 1.784-2.613-1.83 3.082-1.783z"/>
            <path fill="#99AFD4" d="M270.46 263.348l-3.065 1.783-2.028-1.417 3.079-1.776z"/>
            <path fill="#99AFD4" d="M267.394 265.13l2.617 1.844-2.934 1.684-2.628-1.832z"/>
            <path fill="#D8D6CC" d="M266.53 253.512l2.613 1.847-2.649 1.533-2.63-1.847z"/>
            <path fill="#99AFD4" d="M269.113 270.089l-2.649 1.547-2.05-1.431 2.664-1.547zM266.464 271.636l2.61 1.832-2.878 1.664-2.613-1.85z"/>
            <path fill="#9096BA" d="M268.707 258.441l-2.89 1.664-2.204-1.548 2.882-1.663z"/>
            <path fill="#C1BED4" d="M268.445 261.936l-3.08 1.777-2.616-1.83 3.068-1.78z"/>
            <path fill="#99AFD4" d="M266.196 275.13l1.95 1.365-3.083 1.783-1.95-1.367z"/>
            <path fill="#A0ACD7" d="M268.125 286.266l-5.496-3.246 2.318-1.333 2.846 2.013z"/>
            <path fill="#9096BA" d="M267.677 280.106l-2.73 1.58-2.614-1.847 2.73-1.562z"/>
            <path fill="#C1BED4" d="M267.394 265.13l-2.945 1.696-2.018-1.414 2.935-1.699zM267.077 268.658l-2.663 1.548-2.613-1.847 2.649-1.533z"/>
            <path fill="#9096BA" d="M263.864 255.044l2.631 1.847-2.882 1.667-2.627-1.85z"/>
            <path fill="#C1BED4" d="M264.415 270.206l2.049 1.43-2.882 1.647-2.049-1.431zM263.581 273.283l2.614 1.846-3.083 1.78-2.631-1.829z"/>
            <path fill="#9096BA" d="M263.612 258.558l2.205 1.544-3.069 1.783-2.211-1.565z"/>
            <path fill="#99AFD4" d="M265.365 263.712l-2.934 1.7-2.628-1.848 2.945-1.681z"/>
            <path fill="#9096BA" d="M265.062 278.279l-2.726 1.561-1.933-1.368 2.709-1.56z"/>
            <path fill="#A0ACD7" d="M262.334 279.84l2.61 1.847-2.313 1.332-4.977-2.947 2.748-1.6z"/>
            <path fill="#99AFD4" d="M262.43 265.41l2.018 1.418-2.649 1.53-2.031-1.414z"/>
            <path fill="#99AFD4" d="M261.8 268.357l2.614 1.847-2.882 1.646-2.613-1.83z"/>
            <path fill="#C1BED4" d="M260.984 256.708l2.628 1.85-3.076 1.76-2.634-1.83z"/>
            <path fill="#99AFD4" d="M263.581 273.283l-3.1 1.797-2.028-1.43 3.08-1.798z"/>
            <path fill="#9096BA" d="M263.113 276.91l-2.712 1.562-2.596-1.847 2.677-1.544zM260.536 260.318l2.212 1.565-2.945 1.682-2.194-1.551z"/>
            <path fill="#C1BED4" d="M262.43 265.41l-2.662 1.534-2.614-1.83 2.65-1.547zM261.8 268.357l-2.881 1.664-2.032-1.413 2.882-1.664zM261.532 271.85l-3.08 1.798-2.63-1.846 3.096-1.78z"/>
            <path fill="#D8D6CC" d="M260.536 260.318l-2.927 1.696-2.635-1.83 2.928-1.695z"/>
            <path fill="#9096BA" d="M258.453 273.65l2.028 1.43-2.677 1.547-2.05-1.43z"/>
            <path fill="#A0ACD7" d="M257.805 276.626l2.596 1.847-2.748 1.6-15.036-8.903v-5.276l1.118.782 2.593 1.847 2.197 1.548 2.617 1.846 2.018 1.431 2.596 1.847z"/>
            <path fill="#9096BA" d="M259.803 263.566l-2.65 1.547-2.214-1.547 2.67-1.55z"/>
            <path fill="#99AFD4" d="M259.768 266.944l-2.878 1.664-2.617-1.847 2.882-1.646zM258.917 270.021l-3.096 1.78-2.032-1.413 3.1-1.78z"/>
            <path fill="#9096BA" d="M258.453 273.65l-2.699 1.546-2.596-1.846 2.663-1.548zM257.608 262.015l-2.67 1.551-2.63-1.85 2.666-1.53zM257.154 265.115l-2.878 1.646-2.219-1.551 2.882-1.643z"/>
            <path fill="#C1BED4" d="M254.274 266.762l2.614 1.843-3.1 1.784-2.614-1.833z"/>
            <path fill="#9096BA" d="M255.82 271.8l-2.662 1.548-2.014-1.43 2.645-1.53z"/>
            <path fill="#C1BED4" d="M252.308 261.716l2.63 1.85-2.88 1.646-2.614-1.832z"/>
            <path fill="#9096BA" d="M254.274 266.762l-3.1 1.794-2.219-1.548 3.1-1.797zM251.174 268.557l2.614 1.833-2.645 1.53-2.618-1.851z"/>
            <path fill="#D8D6CC" d="M252.056 265.211l-3.1 1.798-2.61-1.847 3.1-1.783z"/>
            <path fill="#9096BA" d="M248.956 267.01l2.219 1.547-2.65 1.512-2.197-1.544zM246.345 265.161l2.61 1.847-2.627 1.516-2.593-1.847z"/>
            <path fill="#BCBCBC" d="M220.012 321.437v.977l.857-.487c-.021-.032-.05-.05-.084-.084-.011 0-.018-.007-.04-.018-.21-.113-.592-.307-.733-.388M181.617 296.483c-.081.134-.17.275-.222.416.095.275.504.522.758.5a2.5 2.5 0 0 1 .183-.327c.55-.885 1.34-1.445 2.145-1.618a2.219 2.219 0 0 1 1.834.339c.416.296.73.719.938 1.23.363.2.744.419 1.154.641l.007-.018c-.134-1.19-.674-2.245-1.549-2.85-1.08-.755-2.451-.685-3.636.048a5.119 5.119 0 0 0-1.612 1.64M187.32 299.58a4.142 4.142 0 0 0-.313.563c.039.363.451.476.776.487.063-.162.159-.318.254-.47.508-.813 1.23-1.363 1.975-1.578.684-.205 1.407-.12 1.996.296.378.275.822.765.95 1.375.377.215.765.437 1.167.652-.096-1.262-.646-2.383-1.563-3.025-1.093-.754-2.469-.683-3.657.082-.604.366-1.143.916-1.584 1.617"/>
            <path fill="#FA7564" d="M216.23 316.956c-.328 0-.712-.205-.769-.54.106-.222.208-.44.339-.652.451-.711 1.009-1.275 1.622-1.638-.176-.103-.349-.205-.532-.307-.374-.215-.762-.437-1.175-.67-.843-.48-1.767-1-2.75-1.561-.812.173-1.616.744-2.177 1.642a6.557 6.557 0 0 0-.258.466v.01c-.246.064-.75-.162-.807-.426.106-.215.215-.434.349-.645.473-.751 1.069-1.333 1.721-1.706-.162-.092-.335-.198-.504-.29-.346-.2-.716-.405-1.087-.62-1.001-.57-2.056-1.16-3.135-1.772-.716.222-1.386.764-1.88 1.55a4.61 4.61 0 0 0-.335.642v.017c-.293 0-.695-.162-.811-.437l.02-.01c.11-.275.255-.55.413-.804.42-.673.942-1.205 1.51-1.568a15.937 15.937 0 0 1-.413-.247c-.384-.2-.758-.416-1.132-.63a487.27 487.27 0 0 0-2.952-1.671c-.762.193-1.496.743-2.014 1.579a3.836 3.836 0 0 0-.268.521l-.007-.01c-.272.08-.759-.155-.766-.48v-.014c.103-.2.201-.416.325-.599.44-.712.991-1.262 1.598-1.639-.173-.092-.332-.194-.508-.282-.35-.204-.713-.409-1.069-.613-1.08-.613-2.14-1.213-3.178-1.805-.705.236-1.368.765-1.859 1.54-.098.173-.2.37-.292.56-.293.071-.776-.182-.787-.475.116-.225.236-.462.367-.677.42-.659.927-1.187 1.502-1.557a4.57 4.57 0 0 1-.409-.233c-.398-.215-.786-.437-1.167-.652a732.823 732.823 0 0 0-2.945-1.67c-.745.214-1.468.764-1.972 1.575-.099.155-.19.31-.254.472-.325-.01-.737-.123-.776-.49.088-.194.194-.388.314-.56.44-.702.98-1.252 1.584-1.622a9.393 9.393 0 0 1-.501-.292c-.41-.226-.787-.44-1.154-.642-1.153-.652-2.088-1.19-2.772-1.568-.804.173-1.59.73-2.14 1.618-.071.102-.135.215-.184.327-.254.018-.667-.225-.762-.5.056-.141.14-.285.226-.42a5.12 5.12 0 0 1 1.611-1.638l-.014-.01c-1.682.887-24.4 12.797-26.88 14.097a.86.86 0 0 0-.194.134l38.181 22.029 26.4-15.068c-.03-.028-.07-.067-.108-.098a.725.725 0 0 1-.085-.053c-.335-.19-1.02-.578-1.972-1.121-.762.208-1.506.765-2.031 1.614a3.39 3.39 0 0 0-.297.56v.029z"/>
            <path fill="#BCBCBC" d="M201.488 305.09c.674-.194 1.379-.113 1.972.296.455.324.78.814.98 1.374.37.215.748.43 1.129.631-.11-1.251-.656-2.361-1.563-3.006-1.079-.755-2.451-.68-3.65.063-.607.377-1.157.927-1.598 1.64-.127.182-.222.397-.325.598v.014c.007.325.49.56.766.48l.007.01c.074-.187.162-.349.268-.521.518-.84 1.249-1.386 2.014-1.58"/>
            <path fill="#EC6959" d="M156.772 311.905l37.317 21.531.952-.539 24.972-14.25.515-.292s.868-1.636.198-2.33l-26.404 15.067-38.182-22.028c-.93.712-.264 2.323-.264 2.323l.896.518z"/>
            <path fill="#EC6959" d="M220.012 322.413L194.6 336.9l-.145.085-38.054-21.976-.123-.06c-.938.712-.268 2.326-.268 2.326l38.213 22.05 26.443-15.089s.857-1.603.204-2.308l-.857.486z"/>
            <path fill="#E0EBEF" d="M156.53 314.786c-.042.08-.084.162-.13.222l38.054 21.975.145-.084-.088-.162c.956-1.03.843-2.556.529-3.842l-.952.543-37.317-21.532c.2.874.127 2.136-.24 2.88"/>
            <path fill="#BCBCBC" d="M195.601 301.748c.72-.254 1.496-.194 2.127.257.511.356.86.906 1.048 1.547.36.205.72.41 1.072.613-.07-1.314-.621-2.498-1.566-3.168-1.115-.776-2.55-.673-3.753.14-.575.371-1.08.9-1.5 1.559a8.291 8.291 0 0 0-.366.673c.01.292.494.55.787.48a7.6 7.6 0 0 1 .292-.561c.487-.776 1.154-1.304 1.86-1.54"/>
            <path fill="#FFF" d="M194.51 336.735l.088.166 25.413-14.486v-3.768l-24.972 14.25c.313 1.283.426 2.81-.53 3.838"/>
            <path fill="#BCBCBC" d="M205.983 307.637a4.998 4.998 0 0 0-1.51 1.568 5.086 5.086 0 0 0-.412.804l-.022.01c.117.275.522.437.815.437v-.017c.092-.226.205-.437.332-.642.494-.786 1.164-1.328 1.883-1.55.72-.244 1.475-.173 2.092.264.508.338.864.878 1.04 1.508.374.215.741.42 1.087.62-.074-1.303-.625-2.473-1.573-3.136-1.111-.765-2.526-.67-3.732.134M211.794 310.927c-.656.377-1.249.956-1.721 1.71a6.018 6.018 0 0 0-.35.641c.057.265.561.49.808.43v-.014c.081-.158.162-.314.258-.465.56-.899 1.365-1.47 2.176-1.643.631-.13 1.273-.028 1.816.346.42.3.738.715.931 1.216.417.232.805.455 1.175.67v-.008c-.127-1.201-.67-2.262-1.545-2.872-1.047-.744-2.384-.694-3.548-.01M217.422 314.125c-.614.366-1.17.927-1.622 1.639-.13.211-.233.43-.339.652.056.335.44.54.769.54v-.03c.085-.193.183-.387.296-.56.53-.845 1.27-1.406 2.032-1.61.68-.19 1.382-.102 1.964.306 1.27.9 1.591 3.024.632 4.787a4.103 4.103 0 0 1-1.143 1.332v.257c.141.081.526.275.734.388.02.01.028.018.038.018v-.018a5.625 5.625 0 0 0 1.133-1.46c1.266-2.332.85-5.124-.847-6.305-1.08-.75-2.455-.68-3.647.064"/>
            <path fill="#FFF" d="M188.475 285.677c-1.542.899-1.298 2.446.532 3.475l22.927 12.703c1.848 1.011 4.578 1.12 6.112.218l13.42-7.817c1.535-.902 1.295-2.45-.539-3.465l-22.926-12.702c-1.83-1.026-4.575-1.121-6.11-.222l-13.416 7.81z"/>
            <path fill="#250F8A" d="M185.743 291.837l25.836 14.327c2.074 1.142 5.146 1.255 6.889.24l15.12-8.801c1.193-.705 2.3-4.075 1.658-5.058.321.832-.003 1.667-1.026 2.252l-15.117 8.815c-1.736 1.001-4.811.902-6.885-.25l-25.833-14.317c-1.467-.814-2.035-1.92-1.615-2.862h-.01c-1.278 1.586-.886 4.62.983 5.654"/>
            <path fill="#5740C0" d="M233.621 290.897c.85.469 1.397 1.043 1.623 1.628 0 .014.003.014.003.021.321.829-.003 1.664-1.026 2.253l-15.118 8.815c-1.735 1-4.81.898-6.884-.25l-25.837-14.317c-1.467-.815-2.031-1.925-1.615-2.866.173-.391.504-.754 1.009-1.043l15.12-8.808c1.729-1.012 4.811-.899 6.885.24l25.84 14.327zm-45.147-5.22c-1.538.899-1.298 2.446.536 3.475l22.926 12.703c1.845 1.011 4.575 1.12 6.11.218l13.424-7.817c1.53-.902 1.29-2.45-.544-3.465L208 278.09c-1.83-1.026-4.575-1.121-6.109-.222l-13.417 7.81z"/>
            <path fill="#000" d="M419.643 417.865a5.07 5.07 0 0 1-5.068 5.065 5.062 5.062 0 0 1-5.076-5.065 5.08 5.08 0 0 1 1.266-3.362c.081-.063.141-.144.201-.208l6.695-.451a5.063 5.063 0 0 1 1.982 4.021"/>
            <path fill="#E9F1F4" d="M410.384 414.334c-3.544-1.494-7.438-2.791-10.362-3.119-4.698-.49-13.862-.49-19.05.754a37.788 37.788 0 0 0-4.748-3.225c19.445-5.713 36.492 2.288 41.874 5.062l-.437.038-6.695.451-.582.04z"/>
            <path fill="#000" d="M323.574 412.789a4.78 4.78 0 0 1 .596 2.365 5.082 5.082 0 0 1-5.08 5.079c-2.79 0-5.068-2.291-5.068-5.08 0-1.307.505-2.498 1.323-3.393l8.077.711c.05.103.113.212.152.318"/>
            <path fill="#E9F1F4" d="M318.917 410.089c17.025-5.34 35.779-3.303 40.03-2.26a51.328 51.328 0 0 0-6.092 3.701c-5.242-1.28-11.865-.782-17.114-.116-3.523.345-7.336.662-11.057 1.202l-1.263-.145-8.077-.712-.886-.07c.586-.226 1.14-.476 1.708-.66.899-.359 1.823-.659 2.75-.94"/>
            <path fill="#250F8A" d="M328.764 344.185c.374 1.653.819 3.468 1.535 4.79l10.137 4.797c.384 4.339 1.333 8.635 1.862 12.956.046.25.078.49.092.716.19 1.533.402 3.464.624 5.604.17 1.603.37 3.31.564 5.012.378 3.133.452 9.999.015 10.115-8.427 2.96-24.772-3.182-25.466-12.413-.036-.54-4.787-49.316-5.453-56.682-.357-3.824.927-9.44 2.246-13.302.085-.25.16-.472.247-.698l2.19.631c-.01.067-.01.134-.01.187-.025.225-.025.437.028.652.018 2.097.367 6.57 2.205 7.36l15.389 6.742 3.492 1.505c.292 2.305.874 4.793 1.654 7.377-2.924-.395-11.033-2.207-13.326-4.304l-1.545.885s-4.063.662-3.745 7.126c.303 6.479 2.962 8.963 2.962 8.963l4.303 1.981z"/>
            <path fill="#061B26" d="M318.128 375.762c.62 8.342 17.85 15.088 25.466 12.413.095.691.229 1.385.36 2.115l-.226.035c-4.871 7.247-33.427-6.298-33.427-6.298-3.277-1.621-6.635-4.025-5.379-7.617l-.148-.18c4.031-3.108 9.35-.475 13.262-2.142.021.623.056 1.187.092 1.674"/>
            <path fill="#050407" d="M304.922 376.41c-1.252 3.592 2.102 5.996 5.379 7.617 0 0 28.555 13.545 33.426 6.299l.226-.036c.282 1.442.24 4.399.24 4.399-1.721 3.13-5.975 3.33-12.97 1.48-1.396-3.01-6.923-5.294-6.923-2.016-6.07-2.298-14.461-6.122-18.197-8.638-3.21-4.854-1.548-9.104-1.33-9.284l.149.18z"/>
            <path fill="#1C2122" d="M394.054 444.518a7.867 7.867 0 0 0-.25-.211c.067 0 .134-.01.176-.039.042.092.06.173.074.25"/>
            <path fill="#000" d="M394.054 444.518a.985.985 0 0 0-.074-.25c2.434-.557 4.776-1.177 6.97-1.89a5.793 5.793 0 0 1 1.086 3.37c0 3.24-2.617 5.886-5.844 5.886-3.235 0-5.855-2.647-5.855-5.886 0-.268.014-.504.052-.768.106-.832.385-1.61.826-2.284.01-.039.025-.081.063-.106.9.448 1.63 1.044 2.526 1.717.095.077.162.134.25.211"/>
            <path fill="#E9F1F4" d="M366.826 410.38c8.468 5.445 20.775 17.189 26.026 30.568.42 1.1.822 2.21 1.126 3.32-.04.028-.106.039-.177.039-.892-.673-1.626-1.27-2.522-1.717-.063-.05-.134-.109-.222-.134-2.977-4.6-7.41-11.543-10.92-16.036-3.622-4.656-9.34-8.276-14.165-11.758 0 0 0-.025.007-.05.145-1.272.162-2.685.162-3.954.233-.106.463-.17.685-.279"/>
            <path fill="#FFF" d="M366.84 410.317c3.692.29 7.237-.331 9.385-1.575a38.7 38.7 0 0 1 4.748 3.225c9.76 7.659 18.771 21.048 20.168 30.357-.057.014-.113.039-.19.056-2.194.712-4.536 1.333-6.974 1.886-.303-1.107-.705-2.22-1.125-3.317-5.252-13.379-17.558-25.123-26.027-30.568v-.064h.015z"/>
            <path fill="#FFF" d="M365.197 410.116c.546.092 1.09.145 1.63.2v.064c-.227.106-.452.173-.685.279-8.8 3.792-18.987 17.295-24.112 27.66-.567 1.188-1.093 2.313-1.534 3.398-.116.275-.233.554-.331.821-.198-.056-.424-.133-.621-.2a66.448 66.448 0 0 1-5.252-1.72c-.632-.237-1.245-.476-1.852-.712 4.025-11.72 10.93-21.645 20.415-28.377a51.303 51.303 0 0 1 6.091-3.697h.022c1.39 1.057 3.562 1.89 6.229 2.284"/>
            <path fill="#E9F1F4" d="M342.029 438.32c5.125-10.367 15.315-23.87 24.111-27.662 0 1.27-.017 2.683-.162 3.955-4.035 3.2-7.685 6.834-11.428 11.13-1.866 2.147-8.43 10.476-10.373 13.87-.085.053-.201.12-.31.172a95.849 95.849 0 0 0-3.372 1.932c.44-1.086.966-2.21 1.534-3.398"/>
            <path fill="#000" d="M339.542 442.338c.201.067.423.144.624.2.096-.267.212-.545.332-.82a95.062 95.062 0 0 1 3.372-1.935.571.571 0 0 1 .116.172 5.746 5.746 0 0 1 1.235 3.585c0 .091 0 .173-.014.278-.145 3.08-2.71 5.555-5.83 5.555-3.228 0-5.852-2.633-5.852-5.833 0-1.058.292-2.048.769-2.922a67.345 67.345 0 0 0 5.248 1.72"/>
            <path fill="#FFF" d="M357.65 404.032c-.723 1.287-.18 2.661 1.287 3.796-4.25-1.047-22.997-3.084-40.026 2.256-.91.278-1.852.585-2.74.945-.582.183-1.133.433-1.708.659a.16.16 0 0 0-.127.052c0-.038 0-.052.036-.091.303-.423.638-.821.98-1.23 1.058-1.202 2.3-2.34 3.739-3.423a72.345 72.345 0 0 1 14.507-4.55 61.893 61.893 0 0 1 4.377-.726c.304-.039.586-.08.875-.12 6.702-.87 13.336-.86 19.664-.264.913.053 1.827.159 2.709.278-1.69.54-2.977 1.375-3.573 2.418"/>
            <path fill="#000" d="M362.148 401.336a4.834 4.834 0 0 0-.913.278h-.015a35.3 35.3 0 0 0-2.705-.278l.014-.117c-.074-.172-.229-.44-.349-.687v-4.324c2.056.634 3.309 2.706 3.968 5.128"/>
            <path fill="#FFF" d="M377.972 407.128c.85-1.459.06-3.017-1.838-4.19l.081-.149c6.589-1.889 21.05-1.455 31.053 2.753 0 0 .014.039.035.039 4.639 2.428 8.328 5.237 10.825 8.223h-.02c-5.397-2.778-22.43-10.775-41.893-5.062.819-.461 1.397-1.008 1.757-1.614"/>
            <path fill="#E9F1F4" d="M357.65 404.032c.596-1.043 1.883-1.878 3.573-2.418h.014c.307-.12.606-.225.91-.278.056-.014.095-.042.151-.053.646-.173 1.348-.289 2.074-.384v1.177c-.832.254-1.534.624-1.943 1.072-.11.12-.187.225-.265.345-.6 1.082.328 2.192 2.208 2.88.568.2 1.231.408 1.986.49 2.247.37 4.54.077 5.936-.635.536-.278.945-.648 1.171-1.03.328-.552.208-1.152-.254-1.666a3.107 3.107 0 0 0-.917-.716v-1.441c.364.08.713.187 1.051.292 1.108.342 2.035.765 2.79 1.27 1.894 1.173 2.688 2.734 1.838 4.19-.36.61-.938 1.152-1.757 1.614-2.144 1.24-5.682 1.861-9.371 1.576h-.01c-.544-.057-1.101-.113-1.637-.201-2.66-.395-4.843-1.23-6.24-2.288h-.021c-1.467-1.135-2.01-2.51-1.287-3.796"/>
            <path fill="#050407" d="M280.225 398.162s28.573 13.538 33.42 6.295l.225-.042c.293 1.445.24 4.402.24 4.402-.254.451-.557.85-.914 1.191-2.12 1.946-6.087 1.868-12.055.293-1.39-3.017-6.917-5.294-6.917-2.02-6.07-2.294-14.468-6.126-18.193-8.635-3.217-4.857-1.552-9.115-1.323-9.287l.145.172c-1.26 3.595 2.102 6.006 5.372 7.631"/>
            <path fill="#3D4445" d="M373.467 405.197c-.226.381-.639.751-1.171 1.03-1.4.715-3.69 1.008-5.94.638-.751-.081-1.414-.293-1.982-.494-1.88-.684-2.808-1.794-2.208-2.876.074-.123.155-.225.264-.349.406-.447 1.111-.818 1.944-1.068v2.288c.568.211 1.23.38 1.982.5 2.25.331 4.54.057 5.94-.659v-1.389c.388.212.691.452.917.712.462.515.582 1.114.254 1.667"/>
            <path fill="#361EA2" d="M309.823 310.096c-.014.039-.028.095-.042.134a13.386 13.386 0 0 0-.857-.254c-.014 0-.032 0-.043-.017-1.929-.222-3.932-.367-5.982-.487a28.236 28.236 0 0 1 4.727.148c-2.66-.676-5.347-1.1-7.767-1.1 1.178-.225 2.37-.38 3.587-.447 2.26.13 4.458.303 6.575.578.08.018.162.025.236.042-.145.448-.29.927-.434 1.403"/>
            <path fill="#250F8A" d="M308.38 336.286c.303 2.301.875 4.786 1.654 7.38-2.924-.398-11.033-2.21-13.311-4.314l.025-.042c-3.665-1.924-4.84-6.792-5.757-10.612l13.897 6.08 3.492 1.508zM302.9 309.473c2.049.12 4.049.264 5.982.487.01.017.028.017.042.017.286.078.582.155.857.25 3.333 1.015 6.455 2.365 8.765 3.673 1.686 3.627 3.753 6.612 6.017 9.097-.053.278-.123.546-.173.821l.463-.264c-.018-.092-.018-.173-.018-.247.113.127.23.247.346.38.042.054.095.096.123.131.41.451.857.86 1.312 1.244a32.68 32.68 0 0 0 8.638 5.78l-.279.67-9.7-4.23-1.498-.644-2.473-1.1-22.849-9.967c-1.019-.452-2.324-.596-3.717-.452-1.884.173-3.905.871-5.41 1.985-.823.553-1.376 1.202-1.711 1.826-.103.207-.212.437-.258.616 0 0-.018.043-.018.095a.37.37 0 0 0-.052.198l-2.205-.631c.074-.24.17-.451.25-.666.265-.726.53-1.322.79-1.808l-.077-.067c2.698-4.06 7.925-7.021 13.812-8.146 2.42 0 5.108.423 7.767 1.1-1.57-.19-3.15-.225-4.726-.148"/>
            <path fill="#000" d="M288.97 322.472l21.258 9.29 16.705 7.314c2.44 1.057 6.529.38 9.15-1.537 2.193-1.593 2.662-3.528 1.325-4.744 2.367 1.15 1.81 8.42-.776 10.31-1.6 1.17-3.774 1.882-5.763 2.001-1.241.089-2.455-.066-3.382-.465l-4.13-1.808-14.977-6.549-3.492-1.508-13.897-6.076-1.495-.663c-1.82-.793-2.183-5.266-2.208-7.363.159.726.716 1.375 1.682 1.798"/>
            <path fill="#361EA2" d="M318.104 311.877c.412.888.85 1.748 1.312 2.556-.282-.173-.572-.346-.871-.533-.367-.698-.678-1.438-.984-2.192.162.067.345.12.543.17"/>
            <path fill="#250F8A" d="M324.776 321.716a4.517 4.517 0 0 0-.06.423 2.854 2.854 0 0 1-.043-.557.22.22 0 0 0 .103.134m1.27-33.067a96.5 96.5 0 0 1-3.27 3.03c-.05 3.159-.3 6.345-.843 9.373-.72 3.979-1.926 7.708-3.83 10.816v.007c.416.892.853 1.752 1.311 2.556-.282-.173-.571-.342-.87-.529 1.689 3.623 3.756 6.612 6.016 9.097-.049.275-.12.543-.169.821l.459-.268c-.014-.088-.014-.172-.014-.246.112.13.229.246.345.38.043.053.095.095.12.134.413.448.86.86 1.312 1.244a32.824 32.824 0 0 0 11.739 7.014c.26-.63.433-1.265.567-1.952.106-.533.194-1.072.276-1.653 1.326-9.03 1.548-18.723 1.548-27.978 0-4.413-.222-8.815-.448-13.221-.219-4.628-1.986-9.044-2.197-13.446l-.145-.014c.01-.028.01-.067.01-.106-.902 2.21-2.158 4.233-3.449 5.95-.018.017-.028.017-.028.017-2.078 2.774-4.26 4.811-5.277 5.83-.571.567-1.157 1.149-1.721 1.702-.476.48-.973.952-1.443 1.442"/>
            <path fill="#250F8A" d="M341.722 353.236c-3.431 1.561-7.35-.409-10.983-2.02-.198-2.146-.173-4.194.13-6.111 1.99-.12 4.162-.832 5.764-1.999 2.585-1.889 3.142-9.16.776-10.313 0-.02-.039-.038-.057-.049a3.933 3.933 0 0 0-.927-.596l-1.45-.634.279-.673c1.03.476 2.067.884 3.097 1.24 1.439.504 2.867.885 4.257 1.192l-.886 19.963zM318.104 311.877a3.95 3.95 0 0 1-.543-.169c.306.754.617 1.494.984 2.192-2.307-1.307-5.432-2.657-8.762-3.672.014-.039.025-.095.039-.13.145-.48.29-.956.434-1.407-.074-.014-.155-.025-.236-.039.941-2.908 3.922-9.756 11.914-7.602-.72 3.983-1.926 7.712-3.83 10.817v.01zM308.935 402.883c-.187-6.07-1.111-12.14-1.492-18.219-.37-6.256-.914-13.154-2.755-19.452l5.665 2.686c.387 4.338 1.333 8.631 1.865 12.956.053.254.078.49.103.715.172 1.537.384 3.469.61 5.605.173 1.603.384 3.306.568 5.011.37 3.134.455 10 .01 10.12a7.017 7.017 0 0 1-.92.26c-1.097.265-2.332.356-3.654.318"/>
            <path fill="#250F8A" d="M287.265 320.025c-.028.222-.028.437.025.648.025 2.1.384 6.57 2.208 7.363l1.495.663c.914 3.82 2.089 8.684 5.753 10.612l-.02.039-1.55.892s-4.077.659-3.742 7.126c.29 6.475 2.96 8.96 2.96 8.96l4.3 1.984c.37 1.657.81 3.465 1.52 4.79l4.472 2.111c1.844 6.295 2.384 13.196 2.758 19.449.377 6.083 1.305 12.152 1.492 18.222-8.137-.24-19.597-5.71-20.8-12.336a4.19 4.19 0 0 1-.074-.66c0-.066-.014-.12-.014-.19-.031-.433-.06-.937-.088-1.477-.021.015-.035.015-.06.025-.825-8.621-4.698-48.445-5.294-55.04-.37-3.82.913-9.438 2.236-13.301.078-.25.155-.476.244-.698l2.204.634c-.025.064-.025.13-.025.184"/>
            <path fill="#1E1E1E" d="M300.213 363.1c-.709-1.321-1.15-3.133-1.52-4.786l17.73 8.209 6.974 3.2c1.933 2.7 3.915 5.118 5.795 7.035l-11.749-5.544-7.09-3.317-5.664-2.685-4.476-2.112z"/>
            <path fill="#FFD6BB" d="M324.431 239.691c-1.404 1.73-2.571 3.838-3.188 5.65l-.131-.042c-2.518-.903-5.855-1.086-8.592-1.1-1.122-2.527 4.765-2.312 5.943-1.995l.06-.053c-.617-.662-1.905-.966-2.818-1.269a78.662 78.662 0 0 1-3.933-1.815l-.035.057c-1.517-.226-7.128-.649-6.412-2.99.91.198 2.105.254 3.213.332-1.467-.69-3.824-1.864-2.751-2.312.98.102 2.105.197 3.29.3l.015-.064c1.456-.952 3.308-1.152 5.184-.927 1.143-.437 2.97-.596 3.976-.289l.01-.039c2.97 1.223 7.157 2.097 9.358 3.673l.014.018c-1.118.616-2.23 1.649-3.203 2.865"/>
            <path fill="#E8F6FD" d="M323.504 249.647c-.807-.504-1.827-.85-2.705-1.269-.127-.649-.014-1.509.254-2.432.057-.197.117-.398.187-.606.617-1.812 1.785-3.916 3.192-5.65.974-1.216 2.085-2.245 3.203-2.866a4.436 4.436 0 0 1 1.072-.479c.183-.063.41-.106.589-.116a20.372 20.372 0 0 0 1.785 1.847c-.53.19-1.04.426-1.492.726-3.64 2.2-5.52 6.88-6.085 10.845"/>
            <path fill="#FFD6BB" d="M272.513 266.173c-.54-.331-1.125-.684-1.74-1.071.135-.61.53-.99 1.165-1.086 1.432-.208 1.1.783 1.534 1.55.639.988 1.273 1.968 2.028 2.958-1.005-.793-2.12-1.466-3.019-2.298l.032-.053z"/>
            <path fill="#FFD6BB" d="M255.507 267.652c3.069-.87 5.7 1.1 8.335 2.093-1.534-1.339-3.707-2.46-5.464-3.19-1.11-.436-3.756-.764-3.202-2.537h.331c3.81-.092 6.43 1.72 9.608 3.292l.088-.198c-1.534-1.11-3.181-1.984-4.962-2.54-1.425-.434-3.076-.762-3.076-2.64h.102c.798 0 1.697.087 2.632.26l.014-.039c3.693-1.385 7.618.941 10.86 2.947.614.388 1.199.744 1.739 1.075l-.032.05c.9.835 2.014 1.508 3.02 2.3.306.255.61.519.87.794-1.068.624-2.134 1.625-3.093 2.816-1.34 1.639-2.458 3.623-3.1 5.368l-.667-.261c-2.638-.955-6.169-3.81-8.208-6.083-1.876-1.019-4.994-1.283-6.257-3.25l.462-.257z"/>
            <path fill="#E8F6FD" d="M276.37 269.32a5.517 5.517 0 0 1 1.179-.54c.19-.056.412-.092.6-.12.528.649 1.121 1.255 1.788 1.865-.536.169-1.051.419-1.5.722-3.636 2.196-5.52 6.88-6.087 10.845-.804-.5-1.824-.846-2.698-1.283-.131-.634-.015-1.494.253-2.432.075-.278.173-.57.272-.874.642-1.744 1.76-3.729 3.1-5.368.96-1.191 2.025-2.192 3.094-2.816"/>
            <path fill="#250F8A" d="M278.437 271.249a5.837 5.837 0 0 1 1.5-.723 4.358 4.358 0 0 1 1.16-.331c.222.088.5.236.807.42 3.295 1.85 15.28 10.605 19.36 13.329-3.745 5.023-6.962 11.677-4.038 20.347.187.236.385.462.593.663-.977-.663-1.958-1.364-2.977-1.946-8.275-4.945-15.223-11.546-22.672-17.834-.029-.927 0-1.97.18-3.08.57-3.97 2.45-8.65 6.087-10.845"/>
            <path fill="#061B26" d="M288.047 389.698c0 .07.014.124.014.19.011.226.032.434.074.66 1.203 6.626 12.663 12.096 20.8 12.336 1.323.038 2.554-.053 3.654-.321a6.51 6.51 0 0 0 .92-.257c.106.694.24 1.385.36 2.107l-.225.043c-4.847 7.246-33.42-6.295-33.42-6.295-3.27-1.625-6.63-4.032-5.372-7.627l-.144-.177c3.996-3.087 9.276-.5 13.191-2.11.028-.011.042-.011.064-.026.024.54.053 1.04.084 1.477"/>
            <path fill="#1E1E1E" d="M337.351 332.742c.018.014.06.028.06.053 1.337 1.216.868 3.151-1.326 4.744-2.624 1.918-6.712 2.594-9.153 1.537l-16.7-7.314-21.262-9.29c-.967-.423-1.52-1.072-1.68-1.798.015-.532.022-.902.05-1.033 0-.052.018-.095.018-.095.05-.18.155-.409.257-.616.335-.624.889-1.273 1.714-1.826 1.506-1.114 3.528-1.812 5.407-1.985 1.394-.144 2.702 0 3.722.452l22.845 9.967 2.472 1.1 1.5.645 9.699 4.23 1.45.637c.374.17.687.38.927.592"/>
            <path fill="#000" d="M323.398 369.723l-6.977-3.2-17.727-8.21-4.303-1.984s-2.667-2.488-2.96-8.963c-.331-6.464 3.746-7.126 3.746-7.126l16.313 7.602c2.9 7.589 7.33 15.565 11.908 21.88"/>
            <path fill="#361EA2" d="M301.264 283.942c.314-.423.631-.846.952-1.24 0 0 9.05-11.903 11.559-16.502 1.664-3.32 3.139-7.367 5.11-10.775.328-.61.688-1.191 1.058-1.748h.032a4.76 4.76 0 0 1 2.522-1.255h.01c.269-.039.533-.063.798-.063.303-.014.596 0 .9.038a.15.15 0 0 0 .12.025c.405.12.821.264 1.248.451l.084.039c.547.226 1.087.486 1.633.779 1.7.913 3.411 2.118 4.854 3.243l.01-.029c.149.134.279.265.47.423h.01a87.285 87.285 0 0 1 3.612 3.36c.85.856 1.69 1.705 2.511 2.604.014.014.014.024.028.035.254.916.41 1.83.477 2.714.077.927.063 1.826-.025 2.71a15.925 15.925 0 0 1-.6 3.028c-.183.648-.409 1.297-.673 1.917v.014c-.903 2.21-2.159 4.23-3.45 5.946-.018.018-.028.018-.028.018-2.078 2.777-4.26 4.811-5.277 5.83-.571.567-1.157 1.149-1.721 1.702-.476.48-.973.955-1.443 1.442a96.501 96.501 0 0 1-3.27 3.03c-6.68 5.947-18.167 15.121-20.975 14.99a5.02 5.02 0 0 1-1.252-.172c-.018.014-.028.014-.043 0-1.09-.264-1.954-.807-2.687-1.544a6.335 6.335 0 0 1-.593-.662c-2.924-8.67.293-15.325 4.039-20.348"/>
            <path fill="#3C1F17" d="M300.575 306.527c-.028-.014-.046-.014-.07-.028.014.014.024.014.042 0 .01.014.01.028.028.028"/>
            <path fill="#2F2F2F" d="M311.49 347.842a74.848 74.848 0 0 1-1.456-4.176c-.78-2.594-1.351-5.076-1.655-7.38l14.977 6.548c.225 3.687.903 7.56 1.975 11.448 1.947 7.324 5.188 14.627 9.012 20.52 1.703 2.629 3.513 4.983 5.396 6.929.476.476.935.937 1.411 1.375l-11.234-5.622a20.116 20.116 0 0 1-.723-.726c-1.883-1.918-3.862-4.335-5.795-7.035-4.578-6.316-9.008-14.292-11.908-21.88"/>
            <path fill="#1E1E1E" d="M311.49 347.842l-16.313-7.602 1.545-.888c2.279 2.104 10.388 3.915 13.312 4.314a74.848 74.848 0 0 0 1.456 4.176"/>
            <path fill="#211D50" d="M324.672 321.584c.007.038.046.091.103.133-.029.134-.043.293-.057.423a2.64 2.64 0 0 1-.046-.556"/>
            <path fill="#3C1F17" d="M326.825 253.335c.159.102.304.222.466.36a18.108 18.108 0 0 0-1.633-.783c-.028-.014-.064-.025-.085-.04.378.092.758.226 1.136.4.025.024.05.056.116.063"/>
            <path fill="#1E1E1E" d="M341.722 353.236l-.388 8.438.113.12-9.583-4.456a42.416 42.416 0 0 1-1.125-6.122c3.633 1.611 7.552 3.581 10.983 2.02"/>
            <path fill="#250F8A" d="M333.387 242.863c-.86.676-1.693 1.388-2.519 2.09-.895.736-1.798 1.508-2.67 2.277a89.1 89.1 0 0 0-2.42 2.129c-.832.75-1.671 1.504-2.461 2.283a13.51 13.51 0 0 1 .187-1.994c.564-3.966 2.448-8.646 6.084-10.846.452-.3.963-.539 1.496-.726.36-.158.744-.246 1.164-.33.225.094.504.242.8.422.931.518 2.176 1.258 3.584 2.118-.385.29-.759.596-1.14.899-.705.553-1.393 1.124-2.105 1.678"/>
            <path fill="#FFD6BB" d="M332.443 209.123c.18-2.989.674-3.134-.593-5.354 0 0-.01-1.177.145-2.869.201.173.437.345.663.529l.145-.025c.356 1.755 1.072 3.147 1.788 5.047.769 2.157 3.323 5.143 3.492 9.894.529.285 1.083.567 1.64.856.11.042.159.092.272.134-.194-2.238-.31-4.84-.22-6.19.847-1.123 4.089-1.032 3.588 1.72-.265 1.453-.092 4.139-.547 5.926-.289 1.187-.885 1.977-2.049 1.755 0 .183 0 .384-.053.543v.038c-.01.11-.01.198-.01.293a15.1 15.1 0 0 1-.262 1.36v.106c-.042.039-.052.106-.07.145-.183.465-.571.913-1.016 1.286-.86.712-1.961 1.177-2.451.948-.367-.409-.776-1.519-1.185-2.936-.734-2.51-1.485-5.977-2.124-8.064-.546-1.942-1.238-3.316-1.153-5.142"/>
            <path fill="#1E1E1E" d="M340.544 377.695l6.56 3.006 6.632 3.08.451 4.741-7.795-3.673-5.294-2.498-.451-4.498c-.025-.05-.05-.102-.103-.158"/>
            <path fill="#1E1E1E" d="M334.34 374.802c-3.823-5.893-7.064-13.196-9.01-20.52-1.07-3.888-1.75-7.758-1.973-11.448l4.13 1.808c.925.398 2.142.553 3.383.465-.303 1.918-.328 3.965-.13 6.108a41.94 41.94 0 0 0 1.125 6.122c2.14 8.287 6.472 16.51 8.68 20.358.05.053.078.11.102.159l.452 4.497.053.755a46.637 46.637 0 0 1-1.415-1.375c-1.883-1.946-3.693-4.3-5.396-6.93"/>
            <path fill="#FFD6BB" d="M339.356 224.316c.445-.37.833-.821 1.016-1.283.018-.039.028-.11.07-.145v-.105c.078-.321.18-.808.261-1.364.237 1.11.55 2.315.836 3.503v.038c.053.22.1.413.16.621.116.504.232 1.008.341 1.495l-.039.014c-2.49-.145-4.327-.66-5.096-1.823.49.226 1.59-.24 2.451-.951"/>
            <path fill="#E8F6FD" d="M341.974 236.161h.018c-.018.018-.036.018-.06.018 0-.018.042-.018.042-.018"/>
            <path fill="#FFD6BB" d="M341.54 224.961v-.039c-.286-1.187-.6-2.393-.836-3.503 0-.092 0-.183.01-.29v-.041c.053-.159.053-.356.053-.54 1.164.222 1.76-.57 2.05-1.758l.222.052c1.054 1.534 2.307 3.874 3.47 5.738.12.212.24.406.374.607 1.838 1.008 3.877 1.124 5.848.754a76.57 76.57 0 0 1 2.208-.61c2.501-.913 4.727-2.418 6.063-3.623.011 0 .025-.025.025-.025.007 0 .021-.014.035-.024v.024h.046c.05.582.328 1.333.607 2.119-.226.038-.444.088-.688.13-.927.183-1.926.395-2.952.634l.01.05c-1.611.37-3.24.85-4.56 1.388-1.52.6-3.513 1.85-5.308 3.123-2.247 1.61-4.222 3.229-4.67 3.595-.226-.927-.392-1.942-.572-2.946a.056.056 0 0 0-.01-.029c-.194-.82-.692-1.702-.924-2.671-.11-.487-.226-.99-.343-1.495-.06-.208-.105-.401-.158-.62"/>
            <path fill="#361EA2" d="M347.347 252.688a919.76 919.76 0 0 1-12.676 6.489 81.106 81.106 0 0 0-2.039-1.847h-.01c-.191-.162-.322-.293-.47-.427l-.01.032c-1.443-1.124-3.15-2.333-4.854-3.243a4.515 4.515 0 0 0-.462-.356c-.067-.01-.095-.042-.12-.063a6.155 6.155 0 0 0-1.135-.402 10.45 10.45 0 0 0-1.245-.448c-.053.015-.103-.014-.124-.028-.3-.038-.592-.053-.896-.038-.268 0-.532.028-.797.066.265-.278.53-.528.808-.782.79-.779 1.63-1.533 2.462-2.284a89.1 89.1 0 0 1 2.42-2.129 102.08 102.08 0 0 1 2.67-2.273c.825-.705 1.657-1.417 2.518-2.094.712-.553 1.4-1.12 2.105-1.674.381-.306.755-.613 1.14-.902.96-.765 1.93-1.52 2.878-2.273 4.532.504 8.377-.011 12.387-.924 1.39-.292 2.765-.677 4.205-1.03.874-.242 2.966-1.127 5.23-2.357a38.18 38.18 0 0 0 3.108-1.836c.275-.198.553-.388.818-.596 3.125-2.21 5.425-4.786 3.88-6.862a2.717 2.717 0 0 0-.304-.356c0-.028-.042-.043-.056-.053-.063-.067-.116-.13-.222-.183.356-.067.755-.148 1.164-.23 3.001-.567 7.16-1.35 7.446-1.37 4.726-.37 10.362 2.125 12.771 4.796-5.48 4.441-19.663 13.616-24.386 16.14a2014.906 2014.906 0 0 1-18.204 9.537"/>
            <path fill="#4229B5" d="M360.168 259.59c-1.866 1.298-4.025 2.841-6.05 4.547l-.014.029c-1.936 1.24-3.707 3.062-5.156 5.205a22.966 22.966 0 0 0-3.495 8.04 18.56 18.56 0 0 0-.441 3.147l-.142 3.24-.25 5.593-.102 2.418v.014l-.812 17.704-.285 6.147-.148 3.094-.417 9.122-.14 3.108-.11 2.274a37.274 37.274 0 0 1-4.257-1.192 9.907 9.907 0 0 0 .571-1.956c.106-.528.194-1.071.275-1.653 1.326-9.03 1.549-18.719 1.549-27.974 0-4.417-.223-8.819-.448-13.22-.219-4.629-1.986-9.045-2.198-13.447l-.144-.018c.01-.024.01-.063.01-.102v-.014c.265-.617.49-1.269.674-1.917.293-.977.494-1.981.596-3.028.092-.885.106-1.783.028-2.707a14.182 14.182 0 0 0-.476-2.717c-.014-.01-.014-.021-.028-.036-.822-.898-1.661-1.744-2.511-2.604-.53-.515-1.044-1.019-1.577-1.509a919.754 919.754 0 0 0 12.676-6.488c7.566-3.916 15.086-7.881 18.204-9.538 4.723-2.523 18.909-11.698 24.387-16.142.14.162.285.32.412.504 1.517 4.497 2.522 9.636 2.896 14.954-.332.081-.663.17-.995.265-9.618 2.566-23.473 10.943-32.082 16.858"/>
            <path fill="#2F2F2F" d="M368.407 374.389l-14.67 9.393-.903-9.64 14.673-9.39 7.46-4.835 33.307-21.342.744 9.823-2.624 1.689-30.503 19.515z"/>
            <path fill="#8D8D8E" d="M353.392 231.055a33.1 33.1 0 0 0 1.944-.952c-.674.374-1.376.73-2.064 1.09.04-.057.074-.082.12-.138"/>
            <path fill="#E8F6FD" d="M353.527 226.005c1.319-.539 2.948-1.018 4.56-1.388 1.006-.233 2-.437 2.924-.606.65-.106 1.26-.208 1.817-.307l.05.2c.027 0 .066.025.123 0h.035c.674.12 1.435 1.294 2.162 1.26v.683a5.738 5.738 0 0 0-.162.042c-1.27.317-2.871.948-4.667 1.77-1.583.711-3.287 1.56-5.033 2.446a38.23 38.23 0 0 1-1.943.951c-.046.053-.085.081-.12.134-.198.092-.385.197-.582.29-1.972 1.004-3.933 1.994-5.739 2.819-.377.183-.772.356-1.143.5-1.403.635-2.67 1.096-3.77 1.36h-.014c-.01 0-.025.018-.036 0 .064-.063.106-.101.152-.147.176-.222.307-.434.416-.66.434-.803.54-1.624.907-2.562 0 0 .032-.014.084-.067a92.82 92.82 0 0 1 4.667-3.595c1.799-1.272 3.788-2.527 5.312-3.123"/>
            <path fill="#FFF" d="M372.296 396.391v7.814c-1.397.715-3.69.994-5.94.659a10.408 10.408 0 0 1-1.982-.5v-3.465c-.727.095-1.429.211-2.074.384-.06.01-.095.039-.152.053-.656-2.421-1.912-4.494-3.968-5.128v-.11c2.039-.102 4.106-.116 6.194-.102l-.187-13.95 8.126-5.29-.017 19.635z"/>
            <path fill="#000" d="M361.001 221.708c-1.337 1.206-3.562 2.71-6.063 3.624-.723.186-1.481.398-2.208.61-1.968.37-4.007.25-5.848-.755-.134-.2-.25-.395-.37-.606-1.164-1.865-2.42-4.205-3.475-5.738l-.218-.053c.455-1.787.278-4.473.543-5.925.504-2.753-2.737-2.844-3.587-1.72-.092 1.35.024 3.955.218 6.19-.109-.043-.162-.092-.268-.131-.557-.293-1.114-.571-1.643-.86-.17-4.751-2.723-7.737-3.489-9.894-.716-1.9-1.435-3.291-1.791-5.047l-.145.025c-.226-.183-.462-.356-.663-.529-.755-.645-1.414-1.321-1.905-2.047-.039-.903 0-1.773.134-2.623.053-.313.124-.63.198-.951 2.56-11 19.427-16.739 29.86-11.17l.015-.077a23.37 23.37 0 0 1 4.458 3.144c3.682 3.295 6.12 7.655 5.097 11.807-1.073 4.377-2.512 9.097-4.035 13.351-.082.2-.149.398-.226.596a98.065 98.065 0 0 1-1.51 3.901c-.709 1.11-1.69 2.249-1.746 3.257.043.211-.451.828-1.27 1.568-.014.015-.028.029-.035.029 0 0-.017.024-.028.024"/>
            <path fill="#250F8A" d="M342.04 236.161c1.1-.264 2.366-.726 3.77-1.36.37-.148.765-.321 1.142-.504 1.806-.822 3.767-1.812 5.74-2.82.197-.088.384-.197.581-.286.688-.359 1.39-.715 2.063-1.085 1.746-.888 3.45-1.734 5.034-2.45 1.795-.817 3.396-1.452 4.666-1.769.064-.014.106-.025.159-.042v-.684c-.727.039-1.485-1.138-2.159-1.258.96-.12 1.898-.37 2.818-.596.258-.039.505-.05.741-.05.046-.052.046-.105.046-.147.617.176 1.421.384 1.915.705.106.052.155.116.222.183.014.01.057.025.057.05.116.123.222.239.303.359 1.545 2.076-.755 4.652-3.88 6.862-.264.208-.543.398-.818.596a38.79 38.79 0 0 1-3.107 1.836c-2.265 1.23-4.356 2.115-5.231 2.358-1.44.352-2.818.737-4.204 1.03-4.01.908-7.859 1.427-12.388.923.244-.16.483-.346.702-.53a89.792 89.792 0 0 1 1.707-1.282l.014-.021c.025 0 .04 0 .057-.018.01.018.025 0 .035 0h.014z"/>
            <path fill="#1E1E1E" d="M367.508 364.753l-14.673 9.39 1.058-33.347 1.813-55.505c.024-.82.116-1.653.278-2.484.24-1.326.621-2.644 1.15-3.93 1.323-3.303 9.982-10.02 12.966-11.846.984-.554 3.245-1.928 6.14-3.715 8.854-5.365 23.633-14.331 26.267-14.966 2.43-.49 4.882.254 6.846 1.85.046 0 .075.026.1.082.278.25.518.49.743.754.19.303.336.62.473.924.17.225.332.45.487.701v.014c.786 1.442 1.22 3.33 1.107 5.618l-2.945 79.596-1.044.687-33.307 21.338-7.46 4.839z"/>
            <path fill="#000" d="M368.407 374.389l7.484-4.787 30.503-19.515.028.056-.092 4.519-29.994 19.48-4.025 2.615-8.123 5.29-10 6.475-.45-4.74zM409.355 250.2c-1.969-1.596-4.416-2.34-6.847-1.85-2.634.635-17.413 9.601-26.27 14.966-2.892 1.787-5.156 3.161-6.137 3.715-2.987 1.825-11.647 8.543-12.97 11.846a19.644 19.644 0 0 0-1.146 3.93 15.015 15.015 0 0 0-.278 2.484l-1.817 55.505-1.054 33.346.9 9.636-6.628-3.08-6.564-3.003c-2.208-3.845-6.536-12.068-8.68-20.358l9.583 4.455-.113-.12.388-8.438.885-19.963.106-2.273.141-3.109.42-9.121.148-3.095.286-6.147.807-17.704v-.014l.103-2.417.253-5.594.142-3.239a18.26 18.26 0 0 1 .44-3.147 22.966 22.966 0 0 1 3.496-8.04c1.45-2.14 3.22-3.965 5.157-5.206l.014-.028c2.024-1.706 4.18-3.25 6.049-4.547 8.61-5.914 22.464-14.292 32.079-16.858.335-.095.667-.183.998-.264 2.617-.627 4.878-.744 6.571-.222 4.063 1.4 8.113 4.783 10.377 8.79a7.48 7.48 0 0 0-.744-.754c-.021-.056-.05-.081-.095-.081"/>
            <path fill="#8D8D8E" d="M410.195 251.035c.42.515.748 1.058.96 1.625a8.483 8.483 0 0 0-.484-.701 7.18 7.18 0 0 0-.476-.924"/>
        </g>
        <g opacity=".5" transform="translate(-3 21)">
            <rect width="120" height="15" x="489.712" y="89.995" fill="url(#c)" rx="7.5" transform="rotate(-30 549.712 97.495)"/>
            <rect width="120" height="15" x="545.712" y="378.995" fill="url(#d)" rx="7.5" transform="rotate(-30 605.712 386.495)"/>
            <rect width="120" height="15" x="339.712" y="28.995" fill="url(#e)" rx="7.5" transform="rotate(-30 399.712 36.495)"/>
            <rect width="100" height="20.358" x="2.391" y="251.636" fill="url(#c)" rx="10.179" transform="rotate(-30 52.39 261.815)"/>
            <rect width="100" height="20.358" x="-1.609" y="443.636" fill="url(#d)" rx="10.179" transform="rotate(-30 48.39 453.815)"/>
        </g>
    </g>
</svg>
