<svg xmlns="http://www.w3.org/2000/svg" xmlns:xlink="http://www.w3.org/1999/xlink" width="676" height="552" viewBox="0 0 676 552">
    <defs>
        <path id="a" d="M52.333 4.549c0 1.992-11.708 3.607-26.15 3.607C11.74 8.156.03 6.54.03 4.549c0-1.992 11.71-3.607 26.151-3.607"/>
        <path id="c" d="M.07 83.9L236.93 0l195.056 2.432L264.102 83.9z"/>
        <path id="e" d="M.591 3.69C.591 1.697 12.298.082 26.742.082c14.442 0 26.15 1.615 26.15 3.606 0 1.993-11.708 3.607-26.15 3.607"/>
        <path id="g" d="M326.917 0l-52.385 23.176-63.85-5.109c-6.625 2.96-26.554 5.109-50.107 5.109-28.97 0-52.455-3.25-52.455-7.262 0-1.905 5.308-3.638 13.98-4.932L.069 1.217H263.92L326.917 0z"/>
        <path id="i" d="M.502 9.456h3.982L6.815.555 4.047.191z"/>
        <path id="k" d="M.66.41l1.213 9.058h4L3.51.055z"/>
        <path id="m" d="M111.268 8.14c0 4.242-24.836 7.68-55.472 7.68-30.635 0-55.47-3.438-55.47-7.68C.325 3.9 25.16.465 55.795.465"/>
        <path id="o" d="M53.14 4.512c0 1.998-11.7 3.618-26.134 3.618C12.575 8.13.875 6.51.875 4.512c0-1.998 11.7-3.618 26.131-3.618"/>
        <path id="q" d="M.569 20.26a297.722 297.722 0 0 0 5.349 2.694l3.355-9.01.313-2.862L5.21.127.569 20.26z"/>
        <path id="s" d="M.277 14.894l148.383 7.214 48.373-20.621-19.427-.582z"/>
        <path id="u" d="M.03 14.806l148.544 7.213L197 1.397l-19.448-.58z"/>
        <path id="w" d="M.694 3.7c0-1.997 11.7-3.617 26.133-3.617C41.26.083 52.96 1.703 52.96 3.7c0 1.999-11.7 3.618-26.132 3.618"/>
        <path id="y" d="M1.621 5.406C1.481 5.814.758 7.89.006 10.06l4.626 8.675 2.34-12.726-.368-1.098L3.706.512 3.138.405S1.926 4.523 1.62 5.406"/>
        <linearGradient id="A" x1="100%" x2="0%" y1="50%" y2="50%">
            <stop offset="0%" stop-color="#FFF" stop-opacity="0"/>
            <stop offset="100%" stop-color="#FFCA00"/>
            <stop offset="100%" stop-color="#FFF"/>
        </linearGradient>
        <linearGradient id="B" x1="100%" x2="0%" y1="50%" y2="50%">
            <stop offset="0%" stop-color="#FFF" stop-opacity="0"/>
            <stop offset="100%" stop-color="#FA7564"/>
            <stop offset="100%" stop-color="#FFF"/>
        </linearGradient>
        <linearGradient id="C" x1="100%" x2="0%" y1="50%" y2="50%">
            <stop offset="0%" stop-color="#FFF" stop-opacity="0"/>
            <stop offset="100%" stop-color="#FFF"/>
            <stop offset="100%" stop-color="#FFF"/>
        </linearGradient>
        <linearGradient id="D" x1="100%" x2="0%" y1="50%" y2="50%">
            <stop offset="0%" stop-color="#FFF" stop-opacity="0"/>
            <stop offset="100%" stop-color="#06CCE2"/>
            <stop offset="100%" stop-color="#FFF"/>
        </linearGradient>
    </defs>
    <g fill="none" fill-rule="evenodd">
        <path fill="#FA7564" d="M126.42 449.534c-16.362 16.913-47.441 13.9-47.42 40.038.018 23.182 25.933 34.022 44.38 40.789 60.677 22.247 109.978 29.747 169.053 7.203C333.237 522 548.786 395.85 578.64 375.936c41.131-27.446-50.518-53.443-102.814-62.158-76.535-12.761-349.406 135.756-349.406 135.756"/>
        <path fill="#02ECF1" d="M445.107 204.817c27.262-35.446 16.786-67.156 12.035-106.087-2.875-23.548-5.51-65.63-31.023-80.914-23.753-14.238-63.34-13.522-85.702-3.077-64.857 30.308-171.624 96.967-224.731 140.895C69.372 193.938 76.508 242.68 86 291.965c4.381 22.738 29.347 63.548 61.192 67.005 35.057 3.81 267.192-114.217 297.915-154.153"/>
        <g transform="translate(473.77 355.16)">
            <mask id="b" fill="#fff">
                <use xlink:href="#a"/>
            </mask>
            <path d="M52.333 4.549c0 1.992-11.708 3.607-26.15 3.607C11.74 8.156.03 6.54.03 4.549c0-1.992 11.71-3.607 26.151-3.607 14.443 0 26.151 1.615 26.151 3.607" mask="url(#b)"/>
        </g>
        <g transform="translate(175 343)">
            <mask id="d" fill="#fff">
                <use xlink:href="#c"/>
            </mask>
            <path d="M.07 83.9L236.93 0l195.056 2.432L264.102 83.9z" mask="url(#d)"/>
        </g>
        <g transform="translate(436.107 526.613)">
            <mask id="f" fill="#fff">
                <use xlink:href="#e"/>
            </mask>
            <path d="M.591 3.69c0 1.992 11.707 3.606 26.151 3.606 14.442 0 26.15-1.614 26.15-3.607 0-1.991-11.708-3.606-26.15-3.606C12.298.083.592 1.698.592 3.689" mask="url(#f)"/>
        </g>
        <path fill="#02ECF1" d="M451 265h48v-62h-48z"/>
        <path fill="#FFF" d="M461.025 210.21l.77-.328c.284-.116.53-.21.757-.29.58.459.487.523.639 1.062l-6.318 2.89v.016l2.726 1.244c1.36.626 2.553 1.18 3.585 1.631-.154.56-.029.604-.64 1.084a9.32 9.32 0 0 1-.916-.37c-1.803-.823-4.13-1.872-7.003-3.196v-.43c0-.05.095-.117.299-.205-.08.03-.153.052-.224.08v-.093c0-.088.013-.182.123-.248l6.202-2.847zM461.025 251.426l.77-.328c.284-.116.53-.21.757-.29.58.459.487.523.639 1.062l-6.318 2.89v.016l2.726 1.244c1.36.626 2.553 1.18 3.585 1.63-.154.56-.029.605-.64 1.085a9.619 9.619 0 0 1-.916-.372c-1.803-.822-4.13-1.87-7.003-3.194v-.431c0-.05.095-.116.299-.204-.08.03-.153.052-.224.08v-.093c0-.088.013-.183.123-.249l6.202-2.846zM469.724 214.593h24.57v-2.59h-24.57zM475.21 223.656h19.083v-2.59h-19.082zM483.832 231.425h10.461v-2.59h-10.46zM469.724 255.81h24.57v-2.59h-24.57zM475.21 246.747h19.083v-2.59h-19.082zM483.832 238.978h10.461v-2.59h-10.46zM466.597 250.259l-2.56 9.226 1.84.148 2.557-9.226z"/>
        <path fill="#250F8A" d="M483.174 271.65l.964 8.207 5.774 15.008-5.28 1.626-4.06-15.653-.532-8.825z"/>
        <path fill="#FFF" d="M495.512 311.335l-2.579 26.118.859 22.96h-8.886l-.478-1.71 6.092-.813-3.25-20.33-2.93-25.282z"/>
        <path fill="#E7EEFA" d="M498.447 311.043l2.021 22.248 13.604 18.094-1.624 8.538h-4.061l2.436-1.83.407-5.488-12.995-14.638-11.777-26.225z"/>
        <path fill="#250F8A" d="M474.013 275.15l2.837.94a22.623 22.623 0 0 0 5.613 8.841l5.31 5.166 6.537 4.42 4.856 18.038-15.191 1.435-.502-19.875-5.641-7.06a22.619 22.619 0 0 1-4.568-9.986l.749-1.919z"/>
        <path fill="#FFD0D4" d="M477.148 277.081l-3.737 1.327L471 265.736l.725-1.076z"/>
        <path fill="#472BC7" d="M477.991 276.84l-4.701 2.293s-.964-.845-.844-1.327c.12-.483.361-.845.723-1.087.362-.241 3.98-1.569 3.98-1.569l.842 1.69z"/>
        <path fill="#FFD0D4" d="M480.04 272.013l-.24-6.76h2.65l.723 6.397zM473.982 265.123c-.035-.025-1.698-.94-1.734-1.058-.035-.12-1.21-2.96-1.21-2.96l-1.693.239.483 4.667 2.33.562 1.824-1.45zM498.366 286.594c-1.133 2.6-4.802 5.274-7.398 4.14-2.597-1.135-3.135-5.647-2.003-8.247a5.126 5.126 0 0 1 6.751-2.653 5.137 5.137 0 0 1 2.65 6.76"/>
        <path fill="#FFD0D4" d="M490.626 280.902a15.41 15.41 0 0 0-1.397-.885c-.348-.192-.892-.31-1.046.054-.075.182.004.387.083.566.262.6.55 1.232 1.088 1.608a1.816 1.816 0 0 0 1.58.234c.474-.154.937-.515.986-1.004a3.294 3.294 0 0 1-1.294-.573"/>
        <path fill="#000" d="M491.544 290.915c2.536.563 5.771-1.908 6.823-4.32a5.138 5.138 0 0 0-2.65-6.76c-.157-.07-.32-.102-.478-.154-.297.315-.537.69-.644 1.046-.418 1.388-.101 3.028.776 4.182 0 0-2.937 5.543-3.827 6.006"/>
        <path fill="#FFD0D4" d="M495.713 285.74c.378.199.669.539.85.923.591 1.238-.81 2.454-2.005 2.293-.386-.051-.751-.207-1.089-.403-.29-.171-.574-.39-.704-.703-.126-.303-.085-.655.051-.951.136-.297.362-.545.606-.762.555-.495 1.608-.752 2.291-.396"/>
        <g transform="translate(175.298 425.44)">
            <mask id="h" fill="#fff">
                <use xlink:href="#g"/>
            </mask>
            <path d="M326.917 0L263.92 1.217H.068l122.033 9.765c-8.673 1.294-13.981 3.027-13.981 4.932 0 4.011 23.484 7.262 52.455 7.262 23.553 0 43.482-2.15 50.108-5.109l63.85 5.109L326.916 0z" mask="url(#h)"/>
        </g>
        <path fill="#FFDA4F" d="M181.964 426.657h257.254V155.868H181.964z"/>
        <path fill="#FFF" d="M175.367 426.657H432.62V155.868H175.367z"/>
        <path fill="#FFCA00" d="M175.367 176.96H432.62v-21.092H175.367z"/>
        <g fill="#E5FDFD">
            <path d="M254.079 362.723a4.64 4.64 0 0 0-.998-.151c-.072-.003-.142.007-.214.007a4.51 4.51 0 0 0-.793.065c-.052.008-.1.024-.152.035a4.499 4.499 0 0 0-.833.262l-.055.025c-1.222.539-2.208 1.583-2.59 2.974-.667 2.445.388 6.368 2.83 7.038 1.135.312 2.367-.14 3.431-.95l.002-.003a7.644 7.644 0 0 0 1.577-1.637l.06-.083c.136-.195.263-.395.377-.598.016-.026.027-.052.043-.079.094-.17.178-.344.253-.517l.067-.155a4.583 4.583 0 0 0 .33-2.41 4.593 4.593 0 0 0-3.335-3.823"/>
            <path d="M243.396 347.283h20.66v.002c0 .892.55 1.653 1.328 1.969l-8.762 24.966-8.848-.708-5.476-25.013c.512-.24.908-.678 1.098-1.216m-3.587.685l-.177.026 3.186 27.29 2.478 25.518 2.104 25.854h3.687l.974-26.142 2.414-.103 1.552 26.245h4.239l1.666-26.563-.354-23.745 6.726-28-.273-.038c.168-.305.273-.65.273-1.025v-.002h15.68v-46.026h-59.536v46.026h14.96c.09.256.226.485.4.685"/>
        </g>
        <path fill="#000" d="M350.127 346.24l2.98 17.956h-6.317l2.98-17.957h.357zm28.11 0l-2.98 17.956h-20.915l-2.98-17.957h26.874zm1.593 0l2.98 17.956h-6.318l2.98-17.957h.358zm5.14 30.967h-10.64l1.96-11.792h6.722l1.959 11.792zm2.16 13.01h-14.958l1.956-11.79h11.045l1.956 11.79zm2.158 13.01h-19.276l1.957-11.79h15.363l1.956 11.79zm2.161 13.012h-23.597l1.956-11.792h19.684l1.957 11.792zm-24.833 0h-3.634l-1.957-11.792h7.55l-1.959 11.792zm-28.466 0l1.957-11.792h19.683l1.958 11.792H338.15zm4.117-24.802h15.363l1.958 11.79H340.31l1.958-11.79zm2.16-13.01h11.043l1.957 11.79H342.47l1.957-11.79zm12.075-1.22l-1.957-11.792h20.509l-1.958 11.792h-16.594zm14.232 14.23l-1.956 11.79h-7.956l-1.956-11.79h11.868zm-12.072-1.22l-1.957-11.79h16.188l-1.957 11.79h-12.274zm-12.075-24.802h6.722l1.96 11.792h-10.64l1.958-11.792zm-11.402 61.242h1.235l1.527-9.198h24.003l1.527 9.198h1.235l-1.526-9.198h3.228l-1.528 9.198h1.236l1.527-9.198h24.003l1.527 9.198h1.234l-13.348-80.418h2.57v-3.66h-36.55v3.66h1.45l-13.35 80.418z"/>
        <path fill="#FFCA00" d="M522.814 260.479h48.307V137.74h-48.307z"/>
        <path fill="#FFF" d="M534.187 143.918l.772-.328c.283-.116.53-.21.756-.29.58.458.486.523.64 1.062l-6.319 2.89v.015l2.726 1.244c1.36.626 2.553 1.18 3.585 1.631-.153.56-.03.604-.64 1.085a9.964 9.964 0 0 1-.916-.371c-1.803-.824-4.13-1.871-7.002-3.196v-.43c0-.05.095-.116.298-.203-.079.028-.153.05-.224.08v-.095c0-.088.013-.183.123-.249l6.201-2.845zM534.187 185.133l.772-.328c.283-.116.53-.21.756-.29.58.459.486.523.64 1.062l-6.319 2.89v.015l2.726 1.245c1.36.626 2.553 1.18 3.585 1.631-.153.56-.03.604-.64 1.084a9.619 9.619 0 0 1-.916-.372c-1.803-.822-4.13-1.87-7.002-3.194v-.43c0-.05.095-.117.298-.205-.079.03-.153.052-.224.081v-.094c0-.088.013-.183.123-.249l6.201-2.846zM542.888 148.3h24.57v-2.589h-24.57zM548.375 157.364h19.082v-2.59h-19.082zM556.995 165.132h10.462v-2.59h-10.462zM542.888 189.517h24.57v-2.59h-24.57zM548.375 180.453h19.082v-2.59h-19.082zM556.995 172.685h10.462v-2.59h-10.462zM539.76 183.966l-2.559 9.227 1.839.147 2.558-9.226zM534.187 199.925l.772-.329c.283-.115.53-.21.756-.29.58.459.486.523.64 1.063l-6.319 2.89v.015l2.726 1.244c1.36.626 2.553 1.18 3.585 1.631-.153.56-.03.604-.64 1.084a9.964 9.964 0 0 1-.916-.37c-1.803-.824-4.13-1.872-7.002-3.196v-.43c0-.05.095-.117.298-.204-.079.029-.153.05-.224.08v-.094c0-.088.013-.183.123-.249l6.201-2.845zM534.187 241.14l.772-.328c.283-.116.53-.21.756-.29.58.459.486.523.64 1.062l-6.319 2.89v.015l2.726 1.245c1.36.626 2.553 1.18 3.585 1.63-.153.56-.03.605-.64 1.085a9.619 9.619 0 0 1-.916-.372c-1.803-.822-4.13-1.87-7.002-3.196v-.429c0-.05.095-.116.298-.204-.079.03-.153.052-.224.08v-.093c0-.088.013-.183.123-.249l6.201-2.846zM542.888 204.308h24.57v-2.59h-24.57zM548.375 213.371h19.082v-2.59h-19.082zM556.995 221.139h10.462v-2.59h-10.462zM542.888 245.523h24.57v-2.59h-24.57zM548.375 236.46h19.082v-2.59h-19.082zM556.995 228.691h10.462v-2.59h-10.462zM539.76 239.972L537.2 249.2l1.839.149 2.558-9.228z"/>
        <path fill="#02ECF1" d="M206.172 359.481h59.538v-46.026h-59.538z"/>
        <path fill="#000" d="M366.405 441.642l-16.176-97.447 1.2-.2 16.177 97.447zM336.704 441.642l-16.178-97.447 1.201-.2 16.178 97.447z"/>
        <path fill="#000" d="M324.574 365.415h29.966v-1.22h-29.966zM326.696 378.427h29.968v-1.22h-29.968zM328.818 391.437h29.967v-1.22h-29.967zM330.939 404.447h29.967v-1.22h-29.967zM333.06 417.459h29.967v-1.22H333.06zM335.181 430.469h29.968v-1.22h-29.968z"/>
        <path fill="#525252" d="M304.671 441.642l-1.2-.2 16.175-97.447 1.203.2zM334.373 441.642l-1.201-.2 16.176-97.447 1.201.2z"/>
        <path fill="#525252" d="M316.534 365.415h29.967v-1.22h-29.967zM314.413 378.427h29.967v-1.22h-29.967zM312.291 391.437h29.967v-1.22H312.29zM310.17 404.447h29.967v-1.22H310.17zM308.048 417.459h29.967v-1.22h-29.967zM305.927 430.469h29.967v-1.22h-29.967z"/>
        <path fill="#000" d="M317.824 346.24h36.548v-3.66h-36.548z"/>
        <path fill="#FFCA00" d="M450.992 489.412l-2.478-25.518-3.186-27.29 2.478-.354 5.664 25.872 8.85.709 9.202-26.227 2.478.355-6.726 27.998.354 23.746z"/>
        <path fill="#FFD0D4" d="M454.141 454.55c-.669 2.445.386 6.37 2.829 7.039 2.443.668 5.348-2.169 6.017-4.615a4.586 4.586 0 1 0-8.846-2.425"/>
        <path fill="#000" d="M457.407 453.138c-.5-.137-1.199-.482-1.466-.951-.025-.044-.035-.087-.051-.13 1.085-.784 2.493-1.105 3.884-.723a4.592 4.592 0 0 1 3.212 5.641c-.477 1.746-2.096 3.685-3.871 4.412.033-.494.152-.982.278-1.461a100.96 100.96 0 0 1 1.69-5.751 24.707 24.707 0 0 1-3.676-1.037"/>
        <path fill="#FFD0D4" d="M460.26 456.877c.331-.241.785-.352 1.162-.19a.75.75 0 0 1 .236.157c.183.182.237.46.213.717-.062.71-.644 1.306-1.324 1.517-.192.06-.397.092-.597.062a.757.757 0 0 1-.51-.295c-.427-.612.345-1.622.82-1.968"/>
        <path fill="#FFF" d="M467.629 488.703l-2.457 39.14h-2.704l-2.296-38.821-2.416.102-1.475 39.676-2.087-.049-3.202-39.339-.471-4.847 17.048.223z"/>
        <path fill="#250F8A" d="M465.172 527.842l5.946.657-.215.923h-8.707l.272-1.58zM456.28 528.8v1.111l-8.168.31v-1.023l6.081-.447z"/>
        <g transform="translate(467 437)">
            <mask id="j" fill="#fff">
                <use xlink:href="#i"/>
            </mask>
            <path d="M.502 9.456h3.982L6.815.555 4.047.191z" mask="url(#j)"/>
        </g>
        <g transform="translate(445 437)">
            <mask id="l" fill="#fff">
                <use xlink:href="#k"/>
            </mask>
            <path d="M.66.41l1.213 9.058h4L3.51.055z" mask="url(#l)"/>
        </g>
        <g>
            <path fill="#FFD0D4" d="M449.222 435.187a2.124 2.124 0 1 1-4.247 0 2.124 2.124 0 1 1 4.247 0M474 435.895a2.124 2.124 0 1 1-4.247 0 2.124 2.124 0 1 1 4.247 0"/>
            <path fill="#2D109F" d="M227.02 413l-2.477-25.517-3.186-27.29 2.478-.355 5.664 25.873 8.848.708 9.204-26.226 2.478.355-6.726 27.997.354 23.747z"/>
            <path fill="#FFD0D4" d="M225.25 358.775a2.124 2.124 0 1 1-4.246 0 2.124 2.124 0 1 1 4.246 0M250.028 359.484a2.124 2.124 0 1 1-4.246 0 2.124 2.124 0 1 1 4.246 0"/>
            <path fill="#000" d="M238.009 382.586l.058-.082a7.34 7.34 0 0 0 .38-.599c.015-.025.026-.052.042-.078.094-.172.178-.344.253-.517l.067-.155a4.581 4.581 0 0 0 .33-2.412 4.576 4.576 0 0 0-.314-1.112 4.6 4.6 0 0 0-1.37-1.865c-.14-.112-.3-.202-.455-.299-.11-.07-.212-.15-.33-.21a4.569 4.569 0 0 0-.866-.335h-.003a4.482 4.482 0 0 0-.995-.151c-.072-.004-.143.007-.216.007-.268 0-.532.017-.791.064-.052.01-.102.024-.152.036-.287.06-.564.148-.833.262l-.055.025c-1.222.537-2.21 1.583-2.59 2.974-.667 2.444.388 6.368 2.83 7.038 1.135.31 2.366-.14 3.43-.95l.005-.004a7.62 7.62 0 0 0 1.118-1.056l.039-.048c.147-.172.286-.351.418-.533"/>
            <path fill="#FFCA00" d="M243.657 412.292l-2.456 39.14h-2.704l-2.297-38.823-2.415.104-1.476 39.676-2.087-.05-3.202-39.338-.47-4.848 17.049.224z"/>
            <path fill="#2D109F" d="M241.201 451.431l5.946.656-.215.922h-8.708l.273-1.578zM232.308 452.389v1.11l-8.167.31v-1.023l6.082-.446z"/>
            <path fill="#FFF" d="M408.32 435.345h102.333v-60.989H408.321z"/>
            <path fill="#250F8A" d="M459.53 427.344h45.651v-45.282H459.53zM414.115 386.335h39.869v-3.845h-39.87zM414.115 395.732h39.869v-3.844h-39.87zM414.115 405.13h39.869v-3.845h-39.87zM414.115 414.529h39.869v-3.845h-39.87zM414.115 423.926h39.869v-3.844h-39.87z"/>
            <g transform="translate(76.837 420.56)">
                <mask id="n" fill="#fff">
                    <use xlink:href="#m"/>
                </mask>
                <path d="M111.268 8.14c0 4.242-24.836 7.68-55.472 7.68-30.635 0-55.47-3.438-55.47-7.68C.325 3.9 25.16.465 55.795.465c30.636 0 55.472 3.437 55.472 7.677" mask="url(#n)"/>
            </g>
            <g fill="#E5FDFD">
                <path d="M334.75 264.936c.455.361.94.72 1.495.858-.003.151-.023.297-.012.451.213 2.828 2.794 6.565 5.618 6.353.204-.015.401-.055.596-.109v-.001c.765-.21 1.453-.701 2.036-1.356.018-.021.038-.038.055-.059.092-.107.181-.22.268-.334l.085-.112c.08-.108.152-.219.225-.331a6.725 6.725 0 0 0 .289-.48l.104-.19a12.292 12.292 0 0 0 .258-.544c.044-.103.086-.207.128-.31.033-.085.063-.17.094-.253a8.55 8.55 0 0 0 .182-.575c.026-.094.053-.186.077-.282.024-.1.045-.198.065-.298.018-.088.037-.175.053-.263a7.25 7.25 0 0 0 .045-.32c.011-.079.023-.158.032-.236.011-.12.016-.237.022-.352.002-.064.008-.13.01-.192 0-.072-.003-.139-.005-.208.377.165.792.262 1.229.262a3.047 3.047 0 0 0 3.046-3.05 3.047 3.047 0 0 0-3.046-3.05c-1.36 0-2.5.901-2.89 2.135-.041-.039-.075-.085-.117-.121a5.106 5.106 0 0 0-3.728-1.228c-2.046.153-3.707 1.496-4.395 3.294a15.443 15.443 0 0 0-1.257-.097c-.395-.008-.932.142-.898.537.017.195.184.34.336.461"/>
                <path d="M318.926 262.774l2.486 2.539a97.777 97.777 0 0 1-2.544-1.913l.058-.626zm67.686 43.02l-16.336.742-11.226-18.327.237-.156-12.714-13.674-2.78-.3-16.955-8.405-6.106-5.56-1.736 1.903 3.53-38.244-50.821-4.704a3.83 3.83 0 0 0-2.921-5.28v-77.133h-1.219v77.133a3.83 3.83 0 0 0-3.226 3.779c0 .285.035.561.095.83l-43.913-4.064-4.859 52.633 102.005 9.438.8-8.659c3.407 3.175 7.812 6.771 10.055 7.747l8.283 3.602 9.537 17.007-.064.04.152.121.094.167.067-.042.307.24 2.677 23.086 3.248 20.328-6.092.814.48 1.711h8.885l-.86-22.962 1.508-15.274 11.057 8.65 18.141-4.164 1.757 4.606 1.42-.61-2.507-7.02z"/>
            </g>
            <path fill="#02ECF1" d="M191.295 266.967l102.005 9.438 4.86-52.632-102.007-9.439z"/>
            <path fill="#FF7E6E" d="M296.366 260.114l6.105 5.56 20.125 9.976-8.853 2.254-13.321-9.147-6.184-6.311z"/>
            <path fill="#FFD0D4" d="M322.095 265.476c.212 2.828-1.785 6.91-4.61 7.122-2.824.213-5.407-3.526-5.619-6.353a5.133 5.133 0 0 1 4.73-5.505 5.131 5.131 0 0 1 5.499 4.736M292.062 259.08c-.023.002-.872-.438-.872-.438l-.821 1.348-4.17-2.342-1.383 1.543 5.88 4.447 1.282-1.61-.667-.91.272-.997.48-1.041z"/>
            <path fill="#250F8A" d="M333.449 293.488l-2.58 26.118.86 22.961h-8.887l-.477-1.711 6.091-.813-3.249-20.33-2.93-25.282z"/>
            <path fill="#FA7564" d="M292.059 261.368c2.582 2.418 11.806 9.086 15.2 10.08l7.105 2.082 7.843.85 12.712 13.673-12.76 8.378-9.721-17.336-8.282-3.602c-3.405-1.48-11.799-9-14.106-11.912l2.009-2.213z"/>
            <path fill="#FFD0D4" d="M312.595 264.065a15.225 15.225 0 0 0-1.65-.126c-.396-.009-.933.141-.898.536.017.195.183.34.337.461.513.409 1.062.832 1.713.913a1.816 1.816 0 0 0 1.507-.533c.345-.358.588-.894.402-1.35-.465.14-.928.164-1.411.1"/>
            <path fill="#250F8A" d="M120.899 406.118h21.116a1.222 1.222 0 0 0 .894-2.05l-20.305-21.954-1.787 1.658 18.41 19.906h-18.328v2.44z"/>
            <path fill="#FA7564" d="M318.08 272.489c2.504-.69 4.21-4.389 4.015-7.013a5.131 5.131 0 0 0-5.498-4.736c-.17.012-.33.06-.494.088-.114.418-.153.861-.081 1.226.279 1.422 1.324 2.725 2.637 3.335 0 0-.008 6.273-.579 7.1"/>
            <path fill="#FFD0D4" d="M319.35 265.964c.426-.003.842.162 1.183.417 1.1.818.43 2.55-.702 2.965-.366.136-.762.17-1.152.153-.337-.015-.69-.076-.951-.29-.251-.21-.38-.54-.399-.867-.017-.325.067-.65.18-.956.261-.698 1.072-1.419 1.842-1.422"/>
            <path fill="#472BC7" d="M362.245 305.794l-16.335.742-11.385-18.585-12.614 8.192 21.524 16.837 18.14-4.163 1.757 4.606 1.422-.61z"/>
            <path fill="#FA7564" d="M326.378 263.005a3.047 3.047 0 0 1-3.046 3.05 3.047 3.047 0 0 1-3.045-3.05 3.048 3.048 0 0 1 3.045-3.05 3.048 3.048 0 0 1 3.046 3.05"/>
            <path fill="#250F8A" d="M122.247 413.552h18.963v-256.97h-18.963v256.97zm-2.437 2.44h23.837v-261.85H119.81v261.85z"/>
            <path fill="#472BC7" d="M116.547 424.937h30.362v-21.784h-30.362z"/>
            <path fill="#250F8A" d="M120.899 315.964h21.116a1.22 1.22 0 0 0 .894-2.05l-20.305-21.954-1.787 1.656 18.41 19.908h-18.328v2.44z"/>
            <path fill="#250F8A" d="M120.899 338.502h21.116a1.22 1.22 0 0 0 .894-2.049l-20.305-21.955-1.787 1.658 18.41 19.907h-18.328v2.44z"/>
            <path fill="#250F8A" d="M120.899 361.041h21.116a1.22 1.22 0 0 0 .894-2.05l-20.305-21.954-1.787 1.658 18.41 19.906h-18.328v2.44z"/>
            <path fill="#250F8A" d="M120.899 383.58h21.116a1.22 1.22 0 0 0 .894-2.05l-20.305-21.955-1.787 1.658 18.41 19.907h-18.328v2.44zM120.899 293.966h21.116a1.22 1.22 0 0 0 .894-2.048l-20.305-21.956-1.787 1.657 18.41 19.908h-18.328v2.44z"/>
            <path fill="#250F8A" d="M120.899 271.968h21.116a1.22 1.22 0 0 0 .894-2.048l-20.305-21.956-1.787 1.657 18.41 19.908h-18.328v2.44z"/>
            <path fill="#250F8A" d="M120.899 249.971h21.116a1.22 1.22 0 0 0 .894-2.048l-20.305-21.956-1.787 1.657 18.41 19.908h-18.328v2.44z"/>
            <path fill="#250F8A" d="M120.899 227.973h21.116a1.22 1.22 0 0 0 .894-2.048l-20.305-21.956-1.787 1.657 18.41 19.908h-18.328v2.44z"/>
            <path fill="#250F8A" d="M120.899 205.976h21.116a1.22 1.22 0 0 0 .894-2.048l-20.305-21.956-1.787 1.656 18.41 19.908h-18.328v2.44z"/>
            <path fill="#250F8A" d="M120.899 183.978h21.116a1.22 1.22 0 0 0 .894-2.048l-20.305-21.956-1.787 1.656 18.41 19.909h-18.328v2.44z"/>
            <path fill="#0089C7" d="M120.899 161.98h21.116a1.22 1.22 0 0 0 .894-2.047l-20.305-21.956-1.787 1.656 18.41 19.908h-18.328v2.44z"/>
            <path fill="#472BC7" d="M119.85 162.418h38.643V129.8H119.85zM61.78 148.536h38.643V129.8H61.781z"/>
            <path fill="#250F8A" d="M62.422 132.183h190.862a1.22 1.22 0 0 0 0-2.44H62.422a1.22 1.22 0 0 0 0 2.44"/>
            <path fill="#472BC7" d="M243.199 215.942h1.218v-79.285h-1.218z"/>
            <path fill="#250F8A" d="M106.191 430.629h51.075v-9.586H106.19zM139.03 131.864c.156 0 .312-.06.431-.178l10.176-10.19h93.302l9.567 9.58a.61.61 0 0 0 .863-.864l-9.926-9.936h-94.31l-10.535 10.546a.612.612 0 0 0 .432 1.042M61.609 131.864a.61.61 0 0 0 .54-.327l10.184-19.48h24.7l9.576 18.864c.152.299.52.417.819.267.3-.152.42-.52.268-.82l-9.917-19.53H71.596L61.07 130.97a.609.609 0 0 0 .539.893"/>
            <path fill="#472BC7" d="M239.34 136.656c0 2.47 2.001 4.473 4.468 4.473a4.47 4.47 0 0 0 4.466-4.473c0-2.47-2-4.473-4.466-4.473a4.47 4.47 0 0 0-4.467 4.473"/>
            <path fill="#250F8A" d="M217.397 121.487a.61.61 0 0 0 .177-1.193l-90.191-27.535a.615.615 0 0 0-.416.022l-42.746 18.063a.61.61 0 0 0 .473 1.124l42.544-17.977 89.98 27.47c.06.017.12.026.179.026"/>
            <path fill="#250F8A" d="M141.394 131.946a1.22 1.22 0 0 0 1.14-1.654L128.33 92.876a1.219 1.219 0 0 0-2.333.193l-7.341 36.49a1.22 1.22 0 0 0 .954 1.438 1.223 1.223 0 0 0 1.435-.956l6.508-32.348 12.701 33.466a1.22 1.22 0 0 0 1.14.787"/>
            <path fill="#472BC7" d="M124.738 93.31a2.456 2.456 0 0 0 2.455 2.457c1.356 0 2.454-1.1 2.454-2.458a2.456 2.456 0 0 0-2.454-2.458 2.456 2.456 0 0 0-2.455 2.458"/>
            <path fill="#250F8A" d="M230.238 131.98c.134 0 .27-.044.383-.135l11.962-9.682v9.052a.61.61 0 1 0 1.218 0v-10.329a.61.61 0 0 0-.991-.474l-12.955 10.484a.61.61 0 0 0 .383 1.084"/>
            <path fill="#250F8A" d="M218.67 131.98c.134 0 .27-.044.383-.135l11.963-9.682v9.052a.609.609 0 1 0 1.218 0v-10.329a.61.61 0 0 0-.993-.474l-12.955 10.484a.61.61 0 0 0 .384 1.084"/>
            <path fill="#250F8A" d="M207.102 131.98c.134 0 .27-.044.383-.135l11.963-9.682v9.052a.609.609 0 1 0 1.218 0v-10.329a.61.61 0 0 0-.993-.474l-12.955 10.484a.61.61 0 0 0 .384 1.084"/>
            <path fill="#250F8A" d="M195.534 131.98c.134 0 .27-.044.383-.135l11.962-9.682v9.052a.61.61 0 1 0 1.218 0v-10.329a.61.61 0 0 0-.991-.474l-12.955 10.484a.61.61 0 0 0 .383 1.084"/>
            <path fill="#250F8A" d="M183.966 131.98c.134 0 .27-.044.383-.135l11.963-9.682v9.052a.609.609 0 1 0 1.218 0v-10.329a.61.61 0 0 0-.992-.474l-12.955 10.484a.61.61 0 0 0 .383 1.084"/>
            <path fill="#250F8A" d="M172.398 131.98c.134 0 .27-.044.383-.135l11.963-9.682v9.052a.609.609 0 1 0 1.218 0v-10.329a.61.61 0 0 0-.993-.474l-12.955 10.484a.61.61 0 0 0 .384 1.084"/>
            <path fill="#250F8A" d="M160.83 131.98c.135 0 .27-.044.383-.135l11.964-9.682v9.052a.609.609 0 1 0 1.218 0v-10.329a.61.61 0 0 0-.993-.474l-12.955 10.484a.61.61 0 0 0 .384 1.084"/>
            <path fill="#250F8A" d="M149.262 131.98c.134 0 .27-.044.383-.135l11.963-9.682v9.052a.609.609 0 1 0 1.219 0v-10.329a.61.61 0 0 0-.993-.474l-12.955 10.484a.61.61 0 0 0 .383 1.084M80.876 131.98a.607.607 0 0 0 .465-.216l15.536-18.359v17.81a.61.61 0 1 0 1.219 0v-19.472a.607.607 0 1 0-1.073-.395L80.41 130.976a.61.61 0 0 0 .465 1.004"/>
            <path fill="#250F8A" d="M68.926 131.98a.608.608 0 0 0 .508-.273l11.84-17.936v17.444a.609.609 0 1 0 1.217 0v-19.472a.61.61 0 0 0-1.117-.337l-12.956 19.628a.611.611 0 0 0 .508.946"/>
            <path fill="#472BC7" d="M239.972 217.569a3.838 3.838 0 0 0 3.835 3.84 3.838 3.838 0 0 0 3.836-3.84 3.838 3.838 0 0 0-3.836-3.84 3.838 3.838 0 0 0-3.835 3.84"/>
            <path fill="#FFF" d="M556.474 315.035l-.978-13.523 1.51-9.953 5.13-29.33-2.478-.356-5.662 25.872-8.85.708-9.203-26.225-2.478.354 6.726 27.999 2.36 10.702-.277 13.043z"/>
            <path fill="#FFD0D4" d="M544.1 280.995c0 2.536 2.054 6.042 4.586 6.042 2.533 0 4.585-3.506 4.585-6.042a4.587 4.587 0 0 0-4.585-4.591 4.588 4.588 0 0 0-4.585 4.591"/>
            <g transform="translate(519.067 349.813)">
                <mask id="p" fill="#fff">
                    <use xlink:href="#o"/>
                </mask>
                <path d="M53.14 4.512c0 1.998-11.7 3.618-26.134 3.618C12.575 8.13.875 6.51.875 4.512c0-1.998 11.7-3.618 26.131-3.618 14.434 0 26.133 1.62 26.133 3.618" mask="url(#p)"/>
            </g>
            <path fill="#FFD0D4" d="M550.617 281.622c.256-.32.663-.547 1.07-.49a.777.777 0 0 1 .269.087c.224.128.35.383.396.637.127.7-.278 1.43-.879 1.813a1.36 1.36 0 0 1-.559.218.759.759 0 0 1-.57-.15c-.572-.476-.095-1.654.273-2.115"/>
            <path fill="#000" d="M550.613 281.367c.104.05.225.098.33.055.108-.042.164-.156.234-.248.276-.36.88-.36 1.2-.04.322.32.354.865.132 1.259-.223.395-.658.641-1.106.707a10.094 10.094 0 0 0-.358 3.245l2.188.16c.142.012.298.018.41-.069.105-.083.143-.223.17-.353.274-1.252.409-2.534.406-3.816-.002-1.249-.15-2.543-.794-3.613-.771-1.28-3.932-3.386-5.476-2.205-1.698 1.301 1.488 4.352 2.664 4.918"/>
            <path fill="#000" d="M546.746 279.496c-.694 1.05-1.693 1.952-2.91 2.27a4.749 4.749 0 0 1 .804-3.996c.48-.63 2.21-2.166 3.13-1.805.953.374-.555 2.82-1.024 3.531"/>
            <path fill="#250F8A" d="M555.956 305.443l-13.537-.634-10.415 46.704-4.831-2.946 5.881 7.153 13.868-38.496-.211 17.46 9.403 12.473.6 4.503.249 1.913 1.676-.198.305-6.862-7.278-11.85 5.135-19.615z"/>
            <path fill="#FFD0D4" d="M556.812 274.881l2.93 1.03 2.395-13.684-2.478-.354zM539.743 273.057l-3.435 1.357-2.843-11.832 2.478-.355zM551.227 287.967l-2.54 4.517-1.28-4.212z"/>
            <path fill="#FFD0D4" d="M532.356 260.81a2.125 2.125 0 1 0 4.25.002 2.125 2.125 0 0 0-4.25-.002M559.019 261.208c0 1.173.95 2.126 2.123 2.126a2.125 2.125 0 0 0 2.124-2.126c0-1.175-.95-2.128-2.124-2.128a2.125 2.125 0 0 0-2.123 2.128"/>
        </g>
        <g transform="translate(537 305)">
            <mask id="r" fill="#fff">
                <use xlink:href="#q"/>
            </mask>
            <path d="M.569 20.26a297.722 297.722 0 0 0 5.349 2.694l3.355-9.01.313-2.862L5.21.127.569 20.26z" mask="url(#r)"/>
        </g>
        <path fill="#FFF" d="M403.002 173H339c-2.2 0-4-1.828-4-4.062v-2.876c0-2.234 1.8-4.062 4-4.062h64.002c2.2 0 3.998 1.828 3.998 4.062v2.876c0 2.234-1.798 4.062-3.998 4.062"/>
        <g transform="translate(78 474)">
            <mask id="t" fill="#fff">
                <use xlink:href="#s"/>
            </mask>
            <path d="M.277 14.894l148.383 7.214 48.373-20.621-19.427-.582z" mask="url(#t)"/>
        </g>
        <g transform="translate(103 511)">
            <mask id="v" fill="#fff">
                <use xlink:href="#u"/>
            </mask>
            <path d="M.03 14.806l148.544 7.213L197 1.397l-19.448-.58z" mask="url(#v)"/>
        </g>
        <g>
            <g transform="translate(292.47 508.385)">
                <mask id="x" fill="#fff">
                    <use xlink:href="#w"/>
                </mask>
                <path d="M.694 3.7c0 2 11.7 3.619 26.133 3.619C41.26 7.319 52.96 5.7 52.96 3.7c0-1.998-11.7-3.618-26.132-3.618C12.395.083.694 1.703.694 3.7" mask="url(#x)"/>
            </g>
            <path fill="#FFCA00" d="M78.382 485.58l-.049 3.66 146.18 1.946 31.666-16.042.049-3.66z"/>
            <path fill="#FFCA00" d="M224.512 491.186l-146.18-1.947L110 473.198l146.18 1.947z"/>
            <path fill="#FFF" d="M224.56 487.526L78.382 485.58l31.667-16.042 146.179 1.947z"/>
            <path fill="#FA7564" d="M190.607 473.43l-80.321-1.07 2.395-1.214 80.32 1.07zM184.62 476.462l-80.32-1.069 2.394-1.214 80.322 1.07zM178.874 479.373l-80.322-1.069 2.396-1.213 80.32 1.07zM173.367 482.164l-80.322-1.07 2.395-1.214 80.322 1.07zM224.452 485.208l-51.95-.69 24.183-12.253 51.952.692z"/>
            <path fill="#2D109F" d="M103.23 521.326l-.05 3.66 146.179 1.947 31.668-16.043.048-3.66z"/>
            <path fill="#2D109F" d="M249.36 526.932l-146.179-1.947 31.666-16.04 146.18 1.946z"/>
            <path fill="#FFF" d="M249.408 523.273l-146.178-1.947 31.666-16.041 146.18 1.947z"/>
            <path fill="#FA7564" d="M215.455 509.175l-80.321-1.068 2.393-1.214 80.322 1.07zM209.468 512.208l-80.32-1.069 2.394-1.213 80.32 1.07zM203.721 515.12l-80.32-1.07 2.394-1.213 80.322 1.07zM198.214 517.91l-80.321-1.07 2.395-1.213 80.32 1.07zM249.3 520.955l-51.952-.69 24.185-12.253 51.952.691z"/>
            <path fill="#E5FDFD" d="M332.877 202.22h91.37v-9.758h-91.37zM332.877 251.759h91.37v-41h-91.37z"/>
            <path fill="#E7F8FC" d="M312.415 467.494l4.204 6.586 4.089 12.622 12.385 19.921-1.894.518-14.75-16.515-7.2-13.938z"/>
            <path fill="#2D109F" d="M286.928 476.389L271.18 502.67l2.046.732 19.014-24.308z"/>
        </g>
        <g transform="translate(310 470)">
            <mask id="z" fill="#fff">
                <use xlink:href="#y"/>
            </mask>
            <path d="M1.621 5.406C1.481 5.814.758 7.89.006 10.06l4.626 8.675 2.34-12.726-.368-1.098L3.706.512 3.138.405S1.926 4.523 1.62 5.406" mask="url(#z)"/>
        </g>
        <g>
            <path fill="#FFD0D4" d="M280.126 470.895c2.753.464 6.192 3.4 5.74 6.23-.453 2.83-4.626 4.48-7.379 4.015-2.753-.465-4.618-3.136-4.165-5.965.452-2.829 3.051-4.745 5.804-4.28"/>
            <path fill="#FFD0D4" d="M276.573 479.904c-.196.52-.365 1.053-.504 1.592-.1.387-.08.952.304 1.01.191.03.368-.099.519-.22.51-.407 1.043-.847 1.27-1.467.191-.524.131-1.137-.159-1.61-.262-.425-.719-.791-1.198-.717.028.49-.058.95-.232 1.412"/>
            <path fill="#000" d="M285.899 476.512c-.078-2.626-3.218-5.186-5.773-5.618-2.753-.465-5.352 1.452-5.803 4.28-.028.172-.02.337-.032.507.374.212.788.355 1.154.373 1.425.064 2.912-.655 3.8-1.8 0 0 5.996 1.501 6.654 2.258"/>
            <path fill="#FFD0D4" d="M279.955 473.709c.096-.42.35-.79.673-1.063 1.038-.887 2.537.185 2.673 1.397.044.392-.015.79-.121 1.17-.094.326-.233.66-.5.865-.256.198-.603.246-.919.186-.317-.06-.607-.22-.873-.404-.608-.423-1.108-1.393-.933-2.151"/>
            <path fill="#1E0880" d="M285.355 490.31l-9.664 17.248 2.204.174 12.376-12.892 1.696-16.551s0-5.054-2.205-4.705c-2.204.35-3.22 3.136-3.22 3.136l-1.187 13.59z"/>
            <path fill="#1E0880" d="M285.622 473.746c9.983-5.077 21.347-6.658 21.347-6.658l5.44 10.93-24.512 4.103-2.275-8.375z"/>
            <path fill="#FFF" d="M306.968 467.088l1.523-.054c4.109-.146 7.515 3.242 7.51 7.468l-8.102 15.06 1.476 21.654h-2.204l-4.809-20.447 4.606-23.681z"/>
            <path fill="#FFD0D4" d="M273.863 505.275c0 1.47-1.107 2.661-2.472 2.661s-2.472-1.191-2.472-2.661c0-1.469 1.107-2.661 2.472-2.661s2.472 1.192 2.472 2.66M279.481 507.94c0 1.468-1.106 2.66-2.472 2.66-1.364 0-2.472-1.192-2.472-2.66 0-1.47 1.108-2.661 2.472-2.661 1.366 0 2.472 1.19 2.472 2.66"/>
            <path fill="#250F8A" d="M309.376 511.217l.405 2.15-10.591.242s.588-1.572.942-1.45c.353.12 7.04-.942 7.04-.942h2.204zM332.014 507.287l1.04 2.407-9.559.244.235-1.208 6.42-.92z"/>
        </g>
        <g transform="translate(-3 -2)">
            <rect width="120" height="15" x="509.712" y="89.995" fill="url(#A)" opacity=".5" rx="7.5" transform="rotate(-30 569.712 97.495)"/>
            <rect width="120" height="15" x="565.712" y="378.995" fill="url(#B)" opacity=".5" rx="7.5" transform="rotate(-30 625.712 386.495)"/>
            <rect width="120" height="15" x="359.712" y="28.995" fill="url(#C)" opacity=".5" rx="7.5" transform="rotate(-30 419.712 36.495)"/>
            <rect width="100" height="20.358" x="22.391" y="251.636" fill="url(#D)" opacity=".3" rx="10.179" transform="rotate(-30 72.39 261.815)"/>
            <rect width="100" height="20.358" x="-1.609" y="463.636" fill="url(#B)" opacity=".5" rx="10.179" transform="rotate(-30 48.39 473.815)"/>
        </g>
    </g>
</svg>
