<svg xmlns="http://www.w3.org/2000/svg" width="557" height="443" viewBox="0 0 557 443">
    <defs>
        <linearGradient id="a" x1="100%" x2="0%" y1="50%" y2="50%">
            <stop offset="0%" stop-color="#FFF" stop-opacity="0"/>
            <stop offset="100%" stop-color="#06CCE2"/>
            <stop offset="100%" stop-color="#FFF"/>
        </linearGradient>
        <linearGradient id="b" x1="100%" x2="0%" y1="50%" y2="50%">
            <stop offset="0%" stop-color="#FFF" stop-opacity="0"/>
            <stop offset="100%" stop-color="#FA7564"/>
            <stop offset="100%" stop-color="#FFF"/>
        </linearGradient>
        <linearGradient id="c" x1="100%" x2="0%" y1="50%" y2="50%">
            <stop offset="0%" stop-color="#FFF" stop-opacity="0"/>
            <stop offset="100%" stop-color="#FFF"/>
            <stop offset="100%" stop-color="#FFF"/>
        </linearGradient>
        <linearGradient id="d" x1="100%" x2="0%" y1="50%" y2="50%">
            <stop offset="0%" stop-color="#FFF" stop-opacity="0"/>
            <stop offset="100%" stop-color="#644BD9"/>
            <stop offset="100%" stop-color="#FFF"/>
        </linearGradient>
    </defs>
    <g fill="none" fill-rule="evenodd" opacity=".5" transform="translate(-3 -2)">
        <rect width="120" height="15" x="446.712" y="28.995" fill="url(#a)" rx="7.5" transform="rotate(-30 506.712 36.495)"/>
        <rect width="120" height="15" x="401.712" y="402.995" fill="url(#b)" rx="7.5" transform="rotate(-30 461.712 410.495)"/>
        <rect width="120" height="15" x="321.712" y="64.995" fill="url(#c)" rx="7.5" transform="rotate(-30 381.712 72.495)"/>
        <rect width="60.913" height="12.4" x="153.02" y="379.398" fill="url(#c)" rx="6.2" transform="rotate(-30 183.476 385.598)"/>
        <rect width="100" height="20.358" x="-1.609" y="159.636" fill="url(#d)" rx="10.179" transform="rotate(-30 48.39 169.815)"/>
    </g>
</svg>
