<svg xmlns="http://www.w3.org/2000/svg" xmlns:xlink="http://www.w3.org/1999/xlink" width="226" height="137" viewBox="0 0 226 137">
    <defs>
        <path id="a" d="M.146.202h138.7v62.496H.145z"/>
    </defs>
    <g fill="none" fill-rule="evenodd">
        <path fill="#02ECF1" d="M4.996 55.724c-18.763 23.68 22.345 87.451 110.824 80.084 88.479-7.368 34.064-8.671 88.967-11.604 54.904-2.932-7.26-69.526-94.578-109.037C22.892-24.345 23.76 32.044 4.996 55.724z" opacity=".1"/>
        <path fill="#000" d="M140.844 44.43c.09-.052.19-.053.295.008 3.844-2.22 10.099-2.22 13.966 0 .103-.06.202-.06.29-.01a10.843 10.843 0 0 0-1.33-.648c-.41-.156-.961-.345-1.378-.477-.219-.07-.516-.139-.738-.192-1.139-.273-2.537-.43-3.837-.43-1.321 0-2.687.154-3.844.433-.228.054-.532.126-.754.197-.416.133-.965.324-1.371.48-.214.082-.49.215-.696.316-.185.09-.423.226-.603.323"/>
        <path fill="#000" d="M155.395 44.428l3.283 1.883 3.282 1.884 3.282 1.883 3.283 1.883 3.282 1.884 3.282 1.883 3.283 1.883 3.282 1.883 3.283 1.884 3.282 1.883c-.089-.051-.187-.05-.29.009l-32.824-18.832c.103-.06.202-.06.29-.01M56.732 93.005l8.412-4.858 8.41-4.857 8.412-4.858 8.41-4.857 8.412-4.858 8.411-4.857 8.411-4.858 8.411-4.857 8.411-4.858 8.411-4.857c.09-.052.191-.053.296.007L57.03 93.012c-.106-.06-.206-.06-.297-.007"/>
        <path fill="#000" d="M187.928 63.27c3.868 2.219 3.889 5.818.044 8.038l-84.11 48.575c-3.843 2.219-10.096 2.22-13.963 0L57.076 101.05c-3.869-2.219-3.89-5.819-.048-8.038l84.111-48.575c3.844-2.22 10.099-2.219 13.966 0l32.823 18.833"/>
        <g transform="translate(53 63.022)">
            <mask id="b" fill="#fff">
                <use xlink:href="#a"/>
            </mask>
            <path fill="#250F8A" d="M138.791 5.23a6.463 6.463 0 0 0-.185-.925 6.151 6.151 0 0 0-.355-.96 6.278 6.278 0 0 0-.424-.756 5.13 5.13 0 0 0-.458-.61 9.369 9.369 0 0 0-.697-.709c-.26-.233-.64-.504-.926-.707-.151-.107-.369-.227-.527-.325-.088-.05-.187-.05-.29.01 3.868 2.219 3.888 5.818.043 8.038L50.862 56.86c-3.843 2.219-10.096 2.219-13.963 0L4.075 38.028C.207 35.81.185 32.21 4.028 29.99c-.105-.06-.205-.06-.296-.007a19.6 19.6 0 0 0-.969.642c-.14.099-.315.245-.44.36A6.485 6.485 0 0 0 1.1 32.407a6.098 6.098 0 0 0-.72 1.642c-.074.26-.134.569-.18.915-.04.295-.045.518-.053.828l-.001.454c0 .84.137 1.44.257 1.868.218.78.585 1.373.705 1.568.136.22.361.52.491.67.21.24.511.543.747.758.253.232.63.494.911.692.148.105.361.222.516.318l32.824 18.832c.736.42 1.324.646 1.33.648.409.156.961.346 1.379.478.217.069.515.138.737.191 1.138.273 2.537.43 3.837.43 1.32 0 2.685-.154 3.842-.433.228-.054.532-.126.754-.197.415-.133.964-.324 1.37-.48a9.48 9.48 0 0 0 .697-.316c.184-.09.422-.226.602-.322.102-.059.192-.184.262-.36-.07.176-.16.301-.262.36L84.79 41.52l50.466-29.145c.286-.176.666-.412.933-.615.263-.2.591-.495.831-.721.165-.156.362-.387.501-.567.15-.193.333-.465.462-.674.23-.374.491-.98.606-1.41.07-.263.136-.51.191-.908.05-.36.057-.605.064-.916l.002-.454c-.005-.276-.009-.537-.055-.88" mask="url(#b)"/>
        </g>
        <g>
            <path fill="#646764" d="M140.844 41.926c.09-.053.19-.053.295.007 3.844-2.22 10.099-2.219 13.966 0 .103-.06.202-.06.29-.009a10.843 10.843 0 0 0-1.33-.648 27.9 27.9 0 0 0-1.378-.477c-.219-.07-.516-.139-.738-.192-1.139-.273-2.537-.43-3.837-.43-1.321 0-2.687.154-3.844.432-.228.055-.532.127-.754.198-.416.133-.965.324-1.371.48-.214.082-.49.215-.696.316-.185.09-.423.226-.603.323"/>
            <path fill="#646764" d="M155.395 41.924l3.283 1.883 3.282 1.884 3.282 1.883 3.283 1.883 3.282 1.883 3.282 1.884 3.283 1.883 3.282 1.883 3.283 1.883 3.282 1.884c-.089-.05-.187-.05-.29.01l-32.824-18.833c.103-.06.202-.06.29-.01M56.732 90.5l8.412-4.857 8.41-4.857 8.412-4.858 8.41-4.857 8.412-4.858 8.411-4.857 8.411-4.858 8.411-4.857 8.411-4.858 8.411-4.857c.09-.053.191-.053.296.007L57.03 90.508c-.106-.06-.206-.06-.297-.007"/>
            <path fill="#02ECF1" d="M187.928 60.766c3.868 2.219 3.889 5.818.044 8.038l-84.11 48.575c-3.843 2.219-10.096 2.219-13.963 0L57.076 98.546c-3.869-2.218-3.89-5.819-.048-8.038l84.111-48.575c3.844-2.22 10.099-2.219 13.966 0l32.823 18.833z"/>
            <path fill="#250F8A" d="M191.791 65.748a6.456 6.456 0 0 0-.185-.925 6.142 6.142 0 0 0-.355-.96c-.12-.264-.234-.449-.424-.756a5.147 5.147 0 0 0-.458-.61 9.369 9.369 0 0 0-.697-.709c-.26-.233-.64-.504-.926-.707-.151-.107-.369-.227-.527-.324-.088-.051-.187-.051-.29.009 3.868 2.219 3.888 5.818.043 8.038l-84.11 48.575c-3.843 2.219-10.096 2.219-13.963 0L57.075 98.546c-3.868-2.219-3.89-5.819-.047-8.037-.105-.06-.205-.06-.296-.009-.297.184-.685.44-.969.643-.14.099-.315.245-.44.36a8.395 8.395 0 0 0-.618.616c-.315.367-.503.64-.605.806a6.094 6.094 0 0 0-.72 1.642 6.715 6.715 0 0 0-.18.915c-.04.294-.045.518-.053.828l-.001.453c0 .841.137 1.44.257 1.869.218.78.585 1.373.705 1.568.136.22.361.52.491.67.21.241.511.543.747.758.253.232.63.494.911.692.148.105.361.223.516.318l32.824 18.832c.736.42 1.324.646 1.33.648.409.157.961.346 1.379.478.217.069.515.138.737.191 1.138.273 2.537.43 3.837.43 1.32 0 2.685-.154 3.842-.432.228-.055.532-.127.754-.198a27.66 27.66 0 0 0 1.37-.48c.215-.082.49-.215.697-.316.184-.09.422-.225.602-.322.102-.059.192-.183.262-.36-.07.177-.16.301-.262.36l33.645-19.43 50.466-29.145c.286-.176.666-.412.933-.615.263-.2.591-.495.831-.721a5.54 5.54 0 0 0 .501-.567 8.53 8.53 0 0 0 .462-.674c.23-.374.491-.98.606-1.41.07-.263.136-.51.191-.908.05-.36.057-.605.064-.916l.002-.454c-.005-.276-.009-.537-.055-.88"/>
        </g>
        <path fill="#250F8A" d="M168.105 55.874c.395.227.397.595.004.822-.391.226-1.03.226-1.425 0l-7.15-4.103c-.395-.227-.398-.594-.006-.82.393-.228 1.032-.228 1.427 0l7.15 4.101zM156.824 49.402c.394.226.396.593.003.82-.392.227-1.03.227-1.424 0-.396-.227-.398-.594-.006-.82.393-.227 1.031-.227 1.427 0"/>
        <g>
            <path fill="#250F8A" d="M79.459 101.12c1.974 1.133 1.986 2.969.023 4.102-1.96 1.133-5.152 1.133-7.126 0-1.974-1.132-1.984-2.97-.023-4.102 1.962-1.133 5.152-1.132 7.126 0"/>
            <path fill="#263238" d="M72.834 101.621c1.962-1.133 5.152-1.132 7.126 0 .199.114.372.237.531.364a3.534 3.534 0 0 0-1.035-.865c-1.974-1.132-5.164-1.133-7.126 0-1.764 1.019-1.928 2.605-.508 3.739-.837-1.067-.504-2.362 1.012-3.238"/>
        </g>
        <path fill="#FFF" d="M178.924 69.754c.593.34.597.891.007 1.231l-6.11 3.529-5.682 3.282-42.622 24.615-5.848 3.378-8.123 4.69-4.071 2.352c-.59.34-1.546.34-2.139 0L63.582 89.447c-.593-.34-.597-.891-.007-1.231l4.07-2.352 8.124-4.69 5.848-3.378L124.24 53.18l5.683-3.282 6.11-3.528c.588-.34 1.545-.34 2.138 0l40.754 23.384z"/>
        <path fill="#FA7564" d="M69 86.09L76.116 82 118 105.91l-7.116 4.09z"/>
        <g>
            <path fill="#FA7564" d="M105.649 112.843c-.311 0-.608-.069-.816-.189L64.177 89.15c-.16-.093-.194-.173-.194-.185 0-.011.032-.09.188-.18l3.81-2.217 41.791 24.16-3.312 1.928c-.205.12-.5.188-.811.188"/>
            <path fill="#FFCA00" d="M82.92 77.873l41.516-24.159 41.79 24.16-41.515 24.16z"/>
            <path fill="#FA7564" d="M77.086 81.268l4.832-2.811 41.791 24.16-4.832 2.812zM131.108 49.832l5.343-3.11c.206-.12.501-.188.812-.188.31 0 .608.069.815.189l40.657 23.505c.16.093.194.173.194.185 0 .011-.033.09-.188.18l-5.842 3.4-41.79-24.161zM125.439 53.131l4.667-2.716 41.79 24.16-4.667 2.717z"/>
            <path fill="#02ECF1" d="M131.481 43.866l-5.315 3.094L83.37 22.218l5.315-3.093z"/>
            <path fill="#135687" d="M123.573 42.584l.585 1.014-.253.146-.585-1.015zM122.736 41.134l.585 1.014-.253.144-.585-1.014z"/>
            <path fill="#135687" d="M123.91 41.813l.251.435-.588.336-.253.145-.59.336-.25-.437.588-.336.253-.144z"/>
            <path fill="#FFF" d="M111.923 34.595v.41l-11.413-6.597.001-.41z"/>
            <path fill="#250F8A" d="M110.48 35.384l.002-.41-11.412-6.598-.001.41 11.412 6.598zm13.908 8.525l.005-1.703a.726.726 0 0 0-.33-.571l-1.479-.855c-.181-.105-.33-.022-.332.189l-.005 1.702c0 .209.149.465.33.57l1.48.855c.183.106.33.022.331-.187zM83.393 14.012l42.796 24.742-.023 8.206L83.37 22.218l.023-8.206z"/>
            <path fill="#FFF" d="M124.158 43.598l-.585-1.014.589-.336-.252-.435-.589.335-.585-1.015-.253.145.585 1.014-.589.336.251.437.59-.336.585 1.015.253-.146zm-.094-1.963c.183.106.33.36.33.571l-.006 1.703c0 .209-.148.293-.331.187l-1.48-.855a.729.729 0 0 1-.33-.57l.005-1.702c.001-.211.15-.294.332-.19l1.48.856z"/>
            <path fill="#02ECF1" d="M124.383 47.988l-3.897 2.268L77.69 25.513l3.897-2.267z"/>
            <path fill="#FFF" d="M86.587 26.851c.015-.01.025-.029.025-.06a.19.19 0 0 0-.097-.16c-.03-.016-.054-.02-.07-.01-.017.01-.024.03-.025.06a.186.186 0 0 0 .094.157c.032.018.055.023.073.013zm.01 1.026l.002-.867-.17-.098-.002.867.17.098zm.364.21l.003-1.231-.17-.098-.003 1.232.17.098zm-1.942-1.813v-.182a.27.27 0 0 0-.059-.046c-.072-.041-.129-.036-.17.016l-.004-.1-.162-.094-.002.867.169.098.002-.592c.027-.053.078-.058.157-.012a.77.77 0 0 1 .07.045zm3.513 2.722l.001-.573c-.002-.209-.082-.358-.24-.45-.089-.05-.162-.054-.22-.01l-.004-.103-.158-.091-.003.867.17.098.002-.618c.033-.051.083-.058.152-.018a.26.26 0 0 1 .1.097c.021.04.032.087.032.141l-.002.562.17.098zm.796.46v-.012a.622.622 0 0 1-.03-.206l.001-.39a.494.494 0 0 0-.08-.263.614.614 0 0 0-.21-.198.378.378 0 0 0-.158-.055c-.047-.004-.085.007-.112.033-.028.024-.04.062-.04.109l.167.097c0-.035.013-.054.038-.062s.057-.001.095.02a.26.26 0 0 1 .133.226v.058l-.106-.061c-.11-.064-.196-.09-.256-.074-.06.014-.09.067-.09.161 0 .073.025.148.072.226.047.076.11.138.185.181.078.046.144.051.198.017a.524.524 0 0 0 .02.093l.173.1zm-3-2.818l.005-.149a.662.662 0 0 0-.094-.069c-.083-.048-.15-.059-.195-.033-.047.025-.071.086-.071.181v.08l-.115-.066v.144l.114.066-.002.723.17.098.002-.723.153.09v-.145l-.153-.09v-.077c0-.095.041-.119.122-.072.025.014.047.029.064.042zm5.024 3.616v-.078a.783.783 0 0 0-.082-.367.608.608 0 0 0-.238-.252.277.277 0 0 0-.177-.044.168.168 0 0 0-.122.088.43.43 0 0 0-.043.207v.023c0 .13.032.252.098.368a.711.711 0 0 0 .261.269c.061.035.12.055.17.055.05 0 .09-.017.121-.052l-.092-.152c-.049.044-.112.044-.189 0a.385.385 0 0 1-.138-.144.48.48 0 0 1-.062-.206l.493.285zm-3.571-2.065v-.077a.774.774 0 0 0-.084-.369.601.601 0 0 0-.236-.25.27.27 0 0 0-.177-.045.158.158 0 0 0-.122.088.403.403 0 0 0-.045.206v.024c0 .13.032.252.1.368a.708.708 0 0 0 .26.269c.063.036.119.054.17.054.05 0 .09-.016.12-.051l-.09-.152c-.05.044-.112.044-.19-.001a.445.445 0 0 1-.198-.348l.492.284zm-2.012-1.216v-.045a.775.775 0 0 0-.103-.36.66.66 0 0 0-.248-.257.311.311 0 0 0-.182-.05.16.16 0 0 0-.123.086.412.412 0 0 0-.044.205v.01c0 .135.03.261.095.38a.667.667 0 0 0 .253.27c.071.04.132.058.186.05a.154.154 0 0 0 .123-.084.425.425 0 0 0 .043-.205zm-1.289-.745v-.012a.828.828 0 0 0-.078-.373.536.536 0 0 0-.216-.244c-.085-.049-.152-.054-.203-.012l-.005-.092-.158-.091-.003 1.2.17.099v-.412a.52.52 0 0 0 .2.21c.09.05.16.052.214.003.052-.051.079-.142.079-.276zm6.063 3.93l.001-.568a.578.578 0 0 0-.06-.27.476.476 0 0 0-.187-.188c-.1-.057-.176-.056-.231 0a.45.45 0 0 0-.207-.253c-.091-.053-.163-.058-.217-.019l-.004-.093-.16-.092-.003.866.17.099.001-.63c.029-.046.078-.05.145-.011.088.05.133.13.135.231l-.002.571.17.098.001-.594c.01-.034.027-.055.05-.065.026-.009.057-.004.095.018.049.028.083.06.105.101.02.037.031.083.031.139l-.002.564.169.097zm-9.311-3.807c.984.569 1.785.112 1.788-1.02.004-1.135-.793-2.515-1.777-3.084-.984-.569-1.786-.113-1.789 1.021-.003 1.133.793 2.514 1.778 3.083zm-3.523-7.403l42.795 24.744-.018 6.567L77.69 25.515l.019-6.567z"/>
            <path fill="#135687" d="M84.266 26.314c.03-.031.046-.098.046-.2a.572.572 0 0 0-.045-.231.306.306 0 0 0-.128-.153c-.07-.04-.12-.034-.15.014v.385a.346.346 0 0 0 .15.188c.053.03.095.03.127-.003m.136-.47a.832.832 0 0 1 .078.372v.012c0 .134-.027.225-.08.277-.053.048-.124.047-.213-.005a.519.519 0 0 1-.2-.209v.412l-.17-.098.004-1.201.156.09.007.092c.05-.04.117-.036.202.013a.536.536 0 0 1 .216.244"/>
            <path fill="#FFF" d="M84.139 25.73a.307.307 0 0 1 .128.153.57.57 0 0 1 .045.232c0 .101-.016.168-.046.2-.032.032-.074.033-.127.002a.347.347 0 0 1-.15-.189v-.384c.03-.048.08-.053.15-.013"/>
            <path fill="#135687" d="M91.186 30.015v-.014a.423.423 0 0 0-.045-.175.288.288 0 0 0-.11-.112c-.047-.027-.085-.031-.113-.01-.028.02-.047.062-.055.124l.323.187m.166.161v.078l-.493-.285a.48.48 0 0 0 .062.206.385.385 0 0 0 .138.143c.077.045.14.045.189 0l.092.153a.155.155 0 0 1-.12.052.355.355 0 0 1-.17-.055.713.713 0 0 1-.262-.269.725.725 0 0 1-.098-.368v-.023a.43.43 0 0 1 .043-.207.168.168 0 0 1 .122-.088.277.277 0 0 1 .177.044c.102.059.181.143.238.252a.786.786 0 0 1 .082.367"/>
            <path fill="#FFF" d="M91.031 29.714a.29.29 0 0 1 .11.112c.026.05.04.107.045.175v.014l-.324-.187c.009-.062.028-.104.056-.124.028-.02.066-.017.113.01M88.903 28.836c.036-.005.09.01.161.05l.105.057v.174a.091.091 0 0 1-.077.04.211.211 0 0 1-.107-.03.277.277 0 0 1-.098-.088.206.206 0 0 1-.037-.116c0-.05.018-.079.053-.087"/>
            <path fill="#135687" d="M89.13 29.098l.001-.162-.093-.054c-.063-.036-.11-.05-.141-.046-.032.007-.048.035-.048.082 0 .036.011.073.033.107.022.034.05.062.086.083a.178.178 0 0 0 .095.027.08.08 0 0 0 .068-.037zm.168.14c0 .078.01.147.03.206v.012l-.173-.1a.483.483 0 0 1-.02-.093c-.054.034-.12.029-.198-.017a.526.526 0 0 1-.185-.18.439.439 0 0 1-.072-.227c0-.094.03-.147.09-.161.06-.016.146.01.256.074l.105.06v-.057a.26.26 0 0 0-.133-.225c-.037-.022-.069-.03-.094-.02-.025.006-.038.026-.038.06l-.168-.096c0-.047.013-.085.041-.109.027-.026.065-.036.112-.033.047.004.1.021.157.055.09.052.159.117.212.198a.494.494 0 0 1 .08.263l-.002.39z"/>
            <path fill="#FFF" d="M87.459 27.648a.288.288 0 0 1 .11.113.4.4 0 0 1 .044.174v.015l-.322-.187c.009-.062.026-.104.056-.123.028-.022.066-.018.112.008"/>
            <path fill="#135687" d="M85.551 27.056c.034-.032.05-.098.05-.196a.56.56 0 0 0-.05-.239.329.329 0 0 0-.133-.153c-.055-.031-.099-.032-.13.001-.034.031-.05.096-.05.198 0 .088.015.168.047.236a.33.33 0 0 0 .133.153c.058.034.102.034.133 0m.115-.487a.775.775 0 0 1 .103.36v.044a.425.425 0 0 1-.043.205.154.154 0 0 1-.123.085.301.301 0 0 1-.186-.051.667.667 0 0 1-.253-.27.78.78 0 0 1-.095-.38v-.01c0-.084.014-.154.044-.205a.16.16 0 0 1 .123-.087.311.311 0 0 1 .182.051.66.66 0 0 1 .248.258"/>
            <path fill="#FFF" d="M85.418 26.468a.33.33 0 0 1 .133.154.56.56 0 0 1 .05.238c0 .098-.016.164-.05.196-.031.034-.075.034-.133 0a.33.33 0 0 1-.133-.153.565.565 0 0 1-.047-.236c0-.102.016-.167.05-.198.031-.032.075-.032.13 0M81.827 23.672l.252.437-.59.336-.253.144-.589.335-.251-.435.589-.336.253-.145z"/>
            <path fill="#EFEFEF" d="M82.075 25.46l-.585-1.015.589-.336-.252-.437-.589.336-.585-1.015-.254.145.586 1.015-.59.336.252.435.59-.335.585 1.014.253-.143m-.832-3.213c.984.57 1.78 1.949 1.778 3.083-.004 1.133-.805 1.59-1.79 1.021-.984-.569-1.78-1.95-1.777-3.083.003-1.134.805-1.59 1.789-1.02"/>
            <path fill="#FFF" d="M81.49 24.445l.585 1.015-.253.143-.586-1.014zM80.653 22.993l.585 1.015-.253.145-.586-1.015z"/>
            <path fill="#135687" d="M84.96 26.046c.024.014.044.03.06.046v.182a.706.706 0 0 0-.07-.045c-.078-.045-.13-.041-.157.012l-.002.592-.17-.098.003-.867.162.094.004.1c.041-.052.098-.057.17-.016M86.239 26.42c.03.017.061.041.094.07l-.005.148a.553.553 0 0 0-.064-.042c-.08-.047-.122-.023-.122.072v.078l.154.09v.143l-.155-.089-.001.723-.17-.098.002-.723-.115-.066v-.144l.115.066v-.08c0-.095.025-.156.072-.18.046-.027.111-.016.195.032M86.427 27.78l.003-.868.22.098-.003.867zM86.542 26.906a.242.242 0 0 1-.122-.205c0-.038.01-.065.031-.08.023-.012.054-.006.092.017a.244.244 0 0 1 .126.207c0 .04-.012.064-.032.078-.023.012-.054.007-.095-.017M87.016 26.856l-.005 1.232-.22-.099.005-1.231zM87.613 27.95v-.015a.4.4 0 0 0-.045-.175.288.288 0 0 0-.11-.112c-.045-.026-.083-.03-.111-.008-.03.019-.047.061-.056.123l.322.187m.168.162v.077l-.493-.285a.443.443 0 0 0 .199.349c.078.045.141.045.19.001l.09.152a.15.15 0 0 1-.12.051.352.352 0 0 1-.17-.054.708.708 0 0 1-.26-.269.718.718 0 0 1-.1-.368v-.024c0-.086.015-.156.045-.206a.158.158 0 0 1 .122-.088.27.27 0 0 1 .176.044c.102.059.18.142.237.251.057.107.085.23.084.369M88.294 27.974c.157.09.237.24.24.45l-.002.572-.17-.098.002-.562a.304.304 0 0 0-.031-.14.261.261 0 0 0-.1-.098c-.07-.04-.12-.033-.153.018l-.002.618-.17-.098.003-.867.159.091.004.103c.057-.044.13-.04.22.01M90.297 29.132a.476.476 0 0 1 .186.187c.04.075.061.166.061.27l-.002.57-.168-.098.002-.563a.285.285 0 0 0-.031-.14.268.268 0 0 0-.105-.1c-.038-.022-.07-.027-.094-.018-.024.01-.041.03-.05.065l-.002.594-.17-.098.002-.57a.257.257 0 0 0-.135-.232c-.067-.04-.116-.035-.145.012l-.001.629-.17-.099.002-.866.16.092.005.093c.054-.04.126-.034.217.019.1.058.17.143.207.253.055-.056.132-.057.23 0"/>
            <path fill="#02ECF1" d="M99.236 62.612l-21.258 12.37-42.796-24.741L56.44 37.87z"/>
            <path fill="#FFCA00" d="M70.703 43.874c1.91 1.104 3.461.218 3.467-1.98.007-2.197-1.535-4.872-3.445-5.975-1.91-1.105-3.462-.219-3.468 1.979-.006 2.197 1.536 4.871 3.446 5.976zm-33.58-4.167l35.663 20.617-7.033-16.327c-.351-.814-.916-1.447-1.483-1.775-.558-.323-1.117-.348-1.473.042l-2.812 3.076c-.357.392-.915.364-1.472.042-.595-.344-1.188-1.024-1.53-1.889l-7.074-17.876c-.346-.874-.938-1.548-1.53-1.89-.627-.363-1.254-.352-1.587.191l-9.669 15.789zm-1.8-39.53L78.12 24.92l-.142 50.063L35.182 50.24 35.324.178z"/>
            <path fill="#FFF" d="M48.379 23.726c.592.343 1.184 1.017 1.53 1.89l7.073 17.877c.343.865.936 1.545 1.531 1.89.556.321 1.115.349 1.472-.043l2.812-3.076c.356-.39.915-.365 1.473-.042.566.328 1.132.961 1.483 1.775l7.033 16.328-35.663-20.618 9.669-15.789c.333-.543.96-.554 1.587-.192M70.725 35.919c1.91 1.104 3.452 3.778 3.446 5.975-.007 2.198-1.559 3.084-3.468 1.98-1.91-1.104-3.452-3.779-3.446-5.976.006-2.198 1.558-3.084 3.468-1.98"/>
            <path fill="#02ECF1" d="M76.177 76.071l-3.896 2.268-42.796-24.742 3.896-2.268z"/>
            <path fill="#FFF" d="M31.763 50.658l.585 1.015-.253.144-.585-1.015c-.07-.12-.07-.25 0-.29.035-.02.081-.013.127.013a.362.362 0 0 1 .126.133M41.238 56.076c.045.026.09.072.125.132.07.122.07.251-.001.29l-.59.336-.252.144-.59.337c-.034.02-.08.014-.125-.012a.37.37 0 0 1-.126-.134c-.07-.12-.069-.249 0-.29l.59-.336.253-.144.589-.337c.035-.02.08-.013.127.014"/>
            <path fill="#FFF" d="M41.589 58.158l.005-1.702a.726.726 0 0 0-.33-.57l-1.48-.855c-.18-.105-.33-.02-.33.188l-.005 1.703c0 .21.147.465.328.57l1.48.856c.183.105.331.02.332-.19zm-3.924-2.268l.005-1.703a.725.725 0 0 0-.328-.568l-1.48-.856c-.183-.106-.331-.02-.332.188l-.004 1.702c0 .21.146.466.33.572l1.479.855c.181.105.33.02.33-.19zm-4.251-2.458l.005-1.702a.726.726 0 0 0-.328-.57l-1.48-.854c-.183-.106-.331-.022-.332.187l-.005 1.702c0 .211.147.466.33.572l1.48.855c.181.105.329.02.33-.19zm-3.91-6.607L72.3 71.567l-.02 6.772-42.795-24.742.019-6.772z"/>
            <path fill="#FFF" d="M33.063 51.35a.367.367 0 0 1 .126.133c.07.12.069.25 0 .29l-.59.336-.252.144-.59.336c-.034.02-.08.015-.126-.012a.357.357 0 0 1-.126-.133c-.07-.12-.07-.25.001-.29l.59-.337.252-.144.59-.336c.034-.02.08-.014.125.013"/>
            <path fill="#EFEFEF" d="M33.185 53.124l-.586-1.015.59-.337c.069-.04.07-.168 0-.29a.369.369 0 0 0-.126-.132c-.046-.027-.09-.033-.126-.013l-.589.336-.585-1.015a.361.361 0 0 0-.126-.133c-.046-.026-.092-.033-.126-.013-.071.04-.072.17-.001.29l.585 1.015-.589.337c-.07.04-.071.17 0 .29a.36.36 0 0 0 .125.133c.046.027.092.033.126.012l.59-.336.585 1.015c.034.06.08.107.125.134.046.026.092.032.127.012.07-.04.07-.169 0-.29zm-.094-1.963c.18.105.328.36.328.569l-.005 1.702c0 .21-.15.295-.33.19l-1.48-.855a.727.727 0 0 1-.33-.572l.005-1.702c0-.209.149-.293.332-.187l1.48.855z"/>
            <path fill="#FFF" d="M33.185 53.124c.068.121.068.25-.001.29-.035.02-.081.014-.127-.012a.357.357 0 0 1-.125-.134l-.585-1.015.252-.144.586 1.015zM41.358 57.85c.07.122.07.25 0 .29-.036.02-.08.014-.126-.012a.367.367 0 0 1-.127-.134l-.585-1.016.253-.144.585 1.016z"/>
            <path fill="#EFEFEF" d="M41.358 57.85l-.585-1.016.589-.336c.07-.039.071-.168 0-.29a.36.36 0 0 0-.124-.132c-.046-.027-.092-.033-.127-.014l-.59.336-.585-1.015a.361.361 0 0 0-.125-.132c-.046-.026-.092-.033-.127-.014-.07.042-.07.171 0 .29l.585 1.016-.59.336c-.069.041-.07.17 0 .29.035.06.08.108.126.134.046.026.091.032.125.012l.59-.337.585 1.016c.036.06.081.107.127.134.045.026.09.032.125.012.071-.04.071-.168.001-.29zm-.094-1.964c.183.106.33.361.33.57l-.005 1.702c0 .211-.149.295-.332.19l-1.48-.856a.726.726 0 0 1-.328-.57l.005-1.703c.001-.209.149-.293.33-.188l1.48.855z"/>
            <path fill="#FFF" d="M39.936 55.383l.586 1.016-.253.144-.586-1.016c-.069-.12-.068-.248.001-.29.035-.019.081-.012.127.014a.36.36 0 0 1 .125.132"/>
            <path fill="#EFEFEF" d="M37.436 55.582l-.586-1.016.59-.336c.069-.04.07-.169 0-.29a.371.371 0 0 0-.126-.133c-.045-.026-.09-.032-.125-.012l-.59.336-.585-1.016a.366.366 0 0 0-.126-.132c-.046-.026-.092-.033-.126-.013-.071.04-.071.17 0 .29l.584 1.015-.589.336c-.07.04-.071.17 0 .29.034.06.08.108.125.134.046.026.092.033.126.012l.59-.336.585 1.015c.034.06.08.107.125.134.046.026.092.032.127.012.07-.04.07-.169.001-.29zm-.094-1.963c.181.104.328.36.328.568l-.005 1.703c0 .21-.149.295-.33.19l-1.48-.855a.727.727 0 0 1-.33-.572l.005-1.702c.001-.21.15-.294.332-.188l1.48.856z"/>
            <path fill="#FFF" d="M37.436 55.582c.069.121.068.25-.001.29-.035.02-.081.014-.127-.012a.358.358 0 0 1-.125-.134l-.585-1.015.252-.145.586 1.016z"/>
            <path fill="#FFF" d="M37.314 53.807a.37.37 0 0 1 .127.133c.068.121.068.25-.001.29l-.59.336-.252.145-.59.336c-.034.02-.08.015-.126-.012a.358.358 0 0 1-.125-.134c-.071-.12-.07-.25 0-.29l.59-.336.252-.144.59-.336c.034-.02.08-.014.125.012"/>
            <path fill="#FFF" d="M36.014 53.115l.585 1.016-.252.144-.586-1.015c-.07-.12-.07-.25 0-.29.035-.02.081-.013.127.013a.364.364 0 0 1 .126.132"/>
            <path fill="#02ECF1" d="M70.799 79.163l-6.703 3.9L21.3 58.321l6.703-3.9z"/>
            <path fill="#135687" d="M57.848 74.372v-.264a.764.764 0 0 0-.036-.264.288.288 0 0 0-.124-.147c-.057-.033-.098-.033-.123.001-.027.034-.04.102-.041.204l-.001.264c0 .108.012.197.039.267a.287.287 0 0 0 .123.15c.055.032.096.033.121-.003.027-.034.041-.103.042-.208m.088-.566a.991.991 0 0 1 .082.417v.2c-.001.168-.028.28-.083.334-.056.053-.139.047-.25-.018a.6.6 0 0 1-.246-.267.964.964 0 0 1-.086-.418v-.203c.001-.168.03-.276.084-.33.055-.051.138-.047.251.019.11.063.193.153.248.266"/>
            <path fill="#F9F9FA" d="M57.688 73.697a.288.288 0 0 1 .123.148.763.763 0 0 1 .037.263v.264c0 .105-.015.174-.042.208-.025.036-.066.035-.12.004a.29.29 0 0 1-.125-.152.751.751 0 0 1-.038-.266v-.264c.003-.102.015-.17.042-.204.025-.034.066-.034.123-.001M56.875 73.531c.068.04.118.1.15.184l-.002.383c-.033.048-.083.051-.15.012a.31.31 0 0 1-.13-.148.554.554 0 0 1-.046-.234c0-.099.016-.164.048-.196.03-.034.074-.034.13 0M53.507 73.254a.28.28 0 0 1 .124.147.719.719 0 0 1 .038.263v.264c-.003.105-.015.174-.042.21-.025.033-.066.035-.121.003a.286.286 0 0 1-.124-.153.74.74 0 0 1-.038-.266v-.264c0-.103.015-.17.042-.202.025-.034.066-.034.12-.002"/>
            <path fill="#135687" d="M53.438 72.025v-.164l-.092-.054c-.063-.036-.11-.05-.142-.043-.031.006-.047.032-.047.079 0 .037.01.073.033.107.022.037.05.064.086.084.033.02.065.029.094.026a.083.083 0 0 0 .068-.035zm.168.14c0 .078.009.145.03.204v.012l-.173-.1a.455.455 0 0 1-.02-.09c-.054.032-.12.026-.199-.02a.516.516 0 0 1-.256-.406c0-.093.03-.146.09-.162.06-.014.146.01.255.074l.106.06v-.055a.257.257 0 0 0-.133-.227c-.038-.022-.07-.028-.094-.02-.026.007-.038.028-.038.063l-.168-.097c0-.05.013-.085.04-.11.028-.026.065-.037.113-.034.047.004.099.022.157.055a.62.62 0 0 1 .211.2.49.49 0 0 1 .08.262l-.001.391z"/>
            <path fill="#F9F9FA" d="M53.4 72.082a.19.19 0 0 1-.108-.027.259.259 0 0 1-.098-.09.2.2 0 0 1-.037-.116c0-.05.018-.078.054-.085.036-.008.09.008.16.047l.106.057v.176a.096.096 0 0 1-.078.038"/>
            <path fill="#135687" d="M52.844 73.654l.001-.382a.348.348 0 0 0-.149-.185c-.057-.033-.1-.033-.13 0-.032.035-.048.1-.048.199 0 .086.015.164.046.233.03.066.074.117.129.149.067.039.118.033.15-.014zm.019-.614l.152.088-.002.84c0 .114-.03.187-.093.216-.062.031-.145.016-.249-.044a.67.67 0 0 1-.161-.133.695.695 0 0 1-.121-.173l.08-.072c.052.101.116.174.193.219.055.032.1.04.132.024.033-.018.049-.059.049-.128v-.057c-.048.035-.113.028-.195-.019a.557.557 0 0 1-.216-.246.867.867 0 0 1-.082-.384c0-.134.027-.227.082-.274.056-.05.13-.047.22.005a.51.51 0 0 1 .203.22l.008-.082z"/>
            <path fill="#F9F9FA" d="M52.696 73.087c.067.039.118.102.149.185l-.001.382c-.033.047-.083.053-.151.013a.32.32 0 0 1-.129-.148.554.554 0 0 1-.046-.233c0-.1.016-.164.048-.199.03-.033.074-.033.13 0M51.807 72.924c.036-.006.09.01.162.049l.104.056v.174c-.017.026-.044.036-.076.04a.22.22 0 0 1-.11-.03.278.278 0 0 1-.098-.088.199.199 0 0 1-.036-.117c0-.048.018-.077.054-.084"/>
            <path fill="#135687" d="M51.833 70.859l-.204-.092.054-.229.202.09z"/>
            <path fill="#F9F9FA" d="M51.885 70.629l-.052.23-.204-.092.054-.229z"/>
            <path fill="#135687" d="M49.259 71.58v-.162l-.092-.053c-.063-.037-.11-.051-.142-.046-.031.007-.047.034-.047.08a.2.2 0 0 0 .032.109c.022.034.05.061.087.082a.18.18 0 0 0 .094.027c.03-.002.052-.013.068-.036zm.168.141c0 .078.009.147.027.203v.014l-.172-.1a.634.634 0 0 1-.02-.092c-.053.034-.119.028-.197-.017a.526.526 0 0 1-.185-.181.431.431 0 0 1-.072-.226c0-.094.03-.147.09-.162.06-.015.146.01.256.075l.105.06v-.058a.263.263 0 0 0-.133-.225c-.037-.021-.068-.029-.094-.02-.025.007-.037.027-.038.061l-.17-.098c.001-.046.015-.084.044-.109.027-.024.064-.035.111-.033a.41.41 0 0 1 .158.056c.089.052.158.117.211.199a.493.493 0 0 1 .08.263l-.001.39z"/>
            <path fill="#F9F9FA" d="M49.032 71.319c.035-.006.089.01.16.049l.106.057-.001.174c-.018.025-.043.037-.077.04a.215.215 0 0 1-.107-.03.277.277 0 0 1-.098-.088.207.207 0 0 1-.037-.117c0-.048.018-.077.054-.085M48.463 68.866v.011l-.378-.219c.01-.072.031-.12.066-.144.036-.022.079-.02.132.011a.326.326 0 0 1 .127.135c.031.06.048.128.053.206"/>
            <path fill="#135687" d="M47.929 70.349l-.167-.097-.04.229.154.089v.126l-.176-.101-.053.298-.117-.068.054-.297-.155-.09-.055.297-.117-.068.054-.297-.16-.093v-.127l.182.106.04-.229-.17-.098.001-.126.192.11.054-.303.116.067-.054.304.157.09.054-.303.116.068-.054.303.144.083z"/>
            <path fill="#135687" d="M47.651 70.416l-.202-.09.054-.23.202.09z"/>
            <path fill="#F9F9FA" d="M47.45 70.325l.053-.23.202.091-.054.23zM47.237 68.157v.011l-.377-.217c.008-.074.03-.122.067-.145.034-.023.078-.02.13.01a.337.337 0 0 1 .129.136c.031.06.048.128.05.205M41.098 65.028a.395.395 0 0 1-.155-.177.593.593 0 0 1-.057-.264c0-.109.02-.183.059-.218.039-.035.09-.034.154.003a.391.391 0 0 1 .156.179c.04.082.058.169.058.265 0 .106-.02.178-.057.214-.04.037-.092.036-.158-.002"/>
            <path fill="#26272C" d="M41.256 65.03c.037-.036.056-.108.057-.214a.601.601 0 0 0-.058-.265.39.39 0 0 0-.156-.18c-.063-.036-.115-.037-.154-.002-.04.035-.059.11-.06.218 0 .095.019.184.058.264.04.081.091.14.155.177.066.038.118.04.158.002m.092-.514c.063.12.094.246.094.381v.01a.42.42 0 0 1-.042.203.155.155 0 0 1-.121.087c-.052.008-.113-.009-.181-.048a.637.637 0 0 1-.247-.266.794.794 0 0 1-.095-.379v-.01c0-.086.016-.152.044-.205.03-.051.07-.08.122-.087a.29.29 0 0 1 .177.047c.104.06.187.15.25.267"/>
            <path fill="#F9F9FA" d="M39.495 63.682v.01l-.378-.218c.01-.073.032-.121.066-.145.035-.023.08-.02.131.01a.329.329 0 0 1 .129.136.5.5 0 0 1 .052.207M36.707 63.843a.355.355 0 0 1 .15.186v.381c-.033.048-.085.052-.153.013a.321.321 0 0 1-.128-.148.553.553 0 0 1-.047-.233c0-.1.017-.165.048-.199.031-.032.074-.033.13 0M32.343 59.31a.393.393 0 0 1 .157.179.6.6 0 0 1 .057.264c0 .107-.02.179-.058.214-.038.038-.09.037-.156-.001a.388.388 0 0 1-.155-.177.597.597 0 0 1-.058-.265c0-.108.02-.182.059-.217.04-.035.09-.035.154.002M31.46 61.08l.055-.229.202.09-.052.231z"/>
            <path fill="#135687" d="M31.94 61.104l-.165-.095-.041.227.154.09v.126l-.177-.102-.052.3-.116-.068.052-.299-.155-.09-.054.298-.117-.067.053-.299-.16-.092v-.127l.183.105.04-.228-.168-.097v-.127l.19.11.054-.303.118.068-.056.302.157.091.054-.303.117.067-.055.303.145.084z"/>
            <path fill="#135687" d="M31.665 61.172l-.204-.091.054-.23.202.09z"/>
            <path fill="#F9F9FA" d="M30.404 58.223a.282.282 0 0 1 .11.114c.027.048.04.106.045.174v.015l-.323-.187c.008-.062.027-.104.055-.126.029-.021.067-.017.113.01M29.526 59.388a.286.286 0 0 1 .123.148.753.753 0 0 1 .039.262l-.001.264c-.002.106-.016.173-.042.21-.026.033-.067.034-.12.004a.29.29 0 0 1-.126-.154.74.74 0 0 1-.038-.267v-.263c.002-.102.017-.17.042-.203.027-.033.067-.033.123-.001M28.713 59.22a.355.355 0 0 1 .15.187v.381c-.034.048-.086.052-.153.013a.324.324 0 0 1-.128-.148.546.546 0 0 1-.046-.233c0-.099.015-.165.047-.2.031-.032.074-.032.13 0"/>
            <path fill="#135687" d="M28.502 57.608v-.165l-.09-.052c-.063-.036-.11-.051-.142-.044-.031.007-.047.032-.047.08 0 .037.01.073.033.107.022.036.05.063.086.084a.16.16 0 0 0 .094.026c.03-.001.052-.014.066-.036zm.17.141c0 .078.009.144.027.202v.013l-.172-.1a.687.687 0 0 1-.02-.09c-.052.032-.119.027-.197-.019a.511.511 0 0 1-.185-.18.419.419 0 0 1-.072-.227c0-.092.03-.145.09-.161.06-.015.147.01.256.074l.104.06v-.057a.254.254 0 0 0-.131-.226c-.038-.021-.07-.028-.094-.02-.026.007-.038.03-.038.063l-.17-.098c0-.048.015-.084.043-.109.027-.026.064-.037.111-.033.048.004.1.021.158.055.089.051.158.119.211.2.052.08.078.168.08.261l-.001.392z"/>
            <path fill="#F9F9FA" d="M28.277 57.347c.036-.008.09.008.162.047l.103.057v.176a.088.088 0 0 1-.075.039.193.193 0 0 1-.108-.027.265.265 0 0 1-.099-.091.201.201 0 0 1-.037-.116c0-.05.018-.077.054-.085M26.987 56.446v.014l-.322-.186c.008-.062.025-.105.054-.126.03-.02.067-.017.113.01a.277.277 0 0 1 .11.113.392.392 0 0 1 .045.175"/>
            <path fill="#135687" d="M26.987 56.46v-.014a.392.392 0 0 0-.045-.175.28.28 0 0 0-.11-.114c-.046-.026-.083-.03-.113-.01-.029.022-.046.065-.054.127l.322.186m.167.16v.08l-.492-.285a.46.46 0 0 0 .06.205c.038.063.083.11.138.141.079.046.142.046.19.002l.091.154a.155.155 0 0 1-.121.05.376.376 0 0 1-.17-.056.703.703 0 0 1-.26-.266.725.725 0 0 1-.1-.369v-.023c0-.087.015-.156.045-.208a.158.158 0 0 1 .123-.088.269.269 0 0 1 .176.044.6.6 0 0 1 .237.25.784.784 0 0 1 .083.37M24.925 55.567c.031-.035.049-.099.05-.198a.546.546 0 0 0-.05-.237.329.329 0 0 0-.134-.155c-.055-.031-.098-.032-.132 0-.031.032-.049.098-.049.198 0 .09.017.168.048.237a.33.33 0 0 0 .133.153c.058.034.102.034.134.002m.114-.49a.79.79 0 0 1 .103.36v.045a.418.418 0 0 1-.043.205.164.164 0 0 1-.123.087.316.316 0 0 1-.185-.053.66.66 0 0 1-.254-.268.786.786 0 0 1-.095-.383v-.009c0-.085.015-.152.045-.204a.152.152 0 0 1 .122-.086.309.309 0 0 1 .183.05.661.661 0 0 1 .247.256"/>
            <path fill="#F9F9FA" d="M24.791 54.977a.33.33 0 0 1 .134.155c.032.07.05.148.05.237-.001.1-.019.163-.05.197-.032.033-.076.033-.134 0a.33.33 0 0 1-.133-.154.56.56 0 0 1-.048-.237c0-.1.018-.166.05-.198.033-.032.076-.031.131 0M23.512 54.826a.34.34 0 0 1-.15-.189v-.384c.032-.047.081-.052.15-.012a.31.31 0 0 1 .129.15.57.57 0 0 1 .045.233c-.001.101-.017.168-.047.201-.031.03-.074.031-.127 0"/>
            <path fill="#135687" d="M28.462 54.72v-.014a.392.392 0 0 0-.046-.174.278.278 0 0 0-.11-.114c-.044-.027-.083-.029-.112-.01-.029.022-.046.064-.054.126l.322.186m.168.16v.08l-.494-.285a.463.463 0 0 0 .061.205.39.39 0 0 0 .138.143c.078.046.141.046.19.002l.091.152a.15.15 0 0 1-.121.051.35.35 0 0 1-.17-.055.708.708 0 0 1-.26-.268.717.717 0 0 1-.1-.369v-.023c0-.087.015-.156.045-.208a.161.161 0 0 1 .123-.088c.052-.008.11.008.176.046a.61.61 0 0 1 .236.249.787.787 0 0 1 .085.369"/>
            <path fill="#F9F9FA" d="M28.462 54.706v.014l-.322-.186c.008-.062.025-.105.054-.126.03-.019.068-.017.113.01a.277.277 0 0 1 .11.114.392.392 0 0 1 .045.174M34.84 61.254c0-.106.08-.115.238-.023l.1.058v.178a.092.092 0 0 1-.079.049.195.195 0 0 1-.114-.03.284.284 0 0 1-.144-.232"/>
            <path fill="#135687" d="M26.062 52.68l-.31.4.313.77-.206-.119-.217-.554-.22.302-.205-.119.316-.407-.305-.755.203.117.212.544.215-.297zM26.77 52.994l-.005 1.232-.22-.098.005-1.232zM26.91 54.338l.003-.866.22.097-.003.867zM27.026 53.466a.236.236 0 0 1-.092-.094.219.219 0 0 1-.033-.113c0-.04.011-.064.033-.077.02-.014.052-.01.093.013a.241.241 0 0 1 .09.093.224.224 0 0 1 .034.116c0 .037-.011.064-.033.075-.02.014-.054.01-.092-.013M27.436 53.409l-.002.71.053-.045.21-.149.202.117-.28.2.307.685-.196-.114-.221-.5-.076.044v.284l-.17-.098.003-1.232zM29.043 54.688c.09.051.162.118.218.202a.451.451 0 0 1 .083.248l-.17-.098a.22.22 0 0 0-.035-.115.27.27 0 0 0-.096-.093c-.037-.021-.067-.028-.091-.022-.024.006-.036.025-.036.059 0 .029.01.059.032.088.022.03.066.072.132.126.068.056.12.107.157.15.037.046.066.091.084.135a.36.36 0 0 1 .027.132c0 .08-.029.127-.084.142-.057.016-.13-.001-.222-.054a.657.657 0 0 1-.164-.135.63.63 0 0 1-.113-.17.428.428 0 0 1-.04-.17l.164.095a.245.245 0 0 0 .046.133c.026.04.064.075.11.102.045.026.078.034.102.03.023-.006.034-.025.034-.058a.166.166 0 0 0-.036-.1.771.771 0 0 0-.123-.119 1.273 1.273 0 0 1-.145-.138c-.084-.096-.126-.187-.126-.277 0-.074.028-.121.083-.14.054-.018.125-.002.21.047M23.64 54.825c.03-.033.045-.1.045-.201a.575.575 0 0 0-.044-.232.31.31 0 0 0-.13-.15c-.068-.04-.117-.036-.148.01l-.001.385a.339.339 0 0 0 .15.189c.053.03.096.03.127 0m.137-.474c.053.11.078.234.077.374v.011c0 .134-.027.227-.08.276-.053.049-.123.048-.213-.004a.521.521 0 0 1-.199-.209l-.001.412-.17-.098.004-1.202.157.091.006.092c.05-.04.118-.036.203.013a.537.537 0 0 1 .216.244M25.8 56.288l.003-.867.22.098-.003.867zM25.916 55.415a.243.243 0 0 1-.092-.091.23.23 0 0 1-.03-.112c0-.04.01-.067.03-.081.023-.013.054-.007.093.016a.246.246 0 0 1 .126.21c0 .037-.013.06-.033.075-.023.012-.053.007-.094-.017M26.39 55.366l-.006 1.23-.22-.098.005-1.23zM27.667 56.483c.158.09.237.242.24.45l-.002.572-.17-.098.002-.562a.288.288 0 0 0-.03-.14.25.25 0 0 0-.101-.097c-.07-.04-.12-.035-.154.018l-.002.616-.168-.097.002-.867.159.091.004.104c.057-.045.13-.043.22.01M29.67 57.64a.465.465 0 0 1 .185.187c.041.078.063.169.062.271l-.001.57-.17-.099.002-.563a.285.285 0 0 0-.03-.138.277.277 0 0 0-.105-.099c-.037-.022-.069-.03-.094-.02a.099.099 0 0 0-.05.065l-.002.594-.17-.098.002-.57a.254.254 0 0 0-.135-.23c-.069-.04-.116-.037-.144.012l-.002.626-.17-.098.003-.867.16.093.005.093c.051-.04.125-.034.216.019.101.058.17.143.207.253.055-.057.132-.057.231 0"/>
            <path fill="#26272C" d="M31.97 58.687l-.351.53-.002.434-.133-.077.001-.433-.348-.936.154.089.262.74.265-.435zM32.499 59.967c.039-.035.058-.107.058-.214a.6.6 0 0 0-.057-.264.394.394 0 0 0-.157-.18c-.064-.037-.115-.037-.154-.002-.04.035-.059.11-.059.217 0 .096.019.185.058.265.037.08.089.139.155.177.066.038.118.039.156.001m.094-.513c.062.119.093.246.093.38v.012c0 .083-.015.15-.043.2-.028.053-.068.083-.121.088-.052.008-.112-.008-.18-.047a.64.64 0 0 1-.247-.266.78.78 0 0 1-.095-.38v-.01c0-.085.014-.152.044-.204a.155.155 0 0 1 .122-.087.288.288 0 0 1 .177.046.663.663 0 0 1 .25.268M33.439 59.836l-.002.867-.123-.07-.001-.086c-.05.04-.125.03-.222-.027a.475.475 0 0 1-.183-.186.589.589 0 0 1-.064-.276l.002-.565.128.074-.001.56c0 .132.046.226.139.28.099.057.165.052.197-.013l.001-.632.129.074zM34.29 60.312c.085.049.155.12.21.21.056.09.086.184.089.277l-.12-.07a.373.373 0 0 0-.057-.17.345.345 0 0 0-.122-.125c-.067-.037-.117-.04-.153-.006-.036.033-.054.1-.054.204v.029c0 .099.017.187.053.26a.376.376 0 0 0 .153.17c.046.026.085.033.12.022.034-.012.053-.041.058-.087l.121.07a.179.179 0 0 1-.044.117c-.027.03-.065.042-.11.043a.283.283 0 0 1-.145-.044.633.633 0 0 1-.245-.259.778.778 0 0 1-.09-.376v-.025c0-.085.013-.152.04-.203.029-.049.066-.078.117-.085.05-.009.11.008.179.048M35.178 61.468v-.18l-.1-.057c-.158-.092-.237-.083-.237.023 0 .045.014.092.04.132a.284.284 0 0 0 .104.1c.04.024.078.033.114.03a.092.092 0 0 0 .079-.048zm.129.114c0 .079.009.148.026.205v.012l-.135-.078a.44.44 0 0 1-.017-.1c-.062.035-.132.03-.215-.018a.524.524 0 0 1-.184-.178.423.423 0 0 1-.07-.225c0-.09.03-.142.09-.158.06-.016.143.007.251.07l.126.072v-.067c0-.052-.012-.101-.039-.147a.321.321 0 0 0-.12-.114c-.046-.028-.084-.037-.115-.028-.032.01-.048.03-.048.069l-.128-.075c0-.043.013-.078.04-.102a.14.14 0 0 1 .11-.032c.045.003.095.02.15.051.086.05.154.115.204.194a.484.484 0 0 1 .075.25l-.001.399zM35.863 61.221c.16.093.24.244.24.45l-.001.573-.129-.074.002-.573a.353.353 0 0 0-.037-.16.294.294 0 0 0-.115-.112c-.04-.024-.078-.033-.11-.026a.118.118 0 0 0-.074.059l-.002.617-.128-.074.002-.867.122.07.003.113c.059-.052.134-.05.227.004M37.592 62.237l-.222.74-.103-.06-.182-.761-.181.552-.104-.06-.217-.994.129.075.147.736.176-.55.104.06.178.768.147-.58zM38.215 63.466l.003-.867.167.074-.003.867zM38.307 62.548a.186.186 0 0 1-.074-.075.182.182 0 0 1-.026-.093c0-.03.008-.054.026-.065.017-.012.041-.01.074.01a.184.184 0 0 1 .073.075c.017.031.025.064.025.094 0 .031-.009.052-.025.064-.016.011-.04.01-.073-.01M38.728 62.684v.21l.139.08v.116l-.14-.08-.002.537c0 .035.007.065.019.09a.151.151 0 0 0 .064.063.328.328 0 0 0 .062.025v.121a.52.52 0 0 1-.1-.043.323.323 0 0 1-.13-.135.418.418 0 0 1-.043-.197l.001-.536-.138-.08v-.116l.139.08v-.21l.129.075zM39.495 63.692v-.01a.5.5 0 0 0-.052-.207.329.329 0 0 0-.129-.135c-.052-.03-.096-.034-.13-.01-.035.023-.057.071-.067.144l.378.218m.129.136v.062l-.51-.295a.544.544 0 0 0 .063.245.422.422 0 0 0 .159.169.222.222 0 0 0 .116.036.14.14 0 0 0 .082-.04l.08.12c-.065.072-.16.074-.285.001a.666.666 0 0 1-.249-.26.734.734 0 0 1-.097-.365v-.027c0-.086.017-.155.045-.206.029-.05.068-.082.12-.09a.253.253 0 0 1 .167.039.585.585 0 0 1 .228.244.778.778 0 0 1 .08.367M40.688 64.027l-.306.827c-.048.116-.123.144-.225.086l-.024-.016-.048-.039v-.119l.035.022c.044.025.078.036.102.03.025-.007.044-.032.06-.078l.03-.07-.268-1.015.141.082.187.759.178-.549.138.08zM42.196 64.9l-.002.866-.123-.07-.003-.087c-.05.04-.124.03-.221-.027a.48.48 0 0 1-.183-.185.584.584 0 0 1-.063-.275l.002-.566.129.075-.002.56c0 .131.045.225.14.279.096.056.163.05.196-.013l.002-.632.128.074zM42.699 65.174c.025.014.044.03.056.045v.137a.699.699 0 0 0-.063-.042c-.085-.049-.142-.04-.172.026l-.001.614-.129-.074.002-.867.125.071.002.104c.043-.054.103-.059.18-.014M43.402 65.387v.21l.14.081v.116l-.14-.082-.002.538c0 .034.006.065.018.089a.155.155 0 0 0 .065.064c.016.01.036.017.061.025v.12a.463.463 0 0 1-.1-.042.327.327 0 0 1-.13-.135.414.414 0 0 1-.043-.197l.002-.536-.137-.08v-.115l.137.079v-.21l.13.075zM44.17 66.395v-.01a.46.46 0 0 0-.053-.207.325.325 0 0 0-.127-.135c-.052-.03-.096-.033-.132-.011-.035.023-.057.072-.065.145l.377.218m.128.136v.061l-.51-.295a.542.542 0 0 0 .064.245.426.426 0 0 0 .158.17.22.22 0 0 0 .116.036.143.143 0 0 0 .084-.039l.078.118c-.063.074-.159.075-.284.002a.73.73 0 0 1-.344-.624v-.027c0-.087.014-.157.043-.207a.166.166 0 0 1 .12-.09.252.252 0 0 1 .168.04.577.577 0 0 1 .226.243.782.782 0 0 1 .081.367M45.02 66.532l-.248.287.253.584-.149-.086-.173-.424-.175.223-.15-.087.255-.29-.245-.573.149.087.164.413.168-.221zM45.331 66.502v.21l.141.081v.116l-.141-.082-.002.539c0 .034.006.064.019.088a.156.156 0 0 0 .064.064.325.325 0 0 0 .061.025v.121a.517.517 0 0 1-.1-.043.328.328 0 0 1-.13-.135.415.415 0 0 1-.043-.197l.002-.536-.137-.08v-.114l.137.078v-.21l.13.075zM46.106 66.796l-.002.468c.057-.047.131-.046.224.008.158.091.238.243.239.45l-.002.572-.128-.075.001-.572a.285.285 0 0 0-.15-.271c-.042-.025-.078-.033-.11-.026a.11.11 0 0 0-.074.058l-.002.618-.13-.075.004-1.23.13.075zM47.823 68.137c.026.014.044.03.057.045v.137a.699.699 0 0 0-.063-.042c-.085-.048-.142-.04-.172.026l-.001.614-.13-.075.002-.867.126.073.002.103c.043-.054.103-.059.18-.014M48.463 68.877v-.01a.497.497 0 0 0-.053-.207.326.326 0 0 0-.127-.135c-.053-.03-.096-.033-.132-.01-.035.022-.057.071-.066.143l.378.22m.128.135v.061l-.51-.295a.54.54 0 0 0 .064.245.42.42 0 0 0 .158.17.22.22 0 0 0 .116.036.143.143 0 0 0 .084-.039l.078.118c-.063.074-.159.075-.284.002a.731.731 0 0 1-.344-.624v-.027c0-.087.014-.156.043-.207a.17.17 0 0 1 .12-.09.255.255 0 0 1 .168.04.58.58 0 0 1 .227.243.78.78 0 0 1 .08.367M50.04 69.07l-.003.745.07-.056.234-.15.157.09-.294.194.326.693-.152-.088-.261-.552-.08.051-.001.303-.129-.074.004-1.23zM50.735 70.53a.2.2 0 0 1 .106.176c0 .033-.01.053-.027.064-.019.014-.045.008-.08-.013a.198.198 0 0 1-.102-.172c0-.033.009-.056.025-.068.018-.013.043-.008.078.012"/>
            <path fill="#135687" d="M52.108 70.791l-.166-.096-.04.228.154.09v.128l-.177-.102-.052.297-.116-.067.052-.297-.155-.09-.054.296-.118-.068.054-.296-.16-.093v-.128l.183.105.04-.228-.17-.098v-.127l.192.111.054-.303.116.067-.054.303.157.091.054-.303.117.067-.055.303.145.084zM52.389 70.429l-.001.459c.057-.042.126-.04.21.01.16.092.242.246.244.459l-.001.565-.17-.098.002-.558c0-.06-.01-.11-.034-.148a.266.266 0 0 0-.1-.093c-.067-.04-.117-.034-.152.014l-.001.62-.168-.097.003-1.23.168.097zM54.69 71.76l-.001.458c.055-.042.124-.04.209.009.162.093.241.246.244.46l-.002.565-.169-.098.001-.559a.29.29 0 0 0-.032-.147.282.282 0 0 0-.1-.094c-.068-.039-.118-.034-.151.016l-.002.62-.17-.098.004-1.23.17.097zM55.527 72.397l-.001.21.133.076v.145l-.134-.078v.485c-.001.034.005.061.016.082.011.02.032.04.061.057.02.011.04.021.058.026v.15a.422.422 0 0 1-.11-.045c-.13-.076-.196-.195-.195-.361v-.491l-.123-.072v-.144l.124.071v-.21l.17.099zM56.212 73.629v-.165l-.091-.052c-.063-.036-.11-.051-.141-.044-.032.007-.048.032-.048.08 0 .037.011.073.031.106.022.036.05.063.088.085.033.02.064.028.094.026a.079.079 0 0 0 .067-.036zm.169.14c0 .079.009.145.028.203v.013l-.173-.1a.41.41 0 0 1-.019-.09c-.055.031-.12.026-.198-.019a.52.52 0 0 1-.186-.182.425.425 0 0 1-.07-.225c0-.092.03-.145.09-.161.06-.015.144.01.256.074l.103.06v-.057a.254.254 0 0 0-.13-.226c-.04-.022-.071-.028-.097-.02-.024.007-.036.029-.036.063l-.17-.098c0-.048.015-.084.042-.11a.142.142 0 0 1 .111-.033c.048.004.1.022.159.056a.61.61 0 0 1 .21.199.48.48 0 0 1 .08.262v.392zM57.023 74.098l.001-.383a.342.342 0 0 0-.149-.184c-.056-.033-.1-.033-.13 0-.032.033-.047.098-.048.197 0 .087.015.165.046.233.03.068.074.117.13.15.067.038.117.035.15-.013zm.02-.615l.151.088-.002.841c0 .114-.03.186-.093.216-.062.03-.145.014-.249-.046a.68.68 0 0 1-.161-.133.665.665 0 0 1-.12-.173l.08-.07a.5.5 0 0 0 .192.217c.055.032.1.042.132.024.034-.015.05-.058.05-.125v-.06c-.05.035-.114.029-.195-.018a.558.558 0 0 1-.217-.247.857.857 0 0 1-.082-.382c0-.136.028-.227.084-.275.056-.048.128-.048.219.005.086.05.154.123.202.222l.008-.084zM58.628 74.096l-.003 1.17-.17-.098.003-.937-.248-.046v-.162l.396.06zM26.528 57.449l-.001.458c.055-.042.126-.037.21.012.16.093.242.244.243.457l-.002.567-.17-.098.002-.56c0-.06-.01-.108-.032-.145a.266.266 0 0 0-.1-.096c-.068-.04-.119-.033-.152.017l-.001.62-.17-.099.004-1.231.169.098zM36.044 63.94v-.162l-.091-.053c-.063-.036-.11-.051-.141-.046-.032.007-.048.035-.048.08 0 .037.011.074.031.108a.25.25 0 0 0 .088.083c.033.02.065.028.094.028.03-.003.052-.014.067-.038zm.169.141c0 .078.01.147.028.203v.014l-.173-.1a.397.397 0 0 1-.019-.092c-.055.034-.12.028-.198-.017a.52.52 0 0 1-.256-.407c0-.094.03-.147.09-.161.06-.016.144.01.256.074l.103.06v-.058a.261.261 0 0 0-.132-.225c-.038-.022-.07-.03-.093-.02-.025.007-.038.027-.038.062l-.17-.098c0-.047.015-.084.042-.11a.162.162 0 0 1 .113-.033.41.41 0 0 1 .157.057c.088.05.158.117.212.198a.497.497 0 0 1 .08.263l-.002.39zM36.857 64.41v-.381a.357.357 0 0 0-.15-.186c-.056-.033-.099-.032-.13 0-.032.034-.048.1-.048.199 0 .086.015.164.047.233a.32.32 0 0 0 .128.148c.068.04.12.035.153-.013zm.017-.614l.152.088-.002.84c0 .114-.03.187-.092.216-.063.03-.144.016-.25-.044a.679.679 0 0 1-.161-.134.719.719 0 0 1-.12-.173l.08-.07c.051.1.116.173.192.217.057.033.101.04.134.025.031-.018.049-.059.05-.127v-.058c-.05.035-.116.028-.197-.02a.548.548 0 0 1-.215-.244.852.852 0 0 1-.084-.385c0-.134.03-.226.084-.274.056-.05.128-.048.219.005.086.05.154.123.202.22l.008-.082zM39.935 65.727l-.167-.097-.04.229.154.089v.126l-.176-.102-.053.3-.116-.068.053-.299-.156-.09-.054.298-.116-.067.053-.299-.16-.092v-.127l.182.106.04-.229-.17-.098v-.126l.192.11.055-.303.116.067-.055.304.157.09.055-.303.116.067-.054.304.144.083zM40.216 65.363l-.002.458c.057-.041.126-.037.211.012.16.092.241.244.244.457l-.002.567-.17-.098.002-.56c0-.06-.01-.107-.034-.146a.262.262 0 0 0-.099-.095c-.067-.039-.118-.032-.152.017l-.002.62-.168-.098.003-1.232.169.098zM41.894 66.682c.09.052.163.12.218.204a.446.446 0 0 1 .083.247l-.17-.098a.22.22 0 0 0-.036-.115.28.28 0 0 0-.095-.092c-.038-.021-.068-.03-.091-.023-.024.006-.035.027-.035.06 0 .03.009.059.03.088a.89.89 0 0 0 .134.126 1.3 1.3 0 0 1 .155.151.555.555 0 0 1 .085.132.334.334 0 0 1 .028.136c0 .077-.029.124-.085.14-.057.014-.131-.003-.222-.055a.682.682 0 0 1-.277-.306.428.428 0 0 1-.04-.168l.164.096a.261.261 0 0 0 .045.133c.029.04.064.073.112.1.043.026.078.036.1.03.024-.007.035-.026.035-.057a.158.158 0 0 0-.036-.1.836.836 0 0 0-.124-.12 1.248 1.248 0 0 1-.144-.136c-.085-.096-.127-.19-.127-.278 0-.076.029-.12.084-.14.055-.019.124-.004.209.045M42.517 66.693l-.002.459c.056-.043.125-.039.21.01.161.094.242.245.243.458l-.001.567-.17-.098.002-.56a.29.29 0 0 0-.033-.145.276.276 0 0 0-.1-.096c-.068-.04-.118-.032-.151.017l-.002.62-.17-.098.004-1.232.17.098zM43.353 67.33v.211l.133.078v.144l-.134-.077-.002.484c0 .033.007.06.018.082.01.021.03.04.06.057.02.011.04.02.06.026v.151a.513.513 0 0 1-.111-.046c-.13-.075-.197-.196-.196-.36l.001-.492-.124-.072v-.144l.125.071v-.21l.17.097zM50.51 71.315v.459c.055-.043.124-.039.209.01.161.094.241.245.244.458l-.002.567-.17-.098.002-.56c0-.06-.01-.107-.032-.145a.275.275 0 0 0-.101-.096c-.067-.04-.118-.032-.15.017l-.003.62-.169-.098.003-1.232.17.098zM51.347 71.952v.212l.133.077v.144l-.134-.077-.001.484c0 .033.006.06.017.082.01.021.031.04.061.058.019.01.04.019.058.024v.152a.499.499 0 0 1-.112-.047c-.129-.074-.194-.195-.194-.36l.002-.49-.124-.072v-.145l.124.072v-.212l.17.098zM52.032 73.184v-.162l-.09-.053c-.063-.036-.11-.05-.142-.046-.031.008-.047.035-.047.08 0 .038.01.074.031.108.022.035.05.062.086.083.035.02.066.029.096.028.028-.003.052-.013.066-.038zm.17.142c0 .077.009.146.027.202v.014l-.172-.1a.41.41 0 0 1-.02-.092c-.054.034-.12.028-.198-.017a.53.53 0 0 1-.186-.181.436.436 0 0 1-.07-.225c0-.095.03-.148.09-.162.06-.016.145.01.257.074l.103.06v-.058a.259.259 0 0 0-.131-.224c-.04-.023-.07-.03-.096-.021-.024.008-.036.028-.036.062l-.17-.098c0-.047.015-.084.041-.11a.157.157 0 0 1 .112-.033.42.42 0 0 1 .159.057c.088.05.158.117.21.197a.49.49 0 0 1 .08.264v.39zM23.946 56.482l-.165-.095-.041.227.153.09v.126l-.174-.101-.054.298-.117-.067.053-.299-.155-.09-.055.298-.116-.067.054-.298-.161-.094v-.126l.182.105.042-.227-.17-.098v-.127l.19.11.057-.302.116.067-.056.302.157.091.054-.303.118.068-.056.302.144.084z"/>
            <path fill="#135687" d="M23.67 56.55l-.203-.091.054-.23.203.092z"/>
            <path fill="#F9F9FA" d="M23.467 56.458l.054-.229.204.092-.055.23zM25.05 57.454c.036-.006.09.01.161.049l.103.056v.175c-.018.025-.043.036-.077.04a.202.202 0 0 1-.107-.03.275.275 0 0 1-.098-.089.208.208 0 0 1-.037-.117c0-.049.018-.078.055-.084"/>
            <path fill="#135687" d="M25.276 57.714v-.162l-.09-.053c-.064-.036-.11-.05-.142-.046-.033.007-.05.034-.05.079 0 .038.011.075.033.11.022.034.05.06.087.082a.17.17 0 0 0 .094.027c.03-.002.052-.013.068-.037zm.17.141c-.001.078.008.147.027.203v.014l-.173-.1a.483.483 0 0 1-.02-.092c-.054.034-.12.028-.198-.017a.533.533 0 0 1-.185-.182.437.437 0 0 1-.07-.225c0-.093.03-.147.09-.16.06-.017.145.008.256.073l.104.06v-.058a.26.26 0 0 0-.131-.224c-.04-.023-.071-.03-.097-.021-.025.007-.036.028-.036.062l-.17-.098c0-.047.015-.084.042-.11.027-.025.064-.035.111-.033.048.005.1.023.16.057.087.05.158.117.21.198.052.083.079.168.08.263v.39zM24.334 54.555c.023.014.043.031.059.047v.183a.486.486 0 0 0-.07-.047c-.078-.046-.13-.041-.157.012l-.001.592-.17-.098.002-.867.162.094.005.1c.04-.052.097-.057.17-.016M28.05 59.318v-.163l-.091-.052c-.063-.036-.11-.051-.142-.046-.031.007-.047.034-.047.08 0 .037.01.074.033.109a.24.24 0 0 0 .086.082.179.179 0 0 0 .094.028c.03-.003.052-.014.066-.038zm.169.141c0 .078.009.147.028.203v.014l-.173-.1a.491.491 0 0 1-.019-.092c-.053.034-.12.029-.198-.017a.522.522 0 0 1-.256-.407c0-.094.03-.147.09-.161.06-.017.146.01.255.074l.104.06v-.058a.257.257 0 0 0-.03-.125.266.266 0 0 0-.101-.1c-.04-.022-.07-.03-.094-.02-.026.007-.038.027-.038.061l-.17-.097c0-.048.014-.085.041-.11a.16.16 0 0 1 .114-.033.41.41 0 0 1 .157.057c.087.05.158.117.211.198a.497.497 0 0 1 .08.263l-.001.39z"/>
            <path fill="#F9F9FA" d="M27.824 59.057c.036-.005.09.01.162.05l.104.055v.175c-.017.026-.042.037-.076.04a.273.273 0 0 1-.207-.118.208.208 0 0 1-.037-.117c0-.048.018-.077.054-.085"/>
            <path fill="#135687" d="M25.158 52.157l-.308.401.312.77-.205-.119-.217-.554-.22.302-.206-.119.316-.407-.304-.755.202.117.213.544.214-.297zM30.56 58.526v-.015a.415.415 0 0 0-.046-.174.28.28 0 0 0-.11-.114c-.047-.028-.084-.031-.113-.01-.028.022-.047.063-.055.126l.323.187m.167.16v.079l-.494-.285a.487.487 0 0 0 .063.206c.036.062.083.11.137.141.078.044.14.044.19 0l.09.154a.154.154 0 0 1-.12.052.388.388 0 0 1-.17-.057.703.703 0 0 1-.261-.266.73.73 0 0 1-.098-.368v-.024c0-.086.015-.156.043-.208a.167.167 0 0 1 .123-.088.278.278 0 0 1 .176.044.606.606 0 0 1 .238.251c.055.108.083.231.083.368M32.223 60.741l-.002.459c.056-.042.125-.039.21.01.16.093.24.245.244.458l-.002.567-.17-.098.002-.56c0-.06-.01-.107-.033-.145a.275.275 0 0 0-.1-.096c-.067-.04-.118-.032-.151.018l-.002.62-.17-.1.004-1.23.17.097z"/>
            <path fill="#F9F9FA" d="M33.045 62.076c.035-.006.09.01.16.049l.104.056v.175c-.018.025-.044.036-.078.04a.206.206 0 0 1-.107-.03.272.272 0 0 1-.097-.089.206.206 0 0 1-.038-.117c0-.048.018-.078.056-.084"/>
            <path fill="#135687" d="M33.27 62.336v-.162l-.09-.053c-.063-.036-.11-.05-.142-.046-.033.007-.049.034-.05.08a.2.2 0 0 0 .034.108c.022.035.05.062.086.083.033.019.066.029.094.027.03-.002.052-.013.068-.037zm.17.142c0 .078.009.146.027.202v.015l-.172-.1a.483.483 0 0 1-.02-.093c-.054.034-.12.028-.199-.017a.53.53 0 0 1-.185-.181.433.433 0 0 1-.07-.225c0-.094.03-.148.09-.162.06-.016.145.01.256.074l.104.06v-.058a.26.26 0 0 0-.133-.225c-.037-.022-.069-.03-.094-.02-.025.007-.036.028-.037.062l-.17-.098c.001-.047.015-.084.042-.11.027-.024.065-.035.112-.033a.42.42 0 0 1 .158.057c.088.05.159.117.21.198.052.082.08.169.082.264l-.002.39zM34.522 62.07l-.001.46c.055-.043.126-.038.21.01.16.094.242.245.243.458l-.002.567-.169-.098.001-.56c0-.06-.01-.108-.032-.145a.271.271 0 0 0-.099-.096c-.069-.04-.12-.032-.152.017l-.002.62-.17-.099.004-1.231.17.098zM35.358 62.708v.211l.133.078v.144l-.133-.077-.002.484c0 .032.006.06.017.082.011.021.031.04.061.057.02.011.04.02.06.026v.151a.533.533 0 0 1-.112-.046c-.13-.075-.196-.197-.195-.36l.001-.492-.124-.072v-.144l.124.071.001-.21.17.097zM37.681 64.684l.001-.263a.756.756 0 0 0-.038-.264.289.289 0 0 0-.124-.147c-.055-.032-.096-.032-.123.002-.025.032-.04.1-.041.202l-.001.263c0 .11.012.2.038.267.027.07.07.121.126.154.053.03.094.029.12-.005.026-.035.04-.103.042-.209m.087-.565a.951.951 0 0 1 .082.415v.202c-.001.168-.028.28-.083.332-.055.053-.137.05-.249-.015a.604.604 0 0 1-.247-.268.98.98 0 0 1-.086-.418l.001-.202c0-.169.03-.279.084-.33.054-.054.137-.048.25.018.11.063.193.153.248.266"/>
            <path fill="#F9F9FA" d="M37.52 64.01a.287.287 0 0 1 .124.148.754.754 0 0 1 .038.263v.263c-.003.106-.017.174-.044.209-.025.034-.066.036-.12.005a.29.29 0 0 1-.125-.154.738.738 0 0 1-.038-.267v-.263c.003-.102.017-.17.042-.202.027-.034.068-.034.123-.002"/>
            <path fill="#26272C" d="M38.03 62.474c.026.015.044.031.057.046v.137a.617.617 0 0 0-.063-.042c-.085-.049-.142-.04-.173.025l-.002.614-.129-.074.003-.867.125.073.003.102c.043-.053.102-.058.18-.014"/>
            <path fill="#135687" d="M41.264 66.958v-.162l-.092-.054c-.061-.035-.11-.05-.141-.045-.032.007-.048.034-.048.08a.2.2 0 0 0 .033.109c.022.034.05.061.086.082a.178.178 0 0 0 .095.027c.03-.002.052-.013.067-.037zm.168.14c0 .079.01.147.03.204v.015l-.173-.1a.488.488 0 0 1-.02-.093c-.054.034-.12.028-.199-.017a.532.532 0 0 1-.184-.181.438.438 0 0 1-.072-.226c0-.094.03-.147.09-.162.06-.016.146.01.256.074l.105.061v-.058a.249.249 0 0 0-.032-.125.264.264 0 0 0-.1-.1c-.038-.022-.07-.03-.095-.02-.025.007-.038.027-.038.061l-.168-.097c0-.047.013-.085.041-.11.027-.024.065-.035.112-.033.047.005.1.024.159.057a.607.607 0 0 1 .21.198c.052.082.08.169.08.263l-.002.39z"/>
            <path fill="#F9F9FA" d="M41.037 66.697c.036-.006.091.01.161.049l.105.057v.174c-.018.026-.043.037-.077.04a.212.212 0 0 1-.107-.03.278.278 0 0 1-.098-.088.207.207 0 0 1-.037-.117c0-.048.018-.077.053-.085M43.813 68.301c.036-.005.09.01.161.05l.104.056v.174c-.016.026-.044.037-.076.04a.213.213 0 0 1-.107-.029.278.278 0 0 1-.1-.09.212.212 0 0 1-.036-.116c0-.048.018-.077.054-.085"/>
            <path fill="#135687" d="M44.038 68.562V68.4l-.09-.053c-.063-.036-.11-.05-.142-.046-.031.008-.047.035-.048.08 0 .038.011.075.032.108.022.035.05.062.088.084a.176.176 0 0 0 .094.027c.028-.004.052-.013.066-.038zm.17.141c0 .078.008.147.027.203v.014l-.172-.1a.391.391 0 0 1-.02-.092c-.054.034-.12.028-.197-.017a.518.518 0 0 1-.257-.407c0-.094.03-.147.09-.161.06-.016.145.01.256.074l.104.06v-.058a.26.26 0 0 0-.131-.224c-.04-.023-.071-.03-.096-.022-.024.009-.037.028-.037.063l-.17-.098c0-.047.015-.084.042-.11a.154.154 0 0 1 .113-.032.4.4 0 0 1 .157.056.606.606 0 0 1 .21.197c.054.084.08.17.081.264v.39zM45.674 69.305v-.263a.754.754 0 0 0-.036-.262.288.288 0 0 0-.124-.148c-.056-.032-.097-.032-.123.002-.026.031-.04.1-.04.202l-.002.264c0 .11.012.198.039.266.026.07.067.12.124.153.055.032.096.03.12-.004.027-.035.042-.103.042-.21m.088-.564c.055.113.081.251.082.415v.202c0 .168-.028.28-.083.332-.055.054-.137.05-.25-.016a.602.602 0 0 1-.246-.267.958.958 0 0 1-.085-.418v-.202c0-.168.03-.278.085-.33.053-.054.137-.047.25.018.11.064.193.153.247.266"/>
            <path fill="#F9F9FA" d="M45.514 68.632a.288.288 0 0 1 .124.148.752.752 0 0 1 .037.262v.263c-.001.107-.015.175-.042.21-.026.034-.066.036-.121.004a.287.287 0 0 1-.124-.153.738.738 0 0 1-.039-.266l.001-.264c.002-.102.015-.17.041-.202.026-.035.067-.035.123-.002M46.132 69.601l.305-.316.015-.018-.002.487z"/>
            <path fill="#135687" d="M46.398 69.755l.001-.488-.013.018-.254.316.266.154zm.168.097l.127.073v.155l-.128-.073v.26l-.169-.097.001-.26-.44-.254-.004-.12.44-.536.175.1-.002.752z"/>
            <path fill="#F9F9FA" d="M49.402 69.829a.392.392 0 0 1-.155-.177.597.597 0 0 1-.058-.264c0-.109.02-.183.06-.218.039-.035.09-.034.153.002a.395.395 0 0 1 .157.18.6.6 0 0 1 .057.265c0 .106-.019.178-.058.213-.038.038-.09.037-.156-.001"/>
            <path fill="#26272C" d="M49.558 69.83c.039-.035.058-.107.058-.213a.6.6 0 0 0-.057-.265.394.394 0 0 0-.157-.18c-.063-.036-.115-.037-.154-.002-.04.035-.058.11-.059.218 0 .095.019.184.058.264.038.08.09.14.155.177.066.038.118.04.156.001m.094-.513c.062.12.093.246.093.381v.01c0 .084-.015.152-.043.202-.028.052-.068.082-.12.088a.288.288 0 0 1-.18-.048.64.64 0 0 1-.248-.266.78.78 0 0 1-.095-.379v-.01c0-.085.015-.153.045-.205a.155.155 0 0 1 .121-.087.29.29 0 0 1 .178.047.663.663 0 0 1 .249.267"/>
            <path fill="#135687" d="M54.634 73.764v.168l-.404-.233-.029.264a.27.27 0 0 1 .16.045c.096.056.172.133.225.236.053.102.08.213.08.334-.001.117-.031.196-.091.232-.058.035-.14.024-.244-.036a.673.673 0 0 1-.33-.522l.165.095a.336.336 0 0 0 .164.27c.052.03.093.033.123.006.028-.025.042-.076.043-.148a.415.415 0 0 0-.047-.198.341.341 0 0 0-.132-.137.196.196 0 0 0-.078-.031.115.115 0 0 0-.071.013l-.135-.116.057-.557.544.315zM54.068 71.747c.089.052.163.121.218.204a.445.445 0 0 1 .082.246l-.17-.097a.265.265 0 0 0-.132-.206c-.036-.023-.066-.03-.09-.023-.024.006-.036.025-.036.059 0 .029.01.058.033.088a.876.876 0 0 0 .133.127c.066.055.118.104.155.15a.547.547 0 0 1 .085.132c.018.045.028.09.028.135 0 .078-.03.125-.086.141-.057.016-.13-.003-.221-.056a.678.678 0 0 1-.278-.305.41.41 0 0 1-.04-.168l.165.095a.244.244 0 0 0 .045.133.325.325 0 0 0 .11.102c.045.026.078.034.102.028.023-.005.035-.025.035-.056a.159.159 0 0 0-.036-.1.82.82 0 0 0-.124-.12 1.133 1.133 0 0 1-.144-.137c-.085-.096-.127-.189-.127-.277 0-.074.029-.121.084-.14.055-.019.124-.004.209.045"/>
            <path fill="#F9F9FA" d="M55.986 73.368c.036-.008.09.008.162.047l.104.057v.176c-.017.024-.044.037-.076.039a.192.192 0 0 1-.108-.028.261.261 0 0 1-.1-.091.205.205 0 0 1-.036-.115c0-.05.018-.077.054-.085"/>
            <path fill="#F9F9FA" d="M38.227 62.313c-.014.008-.02.026-.02.05 0 .023.006.047.02.071a.144.144 0 0 0 .057.058c.024.015.043.017.056.008.013-.01.019-.026.02-.049a.155.155 0 0 0-.076-.13c-.025-.015-.044-.017-.057-.008zm12.424 8.202c-.012.01-.018.027-.018.053a.15.15 0 0 0 .078.131c.027.016.047.02.06.01.014-.008.022-.024.022-.049a.162.162 0 0 0-.02-.075.15.15 0 0 0-.062-.06c-.026-.016-.045-.02-.06-.01zM25.96 55.36c.016-.01.025-.029.025-.058a.19.19 0 0 0-.097-.16c-.03-.018-.053-.023-.07-.013-.016.01-.024.032-.024.062a.178.178 0 0 0 .094.156c.031.018.055.023.072.013zm.967-2.18c-.017.01-.025.029-.026.06 0 .028.008.058.025.086.016.03.04.053.07.072.03.017.056.02.072.01.017-.008.025-.029.025-.058a.169.169 0 0 0-.025-.088.185.185 0 0 0-.07-.072c-.032-.018-.055-.021-.071-.01zm11.419 9.493l-.129-.074-.002.867.128.074.003-.867zM27.08 53.57l-.169-.098-.003.866.17.099.002-.867zm-1.109 1.949l-.17-.098-.002.867.17.098.002-.867zm.362 1.077l.003-1.23-.17-.098-.003 1.23.17.098zm.215-3.7l-.004 1.232.17.098.003-1.232-.17-.098zm15.843 12.117l-.002.867.129.074.001-.614c.03-.066.087-.075.172-.026a.635.635 0 0 1 .063.042v-.137a.22.22 0 0 0-.056-.045c-.077-.045-.137-.04-.18.014l-.003-.104-.124-.071zm-4.541-2.373c.031-.065.088-.074.173-.025a.533.533 0 0 1 .062.042v-.137a.217.217 0 0 0-.056-.046c-.077-.044-.136-.039-.179.014l-.003-.103-.125-.072-.003.867.129.074.002-.614zm9.665 5.335l-.003.867.13.075.002-.614c.03-.066.087-.075.172-.026a.559.559 0 0 1 .063.042v-.137a.224.224 0 0 0-.057-.046c-.076-.044-.136-.039-.179.014l-.003-.102-.125-.073zM23.997 54.377l-.002.867.17.098.001-.592c.027-.053.079-.058.157-.012a.522.522 0 0 1 .07.047v-.183a.275.275 0 0 0-.06-.047c-.072-.042-.128-.036-.17.016l-.004-.1-.162-.094zM43.544 66.55v-.121a.281.281 0 0 1-.061-.025.156.156 0 0 1-.065-.064.19.19 0 0 1-.018-.089l.002-.538.14.082v-.116l-.14-.082v-.21l-.129-.074v.21l-.136-.08v.117l.135.079v.536c-.001.074.013.14.042.197.03.057.073.101.13.135a.458.458 0 0 0 .1.043zm1.521.01v.115l.137.079-.002.536c0 .074.014.14.044.197.03.057.072.102.13.135a.512.512 0 0 0 .099.043v-.121a.299.299 0 0 1-.061-.025.16.16 0 0 1-.064-.064.192.192 0 0 1-.019-.089l.002-.538.14.082.001-.116-.141-.081v-.21l-.128-.074v.21l-.138-.08zm-6.196-2.713v-.121a.314.314 0 0 1-.06-.025.15.15 0 0 1-.065-.064.188.188 0 0 1-.019-.089l.002-.538.14.08v-.114l-.14-.081v-.21l-.128-.074v.21l-.139-.08v.115l.138.08-.001.536c0 .074.014.14.043.197a.324.324 0 0 0 .13.135.52.52 0 0 0 .1.043zM55.66 73.55v-.15a.268.268 0 0 1-.058-.026.152.152 0 0 1-.06-.057.174.174 0 0 1-.018-.082l.001-.484.134.077v-.145l-.133-.077v-.21l-.17-.097v.21l-.124-.072v.144l.124.072-.002.49c0 .167.066.286.196.362.035.02.072.036.11.045zm-4.18-.442l.001-.152a.26.26 0 0 1-.058-.025.149.149 0 0 1-.061-.057.184.184 0 0 1-.017-.082l.001-.484.133.077.001-.144-.134-.077.001-.212-.17-.098v.212l-.124-.072v.144l.124.072-.002.491c0 .165.066.286.194.36.036.021.074.036.111.047zM27.5 59.242v-.151a.281.281 0 0 1-.06-.026.156.156 0 0 1-.061-.057.185.185 0 0 1-.017-.082l.001-.484.134.077v-.145l-.133-.077v-.211l-.168-.097v.211l-.124-.072v.145l.123.072-.001.49c0 .165.063.286.194.36.036.022.072.036.111.047zm15.988 9.244v-.151a.303.303 0 0 1-.06-.026.154.154 0 0 1-.06-.057.188.188 0 0 1-.018-.082l.002-.484.133.077v-.144l-.133-.078v-.21l-.169-.099v.211l-.124-.071v.144l.123.072-.001.491c0 .165.065.286.195.361.035.02.072.035.112.046zm-7.994-4.621v-.152a.29.29 0 0 1-.06-.026.153.153 0 0 1-.06-.057.189.189 0 0 1-.018-.082l.001-.484.134.077v-.144l-.133-.078v-.21l-.169-.099v.211l-.125-.071v.144l.124.072-.001.491c0 .164.065.286.195.361.034.02.072.035.112.047zm23.131 11.401l.003-1.17-.021-.012-.397-.061v.162l.248.046-.002.938.17.097zm-17.022-10.71l-.002.566a.58.58 0 0 0 .063.274c.041.077.103.14.183.186.097.056.171.066.222.027l.002.086.123.071.002-.867-.128-.074-.002.632c-.033.064-.1.07-.197.013-.094-.054-.14-.148-.139-.28l.002-.56-.13-.074zm-8.757-5.063l-.002.566a.586.586 0 0 0 .064.275c.042.077.103.14.183.186.098.056.172.066.222.026l.001.086.123.071.002-.867-.129-.074-.001.632c-.032.065-.098.07-.197.013-.093-.054-.14-.148-.139-.28l.001-.56-.128-.074zm2.665 1.541l-.003.867.13.075.001-.618a.117.117 0 0 1 .074-.059c.031-.007.07.002.11.026.052.03.09.066.115.111a.354.354 0 0 1 .037.161l-.002.573.129.074.001-.572c0-.207-.08-.358-.24-.451-.093-.053-.168-.055-.227-.004l-.003-.112-.122-.07zm-8.06-4.408c.036-.053.086-.058.155-.018.047.028.08.059.1.098.02.037.031.085.031.14l-.001.56.17.1v-.574c-.002-.207-.081-.358-.239-.45-.09-.052-.163-.054-.22-.009l-.004-.104-.159-.091-.002.867.168.097.002-.616zm7.689 4.344c.027.046.04.095.04.147l-.001.067-.126-.073c-.108-.062-.191-.085-.251-.069s-.09.067-.09.158c0 .074.023.149.07.225a.53.53 0 0 0 .183.178c.083.049.154.053.216.018.004.046.01.08.017.1l.135.078v-.012a.706.706 0 0 1-.026-.205v-.4a.481.481 0 0 0-.074-.249.572.572 0 0 0-.204-.194.35.35 0 0 0-.15-.051.142.142 0 0 0-.11.032c-.028.025-.04.06-.04.102l.128.075c0-.038.016-.06.048-.069.031-.009.069 0 .116.028a.32.32 0 0 1 .119.114zm-5.994-5.655a.168.168 0 0 1 .035.1c0 .033-.01.051-.034.058-.024.004-.057-.004-.103-.03a.328.328 0 0 1-.11-.102.245.245 0 0 1-.044-.133l-.165-.095c0 .053.013.11.04.17.027.06.064.117.113.17a.65.65 0 0 0 .165.135c.09.053.164.07.221.054.055-.015.084-.062.084-.142 0-.045-.01-.09-.027-.132a.562.562 0 0 0-.084-.134 1.293 1.293 0 0 0-.157-.15.787.787 0 0 1-.132-.127.144.144 0 0 1-.032-.088c0-.034.012-.053.036-.059.023-.006.053 0 .091.022.04.023.072.055.096.094a.218.218 0 0 1 .036.114l.169.098a.449.449 0 0 0-.083-.248.65.65 0 0 0-.217-.202c-.085-.05-.156-.065-.21-.047-.055.019-.083.066-.083.14 0 .09.042.181.126.277.04.045.086.09.145.138a.771.771 0 0 1 .124.119zM50.109 72.26c.057-.016.083-.063.084-.141a.335.335 0 0 0-.027-.135.56.56 0 0 0-.084-.132 1.32 1.32 0 0 0-.156-.151.927.927 0 0 1-.133-.126.147.147 0 0 1-.033-.09c0-.032.013-.052.037-.058.023-.006.053.002.091.024.04.022.072.054.095.09a.22.22 0 0 1 .036.116l.17.098a.443.443 0 0 0-.083-.247.63.63 0 0 0-.218-.204c-.084-.049-.155-.064-.209-.044-.055.018-.083.063-.083.14 0 .088.042.18.126.277.04.044.086.088.144.136a.8.8 0 0 1 .124.12.157.157 0 0 1 .036.1c0 .031-.011.05-.034.056-.024.007-.057-.003-.102-.03a.348.348 0 0 1-.11-.1.252.252 0 0 1-.046-.132l-.164-.096c0 .051.013.108.04.168a.66.66 0 0 0 .277.306c.092.052.165.07.222.055zM34.12 63.016c.057-.016.085-.063.086-.14a.337.337 0 0 0-.028-.136.529.529 0 0 0-.085-.132 1.36 1.36 0 0 0-.155-.151.888.888 0 0 1-.133-.126.15.15 0 0 1-.032-.089c0-.033.012-.053.035-.06.024-.006.053.003.091.024.04.023.072.055.096.092a.21.21 0 0 1 .036.115l.17.098a.443.443 0 0 0-.083-.247.631.631 0 0 0-.218-.204c-.085-.05-.154-.064-.21-.045-.054.019-.083.064-.083.14 0 .088.042.182.127.278.039.044.086.087.144.135a.837.837 0 0 1 .124.12.163.163 0 0 1 .037.102c0 .031-.013.049-.036.055-.022.007-.057-.004-.1-.03a.342.342 0 0 1-.112-.1.263.263 0 0 1-.045-.133l-.164-.094c0 .05.013.107.04.167a.652.652 0 0 0 .277.305c.09.053.165.07.221.056zm-7.994-4.622c.057-.016.085-.063.085-.14a.338.338 0 0 0-.027-.136.513.513 0 0 0-.084-.131 1.365 1.365 0 0 0-.156-.153.901.901 0 0 1-.132-.125.144.144 0 0 1-.033-.089c0-.032.011-.053.035-.06.023-.006.053.002.091.024.04.024.072.055.096.092.025.04.035.077.035.114l.17.098a.438.438 0 0 0-.082-.246.638.638 0 0 0-.219-.204c-.084-.05-.153-.064-.209-.045-.055.019-.082.065-.082.14 0 .089.042.182.125.277.04.045.088.089.145.136a.837.837 0 0 1 .123.12.163.163 0 0 1 .038.102c0 .03-.013.049-.035.056-.023.006-.058-.005-.102-.03a.346.346 0 0 1-.111-.1.262.262 0 0 1-.045-.134l-.164-.094c0 .05.013.107.039.167a.694.694 0 0 0 .277.305c.091.053.165.07.222.056zm15.989 9.244c.056-.016.085-.063.085-.14a.334.334 0 0 0-.028-.136.548.548 0 0 0-.085-.132 1.3 1.3 0 0 0-.155-.151.89.89 0 0 1-.133-.126.142.142 0 0 1-.031-.089c0-.032.01-.053.035-.06.023-.006.053.003.09.024a.28.28 0 0 1 .096.092.219.219 0 0 1 .036.115l.17.098a.446.446 0 0 0-.083-.247.635.635 0 0 0-.218-.204c-.085-.049-.154-.064-.209-.045-.055.02-.083.064-.084.14 0 .089.042.182.127.278.039.044.086.088.144.136a.8.8 0 0 1 .124.12.158.158 0 0 1 .036.1c0 .03-.011.05-.035.056-.022.007-.056-.003-.1-.029a.345.345 0 0 1-.112-.1.261.261 0 0 1-.045-.133l-.165-.096c0 .051.014.108.04.168a.665.665 0 0 0 .278.305c.09.053.165.07.222.056zm11.674 4.704a.69.69 0 0 0 .278.305c.09.053.165.072.221.056.057-.016.085-.063.086-.14 0-.046-.01-.091-.028-.136a.554.554 0 0 0-.085-.132 1.146 1.146 0 0 0-.155-.15.887.887 0 0 1-.133-.127.145.145 0 0 1-.033-.088c0-.035.013-.053.036-.059.024-.006.053 0 .091.022a.27.27 0 0 1 .096.094.22.22 0 0 1 .036.112l.17.098a.442.442 0 0 0-.084-.246.653.653 0 0 0-.217-.204c-.085-.05-.154-.064-.21-.045-.054.019-.083.066-.083.14 0 .088.042.181.127.277.039.045.086.09.144.136a.8.8 0 0 1 .124.12.16.16 0 0 1 .036.101c0 .03-.012.051-.035.056-.024.006-.057-.002-.102-.028a.33.33 0 0 1-.11-.102.244.244 0 0 1-.045-.133l-.165-.095c0 .053.013.11.04.168zm-8.913-5.025l.15.087-.254-.584.248-.288-.15-.087-.17.22-.163-.413-.15-.086.246.573-.256.29.15.087.176-.223.173.424zm-10.832-6.364c.06.112.141.2.245.26.05.028.099.044.144.043.046-.001.084-.014.11-.043a.18.18 0 0 0 .045-.117l-.121-.07c-.005.046-.024.075-.058.087-.035.011-.074.005-.12-.022a.376.376 0 0 1-.153-.17.585.585 0 0 1-.053-.26v-.03c0-.102.018-.17.054-.203.036-.033.087-.031.153.006.048.029.089.07.122.126a.373.373 0 0 1 .056.17l.12.07a.555.555 0 0 0-.088-.278.596.596 0 0 0-.21-.21c-.07-.04-.129-.057-.18-.048-.05.007-.087.036-.116.085a.443.443 0 0 0-.04.203v.025a.78.78 0 0 0 .09.376zm13.909 7.707v.027a.734.734 0 0 0 .344.624c.125.073.221.072.284-.002l-.078-.118a.143.143 0 0 1-.084.04.219.219 0 0 1-.116-.037.42.42 0 0 1-.158-.17.54.54 0 0 1-.064-.245l.51.295v-.06a.78.78 0 0 0-.08-.368.581.581 0 0 0-.228-.243.254.254 0 0 0-.168-.04.17.17 0 0 0-.12.09.427.427 0 0 0-.042.207zm-3.655-2.068v-.061a.782.782 0 0 0-.08-.367.578.578 0 0 0-.228-.244.251.251 0 0 0-.166-.038.166.166 0 0 0-.121.089.424.424 0 0 0-.043.207v.027a.733.733 0 0 0 .344.624c.125.073.221.072.284-.002l-.078-.118a.143.143 0 0 1-.084.04.219.219 0 0 1-.116-.038.428.428 0 0 1-.158-.169.542.542 0 0 1-.064-.245l.51.295zm-5.315-3.09c0 .127.033.25.097.365.064.114.147.2.249.26.126.072.22.07.285-.003l-.08-.118a.138.138 0 0 1-.082.04.222.222 0 0 1-.116-.037.423.423 0 0 1-.159-.17.542.542 0 0 1-.064-.244l.51.294.001-.06a.782.782 0 0 0-.08-.368.585.585 0 0 0-.23-.244.25.25 0 0 0-.166-.039c-.052.008-.091.04-.12.09a.424.424 0 0 0-.045.206v.027zm7.838 4.84a.668.668 0 0 0 .25.26c.127.074.221.072.284-.002l-.078-.117a.144.144 0 0 1-.083.038.212.212 0 0 1-.115-.035.418.418 0 0 1-.159-.17.535.535 0 0 1-.065-.245l.512.296v-.062a.8.8 0 0 0-.08-.367.587.587 0 0 0-.23-.244.249.249 0 0 0-.166-.039c-.052.008-.091.04-.121.09a.425.425 0 0 0-.044.206v.027c0 .128.031.25.095.364zm9.588 5.643v-.013a.65.65 0 0 1-.028-.202l.001-.392a.482.482 0 0 0-.08-.262.608.608 0 0 0-.211-.2.381.381 0 0 0-.159-.055.142.142 0 0 0-.111.033.145.145 0 0 0-.042.11l.17.098c0-.034.013-.056.036-.064.026-.007.057-.001.096.021a.256.256 0 0 1 .131.226v.057l-.103-.06c-.112-.065-.196-.089-.256-.074-.06.016-.09.069-.09.161 0 .074.023.15.07.225.048.079.11.138.186.182.077.045.143.05.199.019.004.039.01.07.018.09l.173.1zM36.24 64.298v-.014a.643.643 0 0 1-.028-.203l.001-.39a.498.498 0 0 0-.08-.263.618.618 0 0 0-.211-.198.409.409 0 0 0-.157-.057.162.162 0 0 0-.113.033.149.149 0 0 0-.042.11l.17.098c0-.035.013-.055.038-.061.024-.01.055-.003.094.02a.257.257 0 0 1 .132.224v.058l-.104-.06c-.112-.065-.197-.09-.256-.074-.06.014-.09.067-.09.161a.525.525 0 0 0 .257.407c.076.045.142.05.198.017.004.04.01.071.018.092l.173.1zm-8.116-6.724c.047.078.11.138.185.181.078.046.144.051.198.02.006.039.013.07.019.09l.172.1v-.014a.65.65 0 0 1-.027-.202v-.392a.489.489 0 0 0-.079-.261.617.617 0 0 0-.211-.2.377.377 0 0 0-.158-.055c-.047-.004-.084.007-.111.033-.029.025-.043.06-.043.11l.17.097c0-.034.012-.056.037-.063.024-.008.057-.001.095.02a.254.254 0 0 1 .131.226v.057l-.104-.06c-.11-.064-.196-.089-.256-.074-.06.016-.09.07-.09.161 0 .074.024.15.072.226zm.121 2.102v-.014a.642.642 0 0 1-.027-.203v-.39a.497.497 0 0 0-.078-.263.617.617 0 0 0-.212-.198.41.41 0 0 0-.157-.057.16.16 0 0 0-.114.033.146.146 0 0 0-.04.11l.169.097c0-.034.013-.054.038-.06.023-.01.055-.003.094.02.044.025.078.06.1.099.02.037.031.08.031.125v.058l-.103-.06c-.11-.064-.197-.09-.256-.074-.06.014-.09.067-.09.161 0 .072.022.147.07.226.048.076.11.138.186.181.079.046.145.051.198.017.005.04.012.073.019.092l.172.1zM52.23 73.542v-.014a.644.644 0 0 1-.027-.202v-.39a.492.492 0 0 0-.08-.265.605.605 0 0 0-.21-.197.424.424 0 0 0-.159-.057.157.157 0 0 0-.111.033.147.147 0 0 0-.042.11l.17.098c0-.034.012-.054.036-.062.025-.01.057-.002.096.02a.253.253 0 0 1 .131.225v.058l-.104-.06c-.111-.064-.196-.09-.256-.074-.06.015-.09.068-.09.161 0 .073.024.148.07.225.049.078.11.138.185.182.08.045.145.05.2.017.005.041.01.072.019.093l.172.1zM33.467 62.695v-.015a.643.643 0 0 1-.028-.202l.002-.39a.503.503 0 0 0-.082-.264.605.605 0 0 0-.21-.198.415.415 0 0 0-.158-.057c-.047-.002-.085.009-.112.033a.149.149 0 0 0-.041.11l.17.098c0-.034.01-.055.036-.062.025-.01.056-.002.094.02a.26.26 0 0 1 .133.225v.058l-.104-.06c-.111-.064-.196-.09-.256-.074-.06.015-.09.068-.09.162 0 .072.023.147.07.225.049.077.11.137.185.18.079.046.145.052.198.018a.483.483 0 0 0 .02.093l.173.1zm15.987 9.243v-.014a.642.642 0 0 1-.027-.203v-.39a.493.493 0 0 0-.079-.263.61.61 0 0 0-.211-.198.41.41 0 0 0-.158-.057c-.047-.002-.084.01-.111.033-.029.026-.043.062-.043.11l.17.097c0-.034.012-.054.037-.06.026-.01.057-.003.095.02a.259.259 0 0 1 .133.224v.058l-.106-.06c-.11-.064-.196-.09-.256-.074-.06.014-.09.067-.09.161 0 .072.023.147.072.226a.53.53 0 0 0 .185.181c.078.046.144.051.198.017a.67.67 0 0 0 .019.092l.172.1zM25.473 58.072v-.014a.643.643 0 0 1-.028-.202l.001-.39a.49.49 0 0 0-.08-.264.605.605 0 0 0-.21-.198.42.42 0 0 0-.16-.057c-.047-.002-.085.009-.111.033a.148.148 0 0 0-.041.11l.169.098c0-.034.011-.055.036-.062.026-.01.057-.002.096.02a.254.254 0 0 1 .132.225v.058l-.104-.06c-.112-.065-.196-.09-.256-.074-.06.014-.09.068-.09.161 0 .073.023.148.07.226.049.076.11.137.185.18.079.046.144.052.198.018a.503.503 0 0 0 .02.093l.173.1zM44.235 68.92v-.014a.634.634 0 0 1-.028-.203l.001-.39a.489.489 0 0 0-.08-.263.606.606 0 0 0-.21-.198.402.402 0 0 0-.158-.056.155.155 0 0 0-.113.032.148.148 0 0 0-.041.11l.17.098c0-.034.012-.054.036-.063.025-.008.056-.001.095.022a.257.257 0 0 1 .132.224v.058l-.104-.06c-.111-.065-.196-.09-.256-.074-.06.014-.09.068-.09.161 0 .073.023.148.072.226a.518.518 0 0 0 .185.182c.077.044.143.05.198.016.004.041.01.072.018.093l.173.1zm-2.773-1.603v-.015a.604.604 0 0 1-.03-.203l.001-.39a.482.482 0 0 0-.08-.263.606.606 0 0 0-.21-.198.422.422 0 0 0-.158-.057c-.047-.002-.085.009-.112.033-.028.025-.04.063-.04.11l.167.097c0-.034.013-.054.038-.061.025-.01.057-.002.094.02a.251.251 0 0 1 .133.225v.058l-.105-.06c-.11-.064-.196-.09-.256-.075s-.09.068-.09.162c0 .072.025.148.072.226.048.077.11.138.184.181.079.045.145.051.199.017a.53.53 0 0 0 .02.093l.173.1zm11.526 4.448a.517.517 0 0 0 .257.407c.078.045.144.05.197.018.006.04.013.07.02.091l.173.1v-.012a.619.619 0 0 1-.03-.203l.002-.392a.492.492 0 0 0-.08-.262.617.617 0 0 0-.211-.2.378.378 0 0 0-.157-.055c-.048-.003-.085.007-.112.034-.028.025-.041.06-.041.11l.168.097c0-.035.012-.056.038-.063.025-.008.056-.002.094.02a.257.257 0 0 1 .133.227v.056l-.106-.06c-.11-.065-.196-.09-.255-.075-.06.016-.09.07-.09.162zM25.513 56.122l.002-.723.154.09v-.145l-.154-.09v-.075c0-.096.042-.121.122-.075.025.015.047.03.064.045l.005-.151a.625.625 0 0 0-.094-.067c-.085-.05-.15-.061-.195-.035-.047.025-.07.086-.071.181v.08l-.115-.066v.144l.115.066-.003.723.17.098zm5.212 2.643v-.08a.793.793 0 0 0-.082-.368.603.603 0 0 0-.238-.251.28.28 0 0 0-.176-.044.168.168 0 0 0-.123.088.442.442 0 0 0-.043.208v.024c0 .128.032.252.098.368a.703.703 0 0 0 .26.266c.063.036.12.054.171.057.05 0 .09-.018.12-.052l-.09-.153c-.05.044-.112.044-.19 0a.377.377 0 0 1-.137-.142.495.495 0 0 1-.063-.206l.493.285zM26.85 56.91c.063.037.12.055.17.057.05 0 .091-.018.121-.051l-.09-.154c-.05.044-.112.044-.19-.002a.38.38 0 0 1-.139-.14.467.467 0 0 1-.06-.206l.492.285v-.08a.78.78 0 0 0-.083-.368.601.601 0 0 0-.237-.251.272.272 0 0 0-.176-.044.16.16 0 0 0-.123.088.417.417 0 0 0-.044.208v.023c0 .129.032.252.099.37a.701.701 0 0 0 .26.265zm1.115-2.398v.024c0 .13.033.252.1.368a.709.709 0 0 0 .26.268c.063.037.12.055.17.055a.15.15 0 0 0 .121-.051l-.09-.152c-.05.044-.113.044-.191-.002a.388.388 0 0 1-.138-.143.47.47 0 0 1-.06-.205l.492.285v-.08a.783.783 0 0 0-.084-.368.608.608 0 0 0-.236-.249.273.273 0 0 0-.176-.046.163.163 0 0 0-.123.088.415.415 0 0 0-.045.208zm4.72 5.333l.001-.011a.803.803 0 0 0-.093-.381.662.662 0 0 0-.25-.267.29.29 0 0 0-.177-.047.155.155 0 0 0-.121.087.402.402 0 0 0-.045.204v.01c0 .134.03.261.095.38.062.119.145.207.247.266.068.039.128.055.18.047.053-.005.093-.035.12-.087a.412.412 0 0 0 .044-.201zm8.07 4.647v.011c0 .134.033.261.096.379.062.12.145.207.247.266a.287.287 0 0 0 .18.048.155.155 0 0 0 .122-.087.417.417 0 0 0 .041-.202v-.01a.804.804 0 0 0-.093-.382.654.654 0 0 0-.249-.267.29.29 0 0 0-.177-.047c-.053.006-.092.036-.122.087a.427.427 0 0 0-.044.204zm8.304 4.801v.011c0 .134.031.26.095.379.062.12.146.207.248.266a.29.29 0 0 0 .18.048c.052-.006.092-.036.12-.088a.413.413 0 0 0 .043-.201v-.011a.804.804 0 0 0-.093-.381.665.665 0 0 0-.25-.267.29.29 0 0 0-.177-.047.155.155 0 0 0-.121.087.403.403 0 0 0-.045.204zM24.537 55.453a.663.663 0 0 0 .254.268c.07.04.132.058.185.053a.165.165 0 0 0 .123-.087.419.419 0 0 0 .043-.205v-.045a.786.786 0 0 0-.103-.36.661.661 0 0 0-.247-.257.312.312 0 0 0-.183-.05.152.152 0 0 0-.122.087.403.403 0 0 0-.045.204v.01c0 .135.03.263.095.382zM45.976 66.72l-.004 1.23.13.075.002-.618a.11.11 0 0 1 .074-.058c.032-.007.068.001.11.026a.285.285 0 0 1 .15.27l-.001.573.128.075.002-.573c-.001-.206-.08-.358-.24-.45-.092-.053-.166-.054-.223-.007l.002-.468-.13-.075zm6.245 3.61l-.003 1.23.168.098.001-.62c.035-.048.085-.053.153-.014a.267.267 0 0 1 .099.093.279.279 0 0 1 .034.148l-.002.558.17.098.001-.565c-.002-.213-.084-.367-.244-.46-.084-.049-.154-.05-.21-.01l.001-.458-.168-.097zm-2.31-1.335l-.004 1.23.129.074v-.303l.081-.051.261.552.152.088-.326-.693.294-.194-.157-.09-.235.15-.069.056.002-.745-.129-.074zm5.23 4.256l.001-.566c-.003-.213-.082-.366-.244-.459-.085-.05-.154-.05-.21-.009l.002-.459-.17-.097-.003 1.23.17.098.002-.62c.033-.05.083-.055.15-.016a.284.284 0 0 1 .1.094.29.29 0 0 1 .033.148l-.001.558.17.098zm-4.18-.443l.002-.567c-.003-.213-.083-.364-.244-.458-.085-.049-.154-.053-.21-.01l.002-.46-.17-.097-.003 1.232.17.098.001-.62c.033-.049.084-.056.151-.017a.274.274 0 0 1 .1.096.287.287 0 0 1 .033.145l-.002.56.17.098zm-10.294-5.952l.002-.567c-.003-.213-.084-.365-.244-.457-.085-.05-.154-.053-.21-.012v-.458l-.168-.098-.003 1.232.168.097.002-.62c.034-.048.085-.055.152-.016a.263.263 0 0 1 .1.095.28.28 0 0 1 .033.146l-.001.56.17.098zm-5.695-3.292l.002-.567c0-.212-.082-.364-.244-.458-.083-.048-.154-.053-.209-.01l.001-.46-.17-.097-.003 1.232.17.098.002-.62c.033-.05.083-.057.152-.017a.268.268 0 0 1 .099.095.288.288 0 0 1 .033.146l-.002.56.17.098zm-7.994-4.622l.002-.567c-.001-.212-.083-.365-.243-.457-.084-.05-.155-.054-.21-.011l.001-.46-.17-.097-.003 1.232.17.097.001-.619c.033-.05.084-.057.153-.017a.27.27 0 0 1 .099.095.286.286 0 0 1 .032.146l-.001.56.17.098zm-2.3-1.33l.002-.567c-.002-.213-.082-.364-.244-.457-.085-.05-.154-.053-.209-.011l.002-.459-.17-.098-.004 1.232.17.098.002-.62c.033-.05.083-.056.15-.017a.273.273 0 0 1 .101.096.285.285 0 0 1 .032.145l-.001.56.17.098zm18.289 10.574l.001-.567c0-.213-.082-.364-.244-.458-.084-.049-.153-.053-.209-.01l.001-.46-.169-.097-.003 1.232.17.098v-.62c.034-.05.084-.056.152-.017a.28.28 0 0 1 .1.096.287.287 0 0 1 .033.145l-.002.56.17.098zm-10.294-5.951l.002-.568c-.003-.213-.085-.365-.244-.457-.085-.05-.154-.053-.21-.01l.002-.46-.17-.098-.003 1.232.17.098v-.62c.034-.05.084-.056.152-.017a.278.278 0 0 1 .1.096.287.287 0 0 1 .033.145l-.002.56.17.099zm15.989 9.243l.001-.567c-.002-.213-.084-.365-.244-.457-.085-.05-.154-.053-.21-.012v-.458l-.169-.098-.003 1.231.17.098.001-.62c.035-.048.085-.055.153-.016a.265.265 0 0 1 .098.095.276.276 0 0 1 .035.147l-.002.56.17.097zm-8.28-6.625l.306-.827-.138-.08-.178.549-.186-.76-.142-.08.268 1.013-.03.071c-.016.046-.035.07-.06.078-.024.006-.058-.005-.102-.03l-.035-.022v.12l.048.038.024.016c.102.059.178.03.225-.086zm14.193 9.956c.06-.036.09-.115.09-.232a.703.703 0 0 0-.08-.333.567.567 0 0 0-.223-.237.27.27 0 0 0-.16-.046l.028-.263.404.233v-.168l-.544-.315-.057.557.135.116a.113.113 0 0 1 .07-.013c.021 0 .048.013.08.03a.34.34 0 0 1 .13.139c.032.06.048.124.048.197 0 .072-.015.123-.043.148-.03.027-.071.025-.123-.005a.337.337 0 0 1-.164-.27L54 74.251a.674.674 0 0 0 .33.522c.104.06.186.07.244.036zm-8.731-5.452v-.202a.963.963 0 0 0-.082-.415.608.608 0 0 0-.247-.266c-.113-.065-.197-.072-.25-.018-.056.052-.084.161-.085.33v.202a.958.958 0 0 0 .085.418.602.602 0 0 0 .246.267c.113.066.195.07.25.017.055-.054.082-.165.083-.333zm12.173 5.065v-.2a.99.99 0 0 0-.081-.417.607.607 0 0 0-.248-.266c-.113-.066-.196-.07-.251-.019-.054.054-.083.163-.083.33v.203a.965.965 0 0 0 .085.418.6.6 0 0 0 .246.267c.111.064.195.071.25.018.055-.055.082-.166.082-.334zM37.85 64.736l.001-.202a.944.944 0 0 0-.082-.415.609.609 0 0 0-.248-.266c-.113-.065-.196-.072-.25-.018-.055.051-.083.162-.084.33v.202c0 .163.03.303.085.418a.604.604 0 0 0 .247.268c.112.065.194.068.249.015.055-.053.082-.164.082-.332zm15.99 9.245v-.203a.984.984 0 0 0-.082-.415.612.612 0 0 0-.25-.267c-.111-.064-.195-.07-.25-.017-.053.052-.082.162-.082.33v.202a.961.961 0 0 0 .084.418.6.6 0 0 0 .247.268c.11.064.194.069.25.016.055-.054.082-.165.082-.332zM29.856 60.115v-.202a.966.966 0 0 0-.084-.416.602.602 0 0 0-.247-.266c-.112-.065-.196-.072-.25-.018-.055.051-.082.162-.083.33v.203a.982.982 0 0 0 .084.417.598.598 0 0 0 .247.268c.112.064.195.07.248.015.056-.053.084-.163.085-.331zm-6.663-6.203l-.003 1.202.169.098.001-.412c.05.092.116.161.2.21.089.05.16.052.213.003.052-.05.079-.142.08-.276v-.01a.838.838 0 0 0-.078-.375.537.537 0 0 0-.216-.244c-.085-.05-.153-.052-.203-.013l-.006-.092-.157-.09zM38.556 65.56c.063-.025.095-.09.095-.194a.451.451 0 0 0-.043-.194.56.56 0 0 0-.127-.176.143.143 0 0 0 .113-.04.172.172 0 0 0 .044-.123.544.544 0 0 0-.085-.293.668.668 0 0 0-.239-.227.354.354 0 0 0-.166-.055.136.136 0 0 0-.117.049c-.028.032-.04.08-.04.139l.167.097c0-.049.016-.08.044-.092.03-.014.068-.006.114.02a.3.3 0 0 1 .116.113.303.303 0 0 1 .037.151c0 .058-.016.092-.046.106-.031.012-.072.003-.124-.025l-.104-.06v.154l.1.058a.397.397 0 0 1 .142.13.324.324 0 0 1 .046.17c0 .062-.016.098-.046.113s-.072.007-.124-.023a.336.336 0 0 1-.12-.118.295.295 0 0 1-.046-.151l-.17-.099c0 .1.032.197.094.293.061.095.141.172.24.23.1.058.184.075.245.047zm-1.532-.835l.002-.84-.152-.088-.008.082a.507.507 0 0 0-.202-.22c-.091-.052-.163-.055-.219-.005-.055.048-.083.14-.084.274 0 .142.028.27.084.384a.548.548 0 0 0 .215.246c.081.047.148.055.196.02v.057c0 .069-.017.11-.049.127-.033.016-.077.008-.133-.024a.513.513 0 0 1-.193-.219l-.08.071a.723.723 0 0 0 .12.173.673.673 0 0 0 .161.133c.106.061.187.076.25.045.062-.03.092-.102.092-.216zm7.994 4.622l.003-.84-.152-.088-.009.082a.51.51 0 0 0-.202-.22c-.09-.052-.163-.054-.218-.005-.056.048-.084.14-.084.274 0 .142.027.27.082.384a.559.559 0 0 0 .216.246c.082.047.146.053.195.018v.058c0 .069-.016.11-.05.128-.03.016-.076.007-.131-.024a.512.512 0 0 1-.193-.219l-.08.072a.732.732 0 0 0 .12.173.689.689 0 0 0 .162.133c.103.06.187.075.25.045.061-.03.091-.103.091-.217zm7.995 4.622l.002-.84-.152-.088-.008.082a.51.51 0 0 0-.202-.22c-.092-.052-.165-.055-.22-.006-.056.048-.083.141-.083.275 0 .142.028.27.082.384a.557.557 0 0 0 .216.246c.082.047.147.054.195.019v.058c0 .068-.016.11-.049.127-.031.016-.077.007-.132-.024a.514.514 0 0 1-.193-.218l-.08.07a.686.686 0 0 0 .12.174.67.67 0 0 0 .162.133c.104.06.187.075.248.044.063-.029.093-.102.094-.216zm4.18.444l.001-.841-.152-.088-.008.084a.507.507 0 0 0-.202-.222c-.091-.053-.164-.053-.219-.005-.056.048-.083.14-.084.275 0 .143.028.271.082.382a.558.558 0 0 0 .217.247c.081.047.146.053.194.018v.06c0 .067-.016.11-.049.125-.031.018-.077.008-.132-.024a.5.5 0 0 1-.192-.218l-.08.071c.027.06.067.117.12.173a.68.68 0 0 0 .161.133c.104.06.187.076.249.046.063-.03.093-.102.093-.216zM29.03 60.102l.003-.84-.154-.088-.008.082a.51.51 0 0 0-.202-.22c-.091-.053-.164-.055-.219-.005-.055.047-.084.14-.084.273a.85.85 0 0 0 .084.385.548.548 0 0 0 .214.246c.082.047.148.054.197.02v.057c0 .069-.018.11-.05.127-.033.015-.076.008-.133-.025a.517.517 0 0 1-.193-.218l-.08.071a.719.719 0 0 0 .12.173.69.69 0 0 0 .162.133c.105.061.189.077.25.045.062-.03.093-.101.093-.215zm-1.765-6.791l-.004 1.232.17.098v-.284l.076-.045.222.501.197.113-.308-.684.28-.2-.202-.117-.21.149-.053.045.001-.71-.169-.098zm3.42 7.776v-.156l-.47-.272.248-.162a.458.458 0 0 0 .142-.137.3.3 0 0 0 .043-.158.526.526 0 0 0-.084-.285.677.677 0 0 0-.234-.22.367.367 0 0 0-.18-.058.147.147 0 0 0-.122.064.288.288 0 0 0-.043.167l.17.098c0-.067.016-.11.046-.131.03-.022.072-.016.127.016a.319.319 0 0 1 .15.273c0 .041-.01.078-.032.106a.368.368 0 0 1-.103.097l-.34.23v.133l.682.395zm16.007 8.994v-.156l-.127-.073.002-.752-.174-.1-.44.536.004.12.439.254v.26l.167.097.001-.26.128.074zm-9.79-7.373l.182-.552.182.761.103.06.222-.74-.128-.074-.147.58-.178-.768-.104-.06-.176.55-.147-.737-.129-.074.217.994.104.06zm-12.957-6.226v-.126l-.144-.084.056-.302-.118-.068-.054.303-.157-.09.056-.303-.116-.067-.056.302-.19-.11v.127l.169.098-.042.227-.182-.105v.127l.161.093-.054.298.116.067.055-.298.155.09-.053.299.117.067.054-.298.174.1v-.126l-.153-.088.041-.228.165.095zm27.49 14.628l.118.068.054-.296.155.09-.052.297.116.067.052-.297.176.101v-.128l-.153-.088.04-.229.166.096v-.126l-.144-.084.055-.303-.117-.067-.054.303-.157-.09.054-.304-.116-.067-.054.303-.192-.11v.126l.17.098-.04.228-.182-.105v.128l.16.093-.055.296zM31.94 61.104v-.126l-.144-.084.055-.303-.117-.067-.054.303-.157-.09.056-.303-.118-.068-.054.303-.19-.11v.127l.168.097-.04.229-.182-.106v.127l.16.092-.054.3.117.066.054-.298.155.09-.052.299.116.067.053-.299.176.102v-.127l-.154-.088.041-.228.165.095zM47.93 70.35v-.127l-.144-.083.054-.303-.116-.068-.054.304-.157-.091.054-.303-.116-.068-.054.304-.192-.111v.126l.17.098-.04.229-.183-.106v.127l.16.093-.054.297.118.068.054-.297.155.09-.054.297.117.068.053-.298.176.101v-.126l-.153-.09.04-.228.166.097zm-7.994-4.623V65.6l-.145-.083.055-.304-.117-.067-.054.303-.157-.09.055-.304-.116-.067-.055.303-.191-.11v.126l.17.098-.041.229-.182-.105v.126l.16.092-.053.299.116.067.054-.297.156.09-.053.298.116.067.053-.299.176.102v-.126l-.154-.09.04-.228.167.096zm-10.02-7.059l.002-.568a.574.574 0 0 0-.062-.272.466.466 0 0 0-.185-.186c-.099-.057-.176-.057-.23 0a.45.45 0 0 0-.208-.253c-.09-.053-.165-.06-.217-.02l-.004-.092-.16-.093-.002.867.169.098.002-.626c.028-.049.075-.053.144-.013a.254.254 0 0 1 .135.23l-.002.57.17.1.002-.595a.099.099 0 0 1 .05-.065c.025-.01.057-.002.094.02.05.028.083.06.105.098.02.038.03.085.03.14l-.002.563.17.097zm1.704.55l.352-.53-.153-.088-.265.434-.262-.74-.154-.088.348.935-.001.434.133.077.002-.433zm-8.196-8.063l.305.755-.316.407.206.12.22-.303.216.555.206.119-.313-.77.308-.402-.202-.117-.215.297-.212-.544-.203-.117zm.903.522l.304.755-.315.407.205.12.22-.303.216.555.206.118-.312-.77.308-.4-.203-.118-.214.297-.213-.544-.202-.117zm.902.522l.305.755-.316.407.206.119.22-.302.216.554.206.12-.312-.771.31-.4-.205-.118-.215.297-.212-.544-.203-.117zm-3.891-3.672l42.795 24.743-.028 9.815L21.31 58.34l.028-9.815z"/>
            <path fill="#F9F9FA" d="M44.702 68.465a.345.345 0 0 1 .148.185v.381c-.034.048-.084.054-.152.014a.322.322 0 0 1-.128-.148.554.554 0 0 1-.047-.233c0-.1.017-.164.048-.199.032-.032.074-.033.13 0M43.99 66.043c.054.031.096.076.127.135.033.06.05.128.053.206v.011l-.377-.218c.008-.073.03-.122.065-.145.036-.023.08-.019.132.011M39.455 65.703l.054-.23.202.09-.052.231z"/>
            <path fill="#135687" d="M39.66 65.794l-.205-.091.054-.23.202.09z"/>
            <path fill="#F9F9FA" d="M35.819 63.68c.035-.006.09.01.16.048l.105.056v.175c-.017.026-.042.037-.076.04a.214.214 0 0 1-.108-.03.281.281 0 0 1-.1-.088.214.214 0 0 1-.036-.117c0-.048.019-.077.055-.085"/>
            <path fill="#135687" d="M24.255 51.635l-.308.401.313.77-.206-.118-.217-.555-.22.302-.205-.119.316-.407-.305-.755.203.117.212.544.215-.297zM25.612 54.93c.03.018.061.04.094.068l-.005.15a.399.399 0 0 0-.064-.044c-.08-.046-.121-.02-.122.075v.076l.154.089v.144l-.154-.089-.002.723-.17-.098.003-.723-.115-.066v-.144l.115.066v-.08c0-.095.024-.156.071-.181.046-.026.11-.014.195.035"/>
            <path fill="#26272C" d="M47.237 68.168v-.01a.474.474 0 0 0-.051-.206.337.337 0 0 0-.129-.136c-.052-.03-.096-.033-.13-.01-.036.023-.059.071-.067.145l.377.217m.13.137v.062l-.512-.296a.532.532 0 0 0 .066.246.42.42 0 0 0 .158.169.215.215 0 0 0 .114.036.143.143 0 0 0 .084-.04l.078.119c-.063.073-.157.075-.284.001a.73.73 0 0 1-.344-.624v-.027c0-.087.014-.156.043-.207.03-.05.07-.08.121-.089a.25.25 0 0 1 .167.039.59.59 0 0 1 .228.244.8.8 0 0 1 .081.367"/>
            <path fill="#135687" d="M24.228 56.12v.458c.054-.042.123-.039.208.01.162.094.242.245.244.458l-.001.567-.17-.098.002-.56c0-.06-.011-.107-.033-.145a.272.272 0 0 0-.1-.096c-.068-.04-.118-.032-.151.017l-.002.62-.17-.098.004-1.232.17.098zM25.905 57.438c.09.052.164.12.219.204a.434.434 0 0 1 .082.246l-.17-.098a.211.211 0 0 0-.035-.114.274.274 0 0 0-.096-.092c-.038-.022-.067-.03-.091-.023-.024.006-.035.026-.035.059 0 .03.01.06.033.09.022.029.066.07.132.124.065.057.117.106.156.153a.51.51 0 0 1 .083.13.338.338 0 0 1 .028.137c0 .077-.028.124-.085.14-.057.014-.13-.003-.222-.056a.678.678 0 0 1-.277-.305.418.418 0 0 1-.039-.167l.164.094a.26.26 0 0 0 .045.133c.028.04.064.074.111.1.044.026.079.037.102.03.022-.006.035-.024.035-.055a.16.16 0 0 0-.038-.101.835.835 0 0 0-.123-.12 1.33 1.33 0 0 1-.145-.137c-.083-.095-.125-.188-.125-.276 0-.076.027-.122.082-.141.056-.019.125-.004.21.045M27.364 58.086v.211l.133.077v.145l-.134-.077-.001.484c0 .032.006.06.017.082.01.02.031.04.061.057.019.01.04.02.06.026v.151a.507.507 0 0 1-.112-.046c-.13-.075-.195-.196-.194-.36l.001-.491-.124-.072v-.145l.125.072v-.211l.168.097zM28.862 59.788l.002-.381a.358.358 0 0 0-.15-.187c-.057-.032-.1-.032-.131 0-.032.035-.046.101-.047.2 0 .087.014.164.045.233a.322.322 0 0 0 .129.148c.067.04.12.035.152-.013zm.018-.614l.154.089-.003.84c0 .114-.031.186-.093.215-.061.032-.145.016-.25-.045a.685.685 0 0 1-.161-.133.719.719 0 0 1-.12-.173l.08-.07a.514.514 0 0 0 .192.217c.057.033.1.04.134.025.031-.018.049-.059.049-.127v-.058c-.049.035-.115.028-.197-.02a.548.548 0 0 1-.214-.245.85.85 0 0 1-.084-.385c0-.133.029-.226.084-.273.055-.05.128-.048.219.005a.51.51 0 0 1 .202.22l.008-.082zM29.687 60.062v-.264a.754.754 0 0 0-.038-.263.288.288 0 0 0-.123-.147c-.056-.032-.096-.032-.123.001-.025.033-.04.1-.042.203v.263c0 .11.012.2.038.267.027.07.069.121.126.154.053.03.094.029.12-.004.026-.037.04-.104.042-.21m.087-.565a.97.97 0 0 1 .083.416v.202c0 .168-.03.278-.084.331-.054.054-.138.05-.249-.015a.602.602 0 0 1-.247-.268.98.98 0 0 1-.084-.417v-.203c0-.168.028-.279.083-.33.054-.054.138-.047.25.018a.606.606 0 0 1 .248.266M30.331 59.696c.099.058.176.13.234.22.056.091.084.185.084.286a.302.302 0 0 1-.043.158.457.457 0 0 1-.142.137l-.249.162.471.272v.155l-.681-.394v-.133l.339-.23a.369.369 0 0 0 .104-.097.173.173 0 0 0 .031-.106.316.316 0 0 0-.15-.273c-.055-.032-.097-.039-.127-.016-.03.02-.046.064-.046.13l-.17-.097c0-.07.015-.128.043-.167a.147.147 0 0 1 .122-.064c.051 0 .113.019.18.057M33.9 62.06c.09.052.163.12.218.204a.445.445 0 0 1 .082.246l-.17-.097a.21.21 0 0 0-.035-.115.278.278 0 0 0-.096-.092c-.037-.021-.067-.03-.09-.023-.024.006-.036.026-.036.06 0 .03.011.06.032.088.021.029.065.07.133.126.066.056.118.106.155.151.04.046.066.089.085.132a.335.335 0 0 1 .028.136c0 .077-.029.124-.086.14-.056.014-.13-.003-.221-.056a.672.672 0 0 1-.278-.305.415.415 0 0 1-.038-.167l.163.094a.26.26 0 0 0 .045.133c.028.04.064.074.111.1.044.026.079.037.101.03.024-.006.036-.024.036-.055a.16.16 0 0 0-.037-.101.824.824 0 0 0-.124-.12 1.292 1.292 0 0 1-.144-.136c-.085-.096-.127-.19-.127-.278 0-.076.029-.12.084-.14.055-.019.124-.004.209.045M38.314 64.312c.1.058.18.133.239.227.056.09.086.188.085.293a.172.172 0 0 1-.044.123.142.142 0 0 1-.113.04.564.564 0 0 1 .127.176.45.45 0 0 1 .043.193c0 .105-.032.17-.095.195-.061.028-.144.01-.245-.047a.693.693 0 0 1-.24-.23.527.527 0 0 1-.093-.293l.17.098c0 .05.015.102.044.152.03.05.07.089.121.118.052.03.094.038.124.023s.046-.051.046-.113a.325.325 0 0 0-.047-.17.395.395 0 0 0-.14-.13l-.101-.058v-.154l.104.06c.052.028.092.037.124.025.03-.014.046-.048.046-.106a.306.306 0 0 0-.037-.151.3.3 0 0 0-.116-.113c-.046-.026-.084-.033-.114-.02-.028.013-.044.043-.044.092l-.168-.097c0-.06.013-.107.042-.139a.135.135 0 0 1 .116-.048.354.354 0 0 1 .166.054M44.85 69.031v-.38a.346.346 0 0 0-.149-.186c-.056-.033-.098-.032-.13 0-.031.035-.047.1-.048.199 0 .086.016.164.047.233a.32.32 0 0 0 .129.148c.067.04.117.034.15-.014zm.018-.613l.153.088-.003.84c0 .114-.03.187-.092.217s-.146.015-.25-.045a.684.684 0 0 1-.16-.133.737.737 0 0 1-.122-.173l.081-.072c.052.101.116.174.193.219.055.032.1.04.132.024.033-.018.049-.06.049-.128v-.057c-.049.034-.113.028-.195-.019a.562.562 0 0 1-.216-.246.871.871 0 0 1-.082-.384c0-.134.028-.226.084-.274.055-.05.127-.047.218.005.086.05.154.124.203.22l.007-.082zM48.21 69.985l-.001.458c.056-.041.125-.037.21.012.16.092.242.244.244.457l-.001.568-.17-.098.001-.56c0-.06-.01-.108-.033-.147a.262.262 0 0 0-.1-.095c-.067-.039-.117-.032-.152.017l-.002.62-.17-.099.004-1.231.17.098zM49.888 71.304c.09.052.164.12.218.204a.445.445 0 0 1 .083.247l-.17-.098a.22.22 0 0 0-.035-.115.279.279 0 0 0-.096-.091c-.038-.022-.068-.03-.091-.024-.024.006-.037.026-.037.058 0 .031.011.06.033.09.022.029.066.07.133.126.067.056.118.106.156.151a.547.547 0 0 1 .084.132.333.333 0 0 1 .027.135c0 .077-.027.125-.084.141-.057.014-.13-.003-.222-.055a.682.682 0 0 1-.277-.305.423.423 0 0 1-.04-.169l.164.096a.25.25 0 0 0 .046.133c.028.04.064.073.11.1.045.026.078.036.102.03.023-.007.034-.026.034-.057a.155.155 0 0 0-.036-.1.824.824 0 0 0-.124-.12 1.337 1.337 0 0 1-.144-.136c-.085-.096-.127-.19-.126-.278 0-.076.028-.12.083-.14.054-.02.124-.004.21.045M53.668 73.928l.001-.264a.72.72 0 0 0-.038-.263.28.28 0 0 0-.124-.147c-.055-.032-.096-.032-.121.002-.027.031-.041.099-.042.202v.264c0 .11.012.199.038.266.027.07.067.12.124.153.055.032.096.03.12-.004.028-.035.04-.104.042-.21m.088-.564c.054.112.081.252.083.415v.203c-.001.167-.028.279-.084.331-.055.054-.138.049-.25-.016a.6.6 0 0 1-.246-.267.961.961 0 0 1-.085-.418v-.202c.001-.168.03-.278.083-.33.055-.054.139-.047.25.017a.61.61 0 0 1 .25.267"/>
            <path fill="#02ECF1" d="M62.162 84.135l-3.187 1.855L23.36 65.423l3.187-1.855z"/>
            <path fill="#26272C" d="M46.346 75.826l.823 1.426-.253.144-.822-1.426zM55.448 79.846l.25.436-.827.472-.252.144-.828.473-.251-.436.827-.472.253-.145z"/>
            <path fill="#26272C" d="M54.871 80.754l.823 1.426-.253.145-.822-1.427z"/>
            <path fill="#250F8A" d="M56.043 82.569l.006-2.271a.968.968 0 0 0-.438-.76l-1.972-1.14c-.244-.142-.442-.029-.443.25l-.006 2.271c-.001.28.195.62.44.761l1.972 1.14c.242.14.44.028.441-.251zm-8.525-4.929l.006-2.271a.97.97 0 0 0-.44-.761l-1.972-1.14c-.242-.14-.44-.027-.44.252l-.007 2.27c-.001.28.196.621.438.76l1.972 1.141c.244.141.442.028.443-.25zm-5.662-7.288l17.119 9.897-.016 5.746-17.12-9.897.017-5.746z"/>
            <path fill="#A4A6A8" d="M47.169 77.252l-.823-1.426.828-.473-.251-.435-.828.472-.822-1.426-.253.144.822 1.426-.827.472.251.436.828-.472.822 1.426.253-.144zm-.085-2.644a.97.97 0 0 1 .44.761l-.006 2.271c0 .28-.199.392-.443.251l-1.972-1.14a.97.97 0 0 1-.439-.76l.007-2.272c0-.278.199-.391.441-.251l1.972 1.14z"/>
            <path fill="#26272C" d="M45.273 73.964l.822 1.426-.253.144-.821-1.426z"/>
            <path fill="#26272C" d="M46.923 74.918l.25.435-.827.473-.252.144-.828.472-.251-.435.827-.473.253-.144zM53.798 78.893l.822 1.425-.253.145-.822-1.426z"/>
            <path fill="#A4A6A8" d="M55.694 82.18l-.823-1.426.828-.472-.251-.436-.828.473-.822-1.426-.253.144.822 1.426-.827.472.251.436.828-.473.822 1.426.253-.144zm-.083-2.642c.242.14.44.48.438.76l-.006 2.271c-.001.279-.199.392-.441.252l-1.973-1.14a.97.97 0 0 1-.44-.762l.007-2.271c0-.279.199-.392.443-.25l1.972 1.14z"/>
            <path fill="#135685" d="M38.396 69.988l.251.436-.827.472-.253.144-.827.473-.251-.436.827-.472.253-.144z"/>
            <path fill="#02ECF1" d="M38.992 72.71l.006-2.27a.969.969 0 0 0-.438-.76l-1.973-1.14c-.244-.142-.442-.029-.442.25l-.007 2.271c0 .28.196.62.44.761l1.972 1.14c.243.14.44.028.442-.251zm-5.694-7.306l8.558 4.948-.016 5.746-8.559-4.948.017-5.746z"/>
            <path fill="#FEFEFD" d="M38.642 72.322l-.822-1.426.827-.472-.25-.436-.828.472-.822-1.425-.253.144.822 1.426-.827.472.25.436.828-.473.822 1.426.253-.144zm-.082-2.642a.97.97 0 0 1 .438.76l-.006 2.27c-.001.28-.2.393-.442.253l-1.972-1.14a.97.97 0 0 1-.44-.762l.007-2.271c0-.279.198-.392.442-.25l1.973 1.14z"/>
            <path fill="#135685" d="M37.82 70.896l-.253.144.822 1.426.253-.144zM36.747 69.034l.822 1.427-.253.144-.822-1.426z"/>
            <path fill="#26272C" d="M21.345 60.13l.251.436-.827.472-.253.144-.828.472-.25-.435.827-.472.252-.144z"/>
            <path fill="#26272C" d="M20.769 61.038l.822 1.426-.253.144-.822-1.426z"/>
            <path fill="#FEFEFD" d="M21.59 62.464l-.821-1.426.827-.472-.251-.436-.828.472-.822-1.426-.252.145.822 1.426-.828.472.251.436.828-.473.822 1.426.253-.144zm-.082-2.642a.97.97 0 0 1 .439.76l-.007 2.27c0 .28-.199.393-.44.253l-1.973-1.14a.971.971 0 0 1-.44-.762l.006-2.271c0-.279.199-.392.443-.25l1.972 1.14z"/>
            <path fill="#26272C" d="M19.695 59.176l.822 1.427-.252.144-.822-1.426z"/>
            <path fill="#250F8A" d="M21.94 62.853l.007-2.271a.97.97 0 0 0-.439-.76l-1.972-1.14c-.244-.142-.442-.03-.443.25l-.006 2.271c-.001.28.196.62.44.761l1.972 1.14c.242.14.44.028.441-.251zm-5.761-7.346l8.558 4.948-.016 5.746-8.558-4.948.016-5.746z"/>
            <path fill="#26272C" d="M29.295 65.967l.822 1.427-.253.144-.822-1.426zM28.222 64.106l.822 1.426-.253.144-.822-1.426z"/>
            <path fill="#A4A6A8" d="M30.117 67.394l-.822-1.427.827-.472-.25-.435-.828.472-.822-1.426-.253.144.822 1.426-.828.472.252.436.827-.472.823 1.426.252-.144zm-.084-2.644a.97.97 0 0 1 .44.761l-.006 2.271c-.001.28-.2.392-.443.251l-1.972-1.14a.97.97 0 0 1-.439-.76l.007-2.272c0-.278.198-.391.44-.251l1.973 1.14z"/>
            <path fill="#26272C" d="M29.871 65.06l.251.435-.827.473-.253.144-.827.472-.251-.435.827-.473.253-.144z"/>
            <path fill="#250F8A" d="M30.467 67.782l.006-2.271a.97.97 0 0 0-.44-.76l-1.972-1.141c-.242-.14-.44-.028-.441.251l-.007 2.272c0 .279.196.62.439.76l1.972 1.14c.244.141.442.028.443-.25zm-5.73-7.327l8.56 4.949-.016 5.746-8.56-4.949.016-5.746z"/>
        </g>
    </g>
</svg>
