<svg xmlns="http://www.w3.org/2000/svg" xmlns:xlink="http://www.w3.org/1999/xlink" width="218" height="144" viewBox="0 0 218 144">
    <defs>
        <path id="a" d="M.757 4.63c-.008 2.758 1.69 5.52 5.087 7.626 6.747 4.18 17.65 4.18 24.352 0 3.328-2.076 4.996-4.793 5.002-7.515.003-1.26.008-2.52.01-3.78-.007 2.722-1.674 5.44-5.002 7.514-6.703 4.18-17.606 4.18-24.351 0C2.455 6.372.759 3.608.765.852"/>
        <path id="c" d="M.757 4.63c-.008 2.758 1.69 5.52 5.087 7.626 6.747 4.18 17.65 4.18 24.352 0 3.328-2.076 4.996-4.793 5.002-7.515.003-1.26.008-2.52.01-3.78-.007 2.722-1.674 5.44-5.002 7.514-6.703 4.18-17.606 4.18-24.351 0C2.455 6.372.759 3.608.765.852"/>
        <path id="e" d="M3.993.737c-.645.398-1.291.794-1.937 1.188L.119 3.111c.758-.466 1.81-.399 2.972.309l3.874-2.372C6.29.636 5.652.441 5.087.441c-.408 0-.777.102-1.094.296"/>
        <path id="g" d="M3.993.737c-.645.398-1.291.794-1.937 1.188L.119 3.111c.758-.466 1.81-.399 2.972.309l3.874-2.372C6.29.636 5.652.441 5.087.441c-.408 0-.777.102-1.094.296"/>
        <path id="i" d="M3.993.737c-.645.398-1.291.794-1.937 1.188L.119 3.111c.758-.466 1.81-.399 2.972.309l3.874-2.372C6.29.636 5.652.441 5.087.441c-.408 0-.777.102-1.094.296"/>
        <path id="k" d="M3.993.737c-.645.398-1.291.794-1.937 1.188L.119 3.111c.758-.466 1.81-.399 2.972.309l3.874-2.372C6.29.636 5.652.441 5.087.441c-.408 0-.777.102-1.094.296"/>
        <path id="m" d="M3.993.737c-.645.398-1.291.794-1.937 1.188L.119 3.111c.758-.466 1.81-.399 2.972.309l3.874-2.372C6.29.636 5.652.441 5.087.441c-.408 0-.777.102-1.094.296"/>
        <path id="o" d="M3.993.737c-.645.398-1.291.794-1.937 1.188L.119 3.111c.758-.466 1.81-.399 2.972.309l3.874-2.372C6.29.636 5.652.441 5.087.441c-.408 0-.777.102-1.094.296"/>
        <path id="q" d="M3.993.737c-.645.398-1.291.794-1.937 1.188L.119 3.111c.758-.466 1.81-.399 2.972.309l3.874-2.372C6.29.636 5.652.441 5.087.441c-.408 0-.777.102-1.094.296"/>
        <path id="s" d="M3.993.737c-.645.398-1.291.794-1.937 1.188L.119 3.111c.758-.466 1.81-.399 2.972.309l3.874-2.372C6.29.636 5.652.441 5.087.441c-.408 0-.777.102-1.094.296"/>
        <path id="u" d="M3.993.737c-.645.398-1.291.794-1.937 1.188L.119 3.111c.758-.466 1.81-.399 2.972.309l3.874-2.372C6.29.636 5.652.441 5.087.441c-.408 0-.777.102-1.094.296"/>
        <path id="w" d="M3.993.737c-.645.398-1.291.794-1.937 1.188L.119 3.111c.758-.466 1.81-.399 2.972.309l3.874-2.372C6.29.636 5.652.441 5.087.441c-.408 0-.777.102-1.094.296"/>
        <path id="y" d="M1.445 2.721C1.444 4.18.955 5.205.168 5.69l.61-.375c.062-.038.143-.087.204-.126.543-.33 1.085-.664 1.628-.997l1.423-.87.204-.125C5.023 2.713 5.51 1.688 5.514.228"/>
        <path id="A" d="M.784 2.619c2.227 1.405 4.02 4.802 4.015 7.601l3.734-2.373C8.541 5.048 6.746 1.65 4.52.245"/>
        <path id="C" d="M.784 2.619c2.227 1.405 4.02 4.802 4.015 7.601l3.734-2.373C8.541 5.048 6.746 1.65 4.52.245"/>
        <path id="E" d="M.784 2.619c2.227 1.405 4.02 4.802 4.015 7.601l3.734-2.373C8.541 5.048 6.746 1.65 4.52.245"/>
        <path id="G" d="M.784 2.619c2.227 1.405 4.02 4.802 4.015 7.601l3.734-2.373C8.541 5.048 6.746 1.65 4.52.245"/>
        <path id="I" d="M.784 2.619c2.227 1.405 4.02 4.802 4.015 7.601l3.734-2.373C8.541 5.048 6.746 1.65 4.52.245"/>
        <path id="K" d="M.784 2.619c2.227 1.405 4.02 4.802 4.015 7.601l3.734-2.373C8.541 5.048 6.746 1.65 4.52.245"/>
        <path id="M" d="M.784 2.619c2.227 1.405 4.02 4.802 4.015 7.601l3.734-2.373C8.541 5.048 6.746 1.65 4.52.245"/>
        <path id="O" d="M.784 2.619c2.227 1.405 4.02 4.802 4.015 7.601l3.734-2.373C8.541 5.048 6.746 1.65 4.52.245"/>
        <path id="Q" d="M.784 2.619c2.227 1.405 4.02 4.802 4.015 7.601l3.734-2.373C8.541 5.048 6.746 1.65 4.52.245"/>
        <path id="S" d="M.784 2.619c2.227 1.405 4.02 4.802 4.015 7.601l3.734-2.373C8.541 5.048 6.746 1.65 4.52.245"/>
        <path id="U" d="M.784 2.619c2.227 1.405 4.02 4.802 4.015 7.601l3.734-2.373C8.541 5.048 6.746 1.65 4.52.245"/>
        <path id="W" d="M.784 2.619c2.227 1.405 4.02 4.802 4.015 7.601l3.734-2.373C8.541 5.048 6.746 1.65 4.52.245"/>
        <path id="Y" d="M.784 2.619c2.227 1.405 4.02 4.802 4.015 7.601l3.734-2.373C8.541 5.048 6.746 1.65 4.52.245"/>
        <path id="aa" d="M.784 2.619c2.227 1.405 4.02 4.802 4.015 7.601l3.734-2.373C8.541 5.048 6.746 1.65 4.52.245"/>
        <path id="ac" d="M.784 2.619c2.227 1.405 4.02 4.802 4.015 7.601l3.734-2.373C8.541 5.048 6.746 1.65 4.52.245"/>
        <path id="ae" d="M.784 2.619c2.227 1.405 4.02 4.802 4.015 7.601l3.734-2.373C8.541 5.048 6.746 1.65 4.52.245"/>
    </defs>
    <g fill="none" fill-rule="evenodd">
        <path fill="#02ECF1" d="M217.524 96.834C214.4 47.045 141.176 7.048 63.18 9.812c-77.996 2.763.498 59.837-47.664 59.918-48.162.08 25.806 87.549 109.57 71.627 83.763-15.92 95.565 5.265 92.44-44.523z" opacity=".1"/>
        <path fill="#250F8A" d="M129.016 119.794c-.026.139-.067.28-.102.418.037-.147.078-.292.103-.442l-.001.024m-.264 1.02c-.046.136-.108.27-.163.403.057-.139.12-.28.169-.422-.003.006-.004.013-.006.02m-.435 1.016c-.064.125-.143.245-.214.367.075-.124.155-.253.22-.384-.002.007-.003.012-.006.017m-.648 1.049c-.067.094-.142.187-.214.278.075-.095.152-.192.22-.29l-.006.012m-.578.747c-.136.155-.296.304-.447.456.155-.156.318-.31.456-.47l-.01.014m-1.278 1.224c-.061.05-.12.1-.183.154.065-.054.127-.109.19-.16l-.007.006m3.268-5.66c.237-2.904-1.463-5.86-5.135-8.075-6.875-4.154-17.98-4.154-24.806-.006-3.4 2.068-5.096 4.777-5.092 7.488l-.002-.026-.01 3.75c-.007 2.74 1.72 5.484 5.182 7.575.413.247.844.482 1.285.703.15.071.308.139.462.209.26.12.515.246.782.356.03.013.065.021.095.033.61.25 1.242.469 1.888.667.05.016.096.038.147.052.144.042.295.073.44.113.364.1.73.197 1.101.282.097.022.19.053.288.074.143.03.29.051.435.078.309.062.62.12.933.172.125.02.245.048.37.066.137.021.276.03.413.05.29.036.58.07.872.101.142.015.28.037.421.05.132.01.265.011.396.022.294.02.586.035.881.049.15.006.3.022.45.025.12.004.24-.003.36-.002.321.006.64.002.96-.006.16-.002.318.005.477-.002.093-.002.185-.015.28-.02.396-.018.791-.047 1.186-.08.16-.015.32-.019.48-.035.049-.005.097-.014.146-.02.672-.075 1.337-.169 1.99-.292.034-.005.068-.008.1-.015.192-.034.377-.086.565-.127.325-.069.65-.133.97-.216.231-.058.458-.127.687-.193.303-.087.607-.172.903-.27.065-.021.132-.037.196-.057.107-.037.204-.087.31-.123.471-.168.932-.35 1.38-.548.166-.073.333-.144.495-.221.572-.272 1.13-.558 1.655-.875l.214-.133c.158-.099.293-.207.443-.308.217-.147.439-.294.64-.449.173-.131.328-.269.49-.404.183-.155.372-.307.539-.466.034-.033.076-.06.109-.094.225-.218.432-.44.63-.664.04-.048.074-.093.114-.14.116-.137.236-.277.343-.418.046-.062.077-.127.121-.188.15-.212.284-.423.411-.638.054-.093.124-.179.174-.271.024-.047.038-.093.062-.14.097-.189.177-.38.257-.573.046-.11.108-.22.148-.33.014-.038.017-.075.03-.112.063-.182.106-.37.152-.554.03-.124.077-.243.101-.366.006-.033.004-.066.012-.098.034-.196.046-.39.063-.585.01-.124.037-.248.04-.37l.003-.153v-.008l.009-3.753c0 .17-.027.339-.04.51"/>
        <g transform="translate(93.086 117)">
            <mask id="b" fill="#fff">
                <use xlink:href="#a"/>
            </mask>
            <path fill="#872D24" d="M35.208.962l-.01 3.78-.002.161.01-3.778.002-.163" mask="url(#b)"/>
        </g>
        <g transform="translate(93.086 117)">
            <mask id="d" fill="#fff">
                <use xlink:href="#c"/>
            </mask>
            <path fill="#250F8A" d="M35.206 1.125l-.01 3.779c-.01.354-.047.708-.113 1.06l.01-3.78c.066-.351.103-.706.113-1.06" mask="url(#d)"/>
        </g>
        <path fill="#250F8A" d="M128.18 119.183l-.01 3.782a7.33 7.33 0 0 1-.279 1.038l.01-3.78c.12-.342.213-.689.279-1.04"/>
        <path fill="#250F8A" d="M127.901 120.224l-.01 3.78a7.742 7.742 0 0 1-.458 1.05l.01-3.78c.181-.346.334-.697.458-1.05M127.442 121.275l-.01 3.78a8.874 8.874 0 0 1-.693 1.104l.01-3.779c.265-.363.496-.73.693-1.105"/>
        <path fill="#250F8A" d="M126.749 122.38l-.01 3.779c-.31.42-.665.833-1.067 1.232l.01-3.78c.402-.399.758-.81 1.067-1.23M125.681 123.61l-.009 3.78a13.535 13.535 0 0 1-2.18 1.734l.01-3.78a13.504 13.504 0 0 0 2.18-1.733M123.501 125.344l-.01 3.78-.21.133a18.918 18.918 0 0 1-3.77 1.78l.009-3.78a18.868 18.868 0 0 0 3.771-1.781c.072-.044.14-.088.21-.132M119.52 127.256l-.01 3.78a23.521 23.521 0 0 1-3.26.87l.009-3.779a23.683 23.683 0 0 0 3.261-.87"/>
        <path fill="#250F8A" d="M116.26 128.127l-.01 3.78c-.721.138-1.456.248-2.196.328l.009-3.78a25.795 25.795 0 0 0 2.196-.328"/>
        <path fill="#250F8A" d="M114.063 128.454l-.009 3.782c-.633.066-1.27.112-1.91.136l.01-3.78c.64-.023 1.277-.07 1.909-.138M112.154 128.592l-.01 3.779c-.588.023-1.177.025-1.765.01l.01-3.78c.588.017 1.177.013 1.765-.009"/>
        <path fill="#250F8A" d="M110.39 128.601l-.01 3.78a29.918 29.918 0 0 1-1.697-.096l.01-3.78c.563.048 1.13.08 1.696.096M108.693 128.504l-.01 3.781c-.561-.05-1.12-.119-1.674-.203l.01-3.78c.554.084 1.113.152 1.674.202"/>
        <path fill="#250F8A" d="M107.019 128.302l-.01 3.78a25.652 25.652 0 0 1-1.707-.319l.008-3.778c.563.124 1.132.229 1.709.317"/>
        <path fill="#250F8A" d="M105.311 127.984l-.01 3.779a23.981 23.981 0 0 1-1.795-.472l.01-3.779c.587.179 1.186.335 1.795.472M103.515 127.512l-.01 3.78a21.98 21.98 0 0 1-2.09-.758l.009-3.78c.675.286 1.373.539 2.091.758"/>
        <path fill="#250F8A" d="M101.424 126.754l-.01 3.78a18.316 18.316 0 0 1-2.483-1.278c-3.399-2.105-5.095-4.868-5.089-7.628l.01-3.777c-.007 2.757 1.69 5.52 5.088 7.624a18.1 18.1 0 0 0 2.484 1.279"/>
        <g>
            <path fill="#02ECF1" d="M119 123.477h7.583c3.254-3.982 2.166-8.965-3.278-12.291-3.753-2.295-8.783-3.317-13.67-3.075l-6.567 5.63 15.931 9.736z"/>
            <path fill="#02ECF1" d="M119 123.477l-15.932-9.736 6.567-5.63c-3.955.195-7.816 1.214-10.832 3.07-6.741 4.149-6.705 10.875.087 15.027 6.785 4.148 17.754 4.148 24.495 0 1.337-.82 2.394-1.747 3.198-2.73h-7.584z"/>
            <path fill="#4F34CE" d="M119.112 80.959l2.299-1.415-.114 42.52-2.297 1.413z"/>
            <path fill="#263543" d="M103.183 71.218l2.297-1.413 15.931 9.738-2.298 1.415z"/>
            <path fill="#250F8A" d="M119.112 80.959l-.113 42.518-15.93-9.736.113-42.522z"/>
            <path fill="#250F8A" d="M59.966 2.859c.005 0 .01-.001.014-.003-.095.023-.176.07-.265.104.084-.03.161-.08.251-.101m1.464.13l.005.001c-.087-.03-.166-.037-.252-.058.083.02.162.028.247.057m-.757-.171h.012c-.1-.008-.19.012-.285.013.092-.001.177-.021.273-.013m103.042 130.72c.029-.07.048-.155.072-.23-.038.116-.063.25-.11.354.017-.036.023-.085.038-.124m-.203.398c-.07.118-.132.249-.214.348.082-.1.144-.23.214-.348m4.477-65.954a7.273 7.273 0 0 0-.052-.561c-.004-.035-.012-.068-.017-.102a1.643 1.643 0 0 1-.013-.084c-.016-.09-.027-.18-.044-.27a7.261 7.261 0 0 0-.089-.406 7.18 7.18 0 0 0-.094-.359l-.001-.006-.004-.012a11.033 11.033 0 0 0-.356-1.03l-.014-.033a13.025 13.025 0 0 0-.451-.96l-.044-.079a1.448 1.448 0 0 0-.026-.046 9.295 9.295 0 0 0-.331-.565 10.261 10.261 0 0 0-.255-.384l-.027-.036a9.096 9.096 0 0 0-.657-.842l-.011-.009c-.17-.193-.352-.36-.533-.53-.082-.081-.161-.171-.247-.247a6.28 6.28 0 0 0-.839-.617L66.136 1.05a4.809 4.809 0 0 0-.676-.347c-.042-.017-.084-.028-.126-.044-.025-.01-.05-.018-.075-.029-.049-.014-.098-.037-.145-.051a3.802 3.802 0 0 0-.556-.116l-.032-.002h-.023a2.512 2.512 0 0 0-.409-.004c-.07.004-.143.013-.211.028-.02.002-.038.007-.058.013l-.029.006c-.038.01-.078.015-.116.026a2.313 2.313 0 0 0-.385.156c-.034.018-.066.038-.099.057-.637.393-1.276.784-1.913 1.179L59.368 3.1c.002-.003.005-.003.007-.004-.744.453-1.207 1.425-1.211 2.81L58 67.108c-.005 1.972.93 4.236 2.286 5.887.553.674 1.17 1.26 1.83 1.661l97.748 59.756c.601.367 1.169.55 1.685.583.601.04 1.116-.151 1.525-.518-.09.081-.171.178-.273.239.192-.12.384-.236.575-.354l.192-.116 1.531-.944 1.341-.825.193-.119c.74-.455 1.198-1.424 1.202-2.803L168 68.351c0-.122-.004-.245-.01-.37"/>
        </g>
        <g>
            <g transform="translate(58.948)">
                <mask id="f" fill="#fff">
                    <use xlink:href="#e"/>
                </mask>
                <path fill="#1A242E" d="M.12 3.11L3.991.738c.033-.018.066-.038.1-.054L.218 3.055c-.034.018-.067.036-.099.056" mask="url(#f)"/>
            </g>
            <g transform="translate(58.948)">
                <mask id="h" fill="#fff">
                    <use xlink:href="#g"/>
                </mask>
                <path fill="#1B252F" d="M.217 3.055L4.091.683A1.71 1.71 0 0 1 4.283.59L.41 2.967a2.262 2.262 0 0 0-.192.088" mask="url(#h)"/>
            </g>
            <g transform="translate(58.948)">
                <mask id="j" fill="#fff">
                    <use xlink:href="#i"/>
                </mask>
                <path fill="#1C2631" d="M.41 2.966L4.283.591c.064-.026.131-.048.198-.066L.607 2.898a1.731 1.731 0 0 0-.197.068" mask="url(#j)"/>
            </g>
            <g transform="translate(58.948)">
                <mask id="l" fill="#fff">
                    <use xlink:href="#k"/>
                </mask>
                <path fill="#1D2732" d="M.607 2.898L4.48.525a1.4 1.4 0 0 1 .206-.048L.812 2.85c-.07.014-.138.028-.205.048" mask="url(#l)"/>
            </g>
            <g transform="translate(58.948)">
                <mask id="n" fill="#fff">
                    <use xlink:href="#m"/>
                </mask>
                <path fill="#1D2934" d="M.812 2.85L4.686.477A2.84 2.84 0 0 1 4.9.449L1.027 2.822a2.259 2.259 0 0 0-.215.028" mask="url(#n)"/>
            </g>
            <g transform="translate(58.948)">
                <mask id="p" fill="#fff">
                    <use xlink:href="#o"/>
                </mask>
                <path fill="#1E2A35" d="M1.027 2.823L4.9.449a2.55 2.55 0 0 1 .226-.008L1.254 2.815c-.078 0-.152.001-.227.008" mask="url(#p)"/>
            </g>
            <g transform="translate(58.948)">
                <mask id="r" fill="#fff">
                    <use xlink:href="#q"/>
                </mask>
                <path fill="#1F2B37" d="M1.253 2.815L5.126.442c.08 0 .16.008.243.014L1.495 2.831a3.012 3.012 0 0 0-.242-.016" mask="url(#r)"/>
            </g>
            <g transform="translate(58.948)">
                <mask id="t" fill="#fff">
                    <use xlink:href="#s"/>
                </mask>
                <path fill="#202C38" d="M1.495 2.83L5.368.458c.087.01.176.023.264.04L1.758 2.871a3.799 3.799 0 0 0-.263-.04" mask="url(#t)"/>
            </g>
            <g transform="translate(58.948)">
                <mask id="v" fill="#fff">
                    <use xlink:href="#u"/>
                </mask>
                <path fill="#212D3A" d="M1.759 2.87L5.633.499c.099.02.197.045.298.074L2.057 2.947c-.1-.03-.2-.053-.298-.076" mask="url(#v)"/>
            </g>
            <g transform="translate(58.948)">
                <mask id="x" fill="#fff">
                    <use xlink:href="#w"/>
                </mask>
                <use fill="#250F8A" xlink:href="#w"/>
                <path fill="#250F8A" d="M2.057 2.947L5.931.573c.115.035.231.076.35.124L2.407 3.072a4.416 4.416 0 0 0-.35-.125" mask="url(#x)"/>
            </g>
            <path fill="#250F8A" d="M61.356 3.071L65.229.698c.158.064.317.14.48.232l-3.874 2.373a4.23 4.23 0 0 0-.479-.232"/>
            <path fill="#250F8A" d="M61.836 3.303L65.708.93c.07.036.136.075.207.119L62.039 3.42c-.068-.04-.135-.083-.203-.118"/>
        </g>
        <g transform="translate(162.31 129)">
            <mask id="z" fill="#fff">
                <use xlink:href="#y"/>
            </mask>
            <path fill="#250F8A" d="M1.446 2.721L5.514.228c-.003 1.46-.491 2.485-1.277 2.968L.169 5.688c.786-.483 1.275-1.51 1.277-2.967" mask="url(#z)"/>
        </g>
        <g fill="#250F8A">
            <path d="M164.17 70.508l3.828-2.35-.162 61.04-3.83 2.35zM62.349 3.386l3.828-2.348 97.71 59.594-3.83 2.35z"/>
        </g>
        <g>
            <g transform="translate(159.466 60)">
                <mask id="B" fill="#fff">
                    <use xlink:href="#A"/>
                </mask>
                <path fill="#23313E" d="M.784 2.618L4.52.245c.565.356 1.102.841 1.59 1.413L2.373 4.032a7.113 7.113 0 0 0-1.59-1.414" mask="url(#B)"/>
            </g>
            <g transform="translate(159.466 60)">
                <mask id="D" fill="#fff">
                    <use xlink:href="#C"/>
                </mask>
                <path fill="#22303D" d="M2.374 4.031L6.108 1.66c.135.155.264.317.39.487L2.761 4.519a8.649 8.649 0 0 0-.388-.488" mask="url(#D)"/>
            </g>
            <g transform="translate(159.466 60)">
                <mask id="F" fill="#fff">
                    <use xlink:href="#E"/>
                </mask>
                <path fill="#222E3B" d="M2.762 4.52l3.735-2.374c.1.133.197.27.291.41L3.052 4.932a8.828 8.828 0 0 0-.29-.412" mask="url(#F)"/>
            </g>
            <g transform="translate(159.466 60)">
                <mask id="H" fill="#fff">
                    <use xlink:href="#G"/>
                </mask>
                <path fill="#212D3A" d="M3.052 4.93l3.736-2.372c.082.12.16.244.238.372L3.29 5.303c-.077-.125-.157-.25-.239-.372" mask="url(#H)"/>
            </g>
            <g transform="translate(159.466 60)">
                <mask id="J" fill="#fff">
                    <use xlink:href="#I"/>
                </mask>
                <path fill="#202C38" d="M3.292 5.303L7.026 2.93c.07.116.14.233.206.35L3.498 5.656a12.314 12.314 0 0 0-.206-.352" mask="url(#J)"/>
            </g>
            <g transform="translate(159.466 60)">
                <mask id="L" fill="#fff">
                    <use xlink:href="#K"/>
                </mask>
                <path fill="#1F2B37" d="M3.497 5.655L7.232 3.28c.064.114.125.227.185.343L3.68 5.997a9.049 9.049 0 0 0-.183-.342" mask="url(#L)"/>
            </g>
            <g transform="translate(159.466 60)">
                <mask id="N" fill="#fff">
                    <use xlink:href="#M"/>
                </mask>
                <path fill="#1E2A35" d="M3.68 5.997l3.736-2.373c.058.11.113.223.166.336L3.847 6.332a8.373 8.373 0 0 0-.166-.335" mask="url(#N)"/>
            </g>
            <g transform="translate(159.466 60)">
                <mask id="P" fill="#fff">
                    <use xlink:href="#O"/>
                </mask>
                <path fill="#1D2934" d="M3.846 6.332L7.582 3.96c.051.11.102.219.15.33L3.998 6.666a8.962 8.962 0 0 0-.152-.333" mask="url(#P)"/>
            </g>
            <g transform="translate(159.466 60)">
                <mask id="R" fill="#fff">
                    <use xlink:href="#Q"/>
                </mask>
                <path fill="#1D2732" d="M3.997 6.665L7.73 4.291c.05.11.095.222.14.333L4.134 6.997c-.044-.11-.09-.221-.138-.332" mask="url(#R)"/>
            </g>
            <g transform="translate(159.466 60)">
                <mask id="T" fill="#fff">
                    <use xlink:href="#S"/>
                </mask>
                <path fill="#1C2631" d="M4.135 6.997L7.87 4.624c.045.112.087.225.128.339L4.26 7.337a8.695 8.695 0 0 0-.126-.34" mask="url(#T)"/>
            </g>
            <g transform="translate(159.466 60)">
                <mask id="V" fill="#fff">
                    <use xlink:href="#U"/>
                </mask>
                <path fill="#1B252F" d="M4.26 7.337l3.738-2.375c.04.115.078.23.115.344L4.378 7.681a6.64 6.64 0 0 0-.117-.344" mask="url(#V)"/>
            </g>
            <g transform="translate(159.466 60)">
                <mask id="X" fill="#fff">
                    <use xlink:href="#W"/>
                </mask>
                <path fill="#1A242E" d="M4.377 7.68l3.736-2.374c.038.119.073.238.105.356L4.482 8.037a6.956 6.956 0 0 0-.105-.356" mask="url(#X)"/>
            </g>
            <g transform="translate(159.466 60)">
                <mask id="Z" fill="#fff">
                    <use xlink:href="#Y"/>
                </mask>
                <path fill="#19232C" d="M4.483 8.036l3.735-2.373a7.7 7.7 0 0 1 .097.377L4.58 8.414a8.58 8.58 0 0 0-.097-.378" mask="url(#Z)"/>
            </g>
            <g transform="translate(159.466 60)">
                <mask id="ab" fill="#fff">
                    <use xlink:href="#aa"/>
                </mask>
                <path fill="#18222B" d="M4.58 8.414l3.734-2.373c.033.136.061.272.087.408L4.665 8.823c-.024-.136-.055-.272-.085-.409" mask="url(#ab)"/>
            </g>
            <g transform="translate(159.466 60)">
                <mask id="ad" fill="#fff">
                    <use xlink:href="#ac"/>
                </mask>
                <path fill="#182029" d="M4.665 8.823L8.4 6.449c.029.154.053.306.072.46L4.738 9.282a8.582 8.582 0 0 0-.073-.46" mask="url(#ad)"/>
            </g>
            <g transform="translate(159.466 60)">
                <mask id="af" fill="#fff">
                    <use xlink:href="#ae"/>
                </mask>
                <use fill="#250F8A" xlink:href="#ae"/>
                <path fill="#250F8A" d="M4.737 9.282L8.472 6.91c.024.19.041.379.052.568L4.79 9.85a7.567 7.567 0 0 0-.052-.568" mask="url(#af)"/>
            </g>
            <path fill="#250F8A" d="M164.254 69.85l3.736-2.373c.006.124.008.246.008.37l-3.734 2.372c0-.12-.004-.245-.01-.369"/>
        </g>
        <g fill="#0AD7DD">
            <path d="M160.012 63.342c2.283 1.391 4.121 4.756 4.114 7.526l-.164 61.04c-.008 2.77-1.858 3.884-4.14 2.492L62.113 74.805c-2.281-1.391-4.12-4.757-4.113-7.527l.164-61.04c.007-2.768 1.859-3.884 4.14-2.491l97.708 59.595z"/>
        </g>
        <g>
            <path fill="#FFF" d="M159.41 68.113L65.297 10.71l-.13 55.443 94.095 57.381.148-55.421zM98.91 45.412l.025-9.185 55.547 33.88-.025 9.184-55.547-33.88zM69.432 27.433l.025-9.184 24.399 14.88-.024 9.186-.104 38.36-24.4-14.885.104-38.357zm29.373 56.335l.104-38.356 55.547 33.879-.104 38.358-55.547-33.88z"/>
            <path fill="#250F8A" d="M114.978 101.796l-7.996-4.876-.007 2.424 7.996 4.877z"/>
            <path fill="#FA7564" d="M93.855 33.13L69.456 18.248l-.023 9.184L93.83 42.315l.024-9.186zm-5.907 3.657l.015-5.321 4.383 2.674-.015 5.32-4.383-2.673zm-5.93-3.616l.014-5.322 4.384 2.673-.014 5.322-4.383-2.673zm-5.93-3.618l.014-5.32 4.384 2.672-.014 5.321-4.383-2.673z"/>
            <path fill="#E5FDFD" d="M93.831 42.315L69.432 27.433 69.33 65.79l24.399 14.884.103-38.359zm-23.048-.742l.024-8.959 21.507 13.12-.023 8.956-21.508-13.117zm-.059 21.688l.008-2.298 21.506 13.116-.006 2.3L70.724 63.26zM154.456 79.29L98.908 45.411l-.104 38.358 55.548 33.88.104-38.359zm-54.03-19.639l.024-8.956 52.454 31.993-.024 8.958-52.454-31.995zm-.013 4.6l.006-2.3 52.455 31.994-.007 2.298-52.454-31.993zm-.012 4.604l.007-2.299L152.86 98.55l-.006 2.3-52.454-31.994zm-.03 11.342l.023-8.96 52.455 31.994-.024 8.958-52.455-31.992z"/>
            <path fill="#FA7564" d="M154.48 70.106l-55.547-33.88-.025 9.185 55.548 33.88.025-9.185zm-5.943 3.636l.015-5.32 4.383 2.673-.014 5.32-4.384-2.673zm-5.93-3.616l.015-5.321 4.383 2.674-.015 5.32-4.382-2.673zm-5.93-3.617l.015-5.322 4.383 2.674-.015 5.32-4.382-2.672z"/>
            <path fill="#FFCA00" d="M152.935 71.095l-4.383-2.673-.015 5.32 4.384 2.673z"/>
            <path fill="#FFF" d="M147.005 67.479l-4.383-2.673-.015 5.32 4.383 2.672zM141.074 63.86l-4.383-2.673-.014 5.323 4.383 2.671z"/>
            <path fill="#FFCA00" d="M92.346 34.14l-4.383-2.673-.015 5.32 4.383 2.672z"/>
            <path fill="#FFF" d="M86.416 30.523l-4.383-2.673-.015 5.322 4.383 2.672zM80.486 26.906l-4.384-2.673-.014 5.32 4.383 2.674zM92.315 45.734L70.807 32.615l-.024 8.96L92.29 54.69zM152.904 82.688L100.45 50.696l-.025 8.956 52.454 31.994zM152.85 103.23l-52.456-31.992-.024 8.959 52.454 31.991z"/>
            <path fill="#FFCA00" d="M92.238 74.08L70.732 60.962l-.007 2.3 21.507 13.116zM152.874 93.945L100.42 61.952l-.008 2.3 52.455 31.99zM152.86 98.55l-52.453-31.994-.006 2.298 52.455 31.995z"/>
        </g>
        <g>
            <path fill="#172029" d="M65.208 65.97l-2.445 1.266.155-58.282 2.42 1.48z"/>
            <path fill="#263442" d="M159.218 123.449l-.007 2.767-96.449-58.98 2.446-1.267z"/>
        </g>
    </g>
</svg>
