<svg xmlns="http://www.w3.org/2000/svg" xmlns:xlink="http://www.w3.org/1999/xlink" width="143" height="37" viewBox="0 0 143 37">
    <defs>
        <path id="a" d="M0 .61h26.422v33.625H0z"/>
    </defs>
    <g fill="none" fill-rule="evenodd">
        <path fill="#F0A72E" d="M33.36 3.062c-.82-.472-1.834-.61-2.967-.374-.7.146-1.444.436-2.217.877a11.94 11.94 0 0 0-2.125 1.577l2.73 1.574a11.92 11.92 0 0 1 2.124-1.577c.773-.442 1.517-.732 2.217-.878 1.134-.237 2.148-.097 2.968.375l-2.73-1.574z"/>
        <g>
            <mask id="b" fill="#fff">
                <use xlink:href="#a"/>
            </mask>
            <path fill="#F0A72E" d="M23.693 1.173c-.947-.546-2.12-.706-3.43-.433-.81.169-1.671.504-2.566 1.016-1.488.853-2.885 2.091-4.096 3.556-2.229 2.695-3.83 6.156-4.217 9.377-.669.15-1.386.434-2.121.855-1.283.734-2.487 1.801-3.53 3.062-2.237 2.7-3.741 6.291-3.733 9.417.007 2.28.817 3.884 2.125 4.638l2.729 1.574c-1.309-.755-2.119-2.36-2.125-4.639-.01-3.126 1.497-6.716 3.732-9.416 1.044-1.262 2.248-2.328 3.531-3.063.735-.421 1.452-.705 2.12-.855.388-3.221 1.99-6.681 4.218-9.377 1.212-1.464 2.608-2.703 4.096-3.556.894-.512 1.756-.847 2.565-1.016 1.311-.274 2.484-.113 3.431.433l-2.729-1.573z" mask="url(#b)"/>
        </g>
        <path fill="#FFCA00" d="M20.426 3.33c4.221-2.418 7.729-.885 8.355 3.386a11.92 11.92 0 0 1 2.124-1.577c4.023-2.304 7.297-.453 7.31 4.132.013 4.587-3.24 10.175-7.263 12.48L10.04 33.729c-4.029 2.308-7.297.454-7.31-4.133-.013-4.586 3.233-10.17 7.262-12.478.736-.422 1.453-.706 2.121-.855.599-4.973 4.087-10.512 8.314-12.934"/>
        <path fill="#D43E3E" d="M54.676 5.314c-.82-.472-1.834-.61-2.968-.374-.7.146-1.444.436-2.217.877-.741.425-1.452.959-2.125 1.577l2.73 1.574A11.857 11.857 0 0 1 52.22 7.39c.772-.443 1.517-.732 2.216-.878 1.134-.237 2.148-.097 2.967.375l-2.728-1.574zM45.005 3.42c-.947-.546-2.12-.707-3.43-.434-.81.17-1.67.504-2.563 1.015-1.483.85-2.876 2.085-4.085 3.547-2.23 2.698-3.834 6.165-4.223 9.39-.674.152-1.385.433-2.126.858-1.281.733-2.484 1.8-3.527 3.06-2.237 2.7-3.745 6.293-3.736 9.419.007 2.278.818 3.881 2.125 4.636l2.73 1.572c-1.308-.753-2.12-2.356-2.126-4.635-.01-3.126 1.5-6.718 3.735-9.418 1.044-1.261 2.247-2.327 3.527-3.06.743-.426 1.453-.706 2.128-.86.388-3.224 1.992-6.69 4.222-9.388 1.21-1.463 2.602-2.698 4.085-3.548.892-.511 1.753-.846 2.562-1.014 1.31-.274 2.483-.113 3.43.433L45.006 3.42z"/>
        <path fill="#FA7564" d="M41.74 5.574c4.222-2.417 7.73-.878 8.355 3.394a11.896 11.896 0 0 1 2.126-1.577c4.023-2.304 7.296-.454 7.31 4.132.012 4.586-3.24 10.175-7.263 12.48L31.354 35.98c-4.023 2.304-7.297.453-7.31-4.133-.013-4.586 3.24-10.175 7.263-12.48.741-.423 1.453-.704 2.126-.858.599-4.971 4.087-10.518 8.308-12.936"/>
        <text fill="#FFF" font-family=".SFNSDisplay, .SF NS Display" font-size="20" letter-spacing="-.35">
            <tspan x="70" y="25">MartaUP</tspan>
        </text>
    </g>
</svg>
